<svg id="svg" version="1.1" xmlns="http://www.w3.org/2000/svg" xmlns:xlink="http://www.w3.org/1999/xlink" width="400" height="416.260162601626" viewBox="0, 0, 400,416.260162601626"><g id="svgg"><path id="path0" d="M198.008 120.900 C 194.711 122.585,194.024 124.437,194.010 131.680 C 193.987 142.601,192.650 143.994,181.800 144.401 C 171.907 144.772,169.600 146.202,169.600 151.963 C 169.600 157.388,171.991 158.863,181.383 159.234 C 192.741 159.682,193.997 160.965,194.002 172.120 C 194.006 180.427,195.965 183.600,201.090 183.600 C 207.000 183.600,208.441 181.357,208.800 171.600 C 209.209 160.498,209.994 159.706,221.059 159.236 C 229.799 158.864,232.000 157.422,232.000 152.066 C 232.000 146.294,229.751 144.782,220.600 144.399 C 209.978 143.954,209.213 143.164,208.800 132.200 C 208.470 123.457,207.847 121.906,204.126 120.580 C 201.894 119.783,199.999 119.883,198.008 120.900 M187.000 223.239 C 169.622 224.662,144.079 232.895,141.029 238.058 C 139.258 241.057,140.887 245.622,144.400 247.501 C 147.017 248.901,148.977 248.595,157.200 245.501 C 174.313 239.065,182.364 237.607,200.800 237.607 C 219.425 237.607,227.210 239.027,244.939 245.656 C 254.503 249.232,257.260 249.089,260.195 244.866 C 263.600 239.965,261.231 236.361,252.171 232.655 C 231.829 224.334,210.779 221.293,187.000 223.239 M190.000 272.023 C 170.443 273.742,151.394 279.918,133.000 290.506 C 123.739 295.837,122.573 299.234,127.862 305.476 C 130.572 308.674,130.210 308.740,139.400 303.394 C 177.923 280.986,222.695 280.858,261.725 303.044 C 265.066 304.943,268.395 306.835,269.123 307.248 C 270.955 308.290,271.213 308.228,273.078 306.300 C 278.895 300.289,278.238 296.218,270.718 291.657 C 246.115 276.736,216.990 269.652,190.000 272.023 " stroke="none" fill="#f9f9f9" fill-rule="evenodd"></path><path id="path1" d="M174.520 1.808 C 169.086 8.272,167.448 13.482,167.418 24.400 C 167.386 36.199,169.366 41.629,176.300 48.752 C 178.115 50.617,179.600 52.467,179.600 52.863 C 179.600 53.762,170.884 60.349,149.400 75.686 C 108.163 105.124,95.366 117.812,85.605 138.940 C 78.927 153.395,75.707 174.240,77.935 188.600 C 82.069 215.253,92.585 233.327,111.856 246.900 C 115.543 249.496,115.738 249.800,115.216 252.123 C 114.789 254.027,109.284 276.459,106.511 287.600 C 103.544 299.517,103.768 306.631,107.236 310.579 C 112.110 316.131,136.450 326.677,154.400 331.015 C 166.904 334.037,166.482 333.646,160.484 336.654 C 149.432 342.196,144.764 342.771,110.600 342.794 C 70.350 342.821,61.865 343.668,44.600 349.384 C 29.427 354.408,14.912 361.786,3.500 370.277 L -0.000 372.880 -0.000 387.344 L 0.000 401.808 7.104 408.904 L 14.208 416.000 30.693 416.000 L 47.179 416.000 51.489 413.332 C 69.479 402.198,82.305 399.361,124.400 397.203 C 162.979 395.225,174.720 392.844,194.399 383.007 C 201.450 379.482,200.192 379.450,208.099 383.347 C 228.100 393.204,238.783 395.268,280.800 397.393 C 319.524 399.352,334.240 402.885,352.708 414.656 L 354.816 416.000 371.112 416.000 L 387.409 416.000 393.705 409.695 L 400.000 403.391 400.000 387.498 L 400.000 371.606 397.100 369.463 C 381.220 357.729,355.418 347.002,336.400 344.229 C 329.977 343.292,314.765 342.809,291.400 342.798 C 266.432 342.787,258.596 342.430,253.175 341.054 C 246.761 339.427,236.800 335.148,236.800 334.019 C 236.800 333.563,236.551 333.635,246.400 331.254 C 259.991 327.968,269.460 324.494,282.400 318.045 C 295.311 311.610,296.821 309.956,297.125 301.915 C 297.352 295.920,297.702 297.604,288.423 260.004 C 285.712 249.020,285.639 249.679,289.884 246.848 C 323.171 224.651,334.228 175.596,314.772 136.430 C 304.767 116.287,292.548 104.356,253.200 76.306 C 229.722 59.569,222.000 53.719,222.000 52.670 C 222.000 52.465,223.666 50.562,225.702 48.441 C 237.342 36.313,238.090 14.036,227.263 1.941 L 225.526 0.000 200.783 0.000 L 176.040 0.000 174.520 1.808 M204.126 120.580 C 207.847 121.906,208.470 123.457,208.800 132.200 C 209.213 143.164,209.978 143.954,220.600 144.399 C 229.751 144.782,232.000 146.294,232.000 152.066 C 232.000 157.422,229.799 158.864,221.059 159.236 C 209.994 159.706,209.209 160.498,208.800 171.600 C 208.441 181.357,207.000 183.600,201.090 183.600 C 195.965 183.600,194.006 180.427,194.002 172.120 C 193.997 160.965,192.741 159.682,181.383 159.234 C 171.991 158.863,169.600 157.388,169.600 151.963 C 169.600 146.202,171.907 144.772,181.800 144.401 C 192.650 143.994,193.987 142.601,194.010 131.680 C 194.029 122.040,197.510 118.220,204.126 120.580 M213.842 223.207 C 231.609 224.609,256.598 232.376,260.563 237.729 C 262.685 240.594,260.973 245.573,257.195 247.529 C 254.650 248.845,252.653 248.540,244.939 245.656 C 227.210 239.027,219.425 237.607,200.800 237.607 C 182.364 237.607,174.313 239.065,157.200 245.501 C 147.055 249.317,144.233 249.175,141.464 244.704 C 138.475 239.878,140.467 236.578,148.449 233.137 C 168.100 224.665,190.057 221.331,213.842 223.207 M217.200 272.591 C 235.770 275.103,254.319 281.712,270.718 291.657 C 278.238 296.218,278.895 300.289,273.078 306.300 C 271.213 308.228,270.955 308.290,269.123 307.248 C 268.395 306.835,265.066 304.943,261.725 303.044 C 222.695 280.858,177.923 280.986,139.400 303.394 C 130.210 308.740,130.572 308.674,127.862 305.476 C 121.654 298.150,123.650 295.134,140.400 286.532 C 164.298 274.260,192.158 269.202,217.200 272.591 " stroke="none" fill="#040404" fill-rule="evenodd"></path></g></svg>