<svg id="svg" version="1.1" xmlns="http://www.w3.org/2000/svg" xmlns:xlink="http://www.w3.org/1999/xlink" width="400" height="400" viewBox="0, 0, 400,400"><g id="svgg"><path id="path0" d="M197.167 95.430 C 191.602 96.076,188.538 97.660,183.828 102.326 C 174.773 111.298,171.208 123.761,172.766 141.000 C 173.720 151.551,175.247 157.021,187.750 194.667 C 194.474 214.911,197.012 222.662,198.336 227.000 C 199.170 229.729,199.598 230.302,200.407 229.771 C 200.861 229.474,201.111 228.797,203.090 222.500 C 203.882 219.979,207.892 207.792,212.001 195.417 C 224.828 156.783,226.193 151.904,227.270 140.833 C 229.042 122.609,224.267 108.581,213.245 99.641 C 209.063 96.247,203.247 94.724,197.167 95.430 M204.643 105.243 C 215.293 107.869,221.190 122.952,219.111 142.250 C 217.590 156.372,214.614 167.926,205.522 195.000 C 201.080 208.228,200.783 208.884,199.585 208.100 C 197.754 206.900,186.591 172.043,183.354 157.417 C 177.422 130.614,180.784 112.466,192.832 106.262 C 195.559 104.858,201.130 104.377,204.643 105.243 M71.783 132.186 C 67.283 132.620,60.276 135.033,55.414 137.823 C 34.483 149.836,26.177 175.384,35.728 198.379 C 38.456 204.947,41.691 209.906,53.751 226.000 C 65.129 241.184,70.575 249.354,78.943 263.792 C 85.058 274.343,87.703 277.910,90.334 279.154 C 92.099 279.989,93.159 279.840,101.083 277.644 C 131.518 269.208,157.877 265.183,187.167 264.500 C 224.879 263.620,251.537 266.157,283.667 273.683 C 288.399 274.791,289.204 275.000,297.750 277.330 C 307.271 279.926,307.847 280.015,309.666 279.154 C 312.251 277.931,315.045 274.187,320.789 264.250 C 329.314 249.501,334.803 241.263,346.497 225.667 C 359.681 208.082,362.804 203.051,365.529 195.000 C 374.768 167.703,359.103 138.922,331.658 132.770 C 327.885 131.925,312.313 131.676,307.500 132.385 C 275.126 137.151,235.481 167.276,217.421 200.833 C 212.348 210.259,209.134 221.356,205.171 243.131 C 203.484 252.397,203.715 251.999,200.000 251.999 C 196.285 251.999,196.516 252.397,194.829 243.131 C 190.850 221.269,187.681 210.349,182.529 200.750 C 164.889 167.883,125.770 137.826,93.833 132.600 C 90.318 132.025,76.208 131.760,71.783 132.186 M85.596 138.013 C 100.818 139.515,119.156 147.843,137.296 161.493 C 168.992 185.342,186.280 212.803,189.578 244.537 C 190.240 250.905,190.936 250.446,180.417 250.569 C 157.245 250.839,129.234 255.045,103.187 262.165 C 91.474 265.367,91.323 265.399,90.090 264.928 C 88.811 264.440,87.369 262.573,83.582 256.500 C 78.289 248.015,73.104 240.527,64.222 228.546 C 49.546 208.748,45.794 202.491,42.857 192.917 C 34.656 166.180,49.367 141.322,75.250 138.181 C 76.075 138.081,76.938 137.972,77.167 137.939 C 78.147 137.797,83.925 137.848,85.596 138.013 M324.500 138.185 C 345.880 140.510,359.804 157.183,359.281 179.833 C 358.949 194.214,354.813 202.829,336.150 228.022 C 327.159 240.158,322.728 246.536,316.863 255.783 C 310.514 265.792,310.038 266.149,305.167 264.546 C 281.421 256.737,250.662 251.720,219.583 250.588 C 211.210 250.283,211.263 250.288,210.615 249.640 L 210.117 249.143 210.219 247.113 C 211.682 218.046,228.680 188.685,257.437 165.551 C 278.746 148.409,298.630 139.163,316.833 137.934 C 318.201 137.841,322.695 137.988,324.500 138.185 M188.167 292.333 C 159.577 293.384,136.578 297.570,108.333 306.861 C 94.320 311.471,90.750 313.631,90.750 317.500 C 90.750 319.067,91.150 319.947,92.534 321.427 C 94.978 324.039,95.338 323.992,108.352 319.361 C 130.121 311.616,158.224 305.665,178.583 304.490 C 186.863 304.012,216.403 304.130,224.333 304.673 C 242.979 305.950,270.770 311.985,291.085 319.170 C 303.778 323.659,305.217 323.864,307.518 321.515 C 310.500 318.470,309.451 314.067,305.239 311.956 C 300.514 309.587,280.692 303.233,268.971 300.330 C 250.144 295.668,235.385 293.424,217.417 292.491 C 213.060 292.265,192.973 292.157,188.167 292.333 M194.000 319.613 C 167.105 320.360,136.351 326.089,111.667 334.949 C 86.333 344.042,81.740 348.205,91.627 353.114 C 94.875 354.726,93.536 354.986,102.917 350.925 C 126.413 340.753,157.146 333.691,186.167 331.796 C 190.532 331.510,208.618 331.511,213.000 331.797 C 245.241 333.898,271.958 340.180,300.333 352.332 C 302.304 353.176,304.278 354.010,304.720 354.186 L 305.524 354.505 307.720 353.404 C 311.302 351.610,312.349 350.867,312.850 349.763 C 314.197 346.798,311.140 344.175,301.538 340.060 C 269.959 326.525,228.560 318.653,194.000 319.613 " stroke="none" fill="#fbfbfb" fill-rule="evenodd"></path><path id="path1" d="M193.956 26.510 C 191.775 27.040,191.759 27.108,191.702 36.208 L 191.654 43.833 179.869 43.841 C 167.449 43.848,167.303 43.857,166.481 44.600 C 165.607 45.391,165.583 45.601,165.583 52.500 L 165.583 58.917 165.989 59.625 C 166.268 60.112,166.633 60.451,167.156 60.708 L 167.917 61.083 179.792 61.132 L 191.667 61.181 191.667 74.502 L 191.667 87.823 188.625 89.298 C 179.793 93.580,173.673 99.980,168.905 109.917 C 165.423 117.174,164.641 120.725,164.410 130.333 C 164.089 143.672,165.308 151.956,169.623 165.750 C 171.234 170.899,171.249 170.836,168.987 168.417 C 155.098 153.558,141.176 143.191,123.014 134.181 C 102.219 123.865,82.560 120.834,65.250 125.276 C 50.241 129.127,37.302 139.170,30.605 152.167 C 20.480 171.813,21.137 189.792,32.716 209.940 C 35.356 214.534,38.123 218.484,47.175 230.583 C 58.850 246.188,64.802 255.097,72.318 268.223 C 75.015 272.933,76.708 275.755,77.735 277.255 C 78.718 278.690,78.900 279.619,79.827 287.917 C 80.473 293.708,82.499 315.941,82.499 317.250 C 82.499 318.127,81.979 322.386,80.017 337.583 C 78.546 348.972,79.083 351.382,83.612 353.709 C 108.724 366.609,137.497 372.674,177.500 373.500 C 224.943 374.481,252.615 372.889,276.250 367.821 C 289.857 364.903,298.557 361.986,311.667 355.949 C 320.138 352.048,320.769 351.331,320.725 345.667 C 320.707 343.297,320.597 342.316,318.669 327.333 C 317.262 316.398,317.271 318.711,318.584 304.306 C 320.630 281.858,321.036 278.950,322.378 277.071 C 323.177 275.954,324.929 273.031,327.682 268.223 C 335.190 255.112,341.173 246.155,352.825 230.583 C 367.932 210.396,372.031 203.184,374.899 191.750 C 379.963 171.559,372.180 148.863,355.667 135.671 C 336.972 120.737,310.367 119.269,282.333 131.625 C 263.521 139.916,245.888 152.465,231.878 167.533 C 228.774 170.872,228.782 170.875,230.060 166.813 C 234.804 151.733,236.053 143.002,235.521 128.635 C 235.231 120.832,234.626 117.921,232.066 112.032 C 227.382 101.254,220.589 93.722,211.524 89.255 L 209.167 88.093 209.167 74.637 L 209.167 61.182 220.625 61.132 L 232.083 61.083 232.844 60.708 C 233.367 60.451,233.732 60.112,234.011 59.625 L 234.417 58.917 234.417 52.500 C 234.417 42.886,235.962 43.851,220.542 43.841 L 209.167 43.833 209.167 36.581 C 209.167 32.373,209.101 29.207,209.010 29.039 C 208.924 28.880,208.813 28.556,208.764 28.319 C 208.643 27.738,208.085 27.056,207.444 26.705 C 206.844 26.377,195.196 26.209,193.956 26.510 M205.581 95.840 C 209.379 96.638,212.158 98.350,216.254 102.417 C 225.114 111.212,228.875 124.328,227.270 140.833 C 226.193 151.904,224.828 156.783,212.001 195.417 C 207.892 207.792,203.882 219.979,203.090 222.500 C 201.111 228.797,200.861 229.474,200.407 229.771 C 199.598 230.302,199.170 229.729,198.336 227.000 C 197.012 222.662,194.474 214.911,187.750 194.667 C 175.247 157.021,173.720 151.551,172.766 141.000 C 171.208 123.761,174.773 111.298,183.828 102.326 C 188.538 97.660,191.602 96.076,197.167 95.430 C 198.748 95.247,203.967 95.501,205.581 95.840 M196.731 104.997 C 190.821 105.834,185.405 111.311,182.692 119.192 C 177.305 134.847,181.270 158.088,196.746 201.568 C 199.297 208.737,199.798 209.418,201.070 207.456 C 202.361 205.467,212.787 173.237,215.074 164.167 C 222.988 132.786,220.166 112.757,206.893 106.101 C 204.787 105.045,200.036 104.529,196.731 104.997 M90.101 132.170 C 98.401 132.828,110.280 136.632,121.362 142.181 C 144.318 153.674,167.206 174.798,180.035 196.333 C 187.080 208.158,190.341 218.474,194.829 243.131 C 196.516 252.397,196.285 251.999,200.000 251.999 C 203.715 251.999,203.484 252.397,205.171 243.131 C 209.134 221.356,212.348 210.259,217.421 200.833 C 235.481 167.276,275.126 137.151,307.500 132.385 C 312.313 131.676,327.885 131.925,331.658 132.770 C 359.103 138.922,374.768 167.703,365.529 195.000 C 362.804 203.051,359.681 208.082,346.497 225.667 C 334.803 241.263,329.314 249.501,320.789 264.250 C 315.045 274.187,312.251 277.931,309.666 279.154 C 307.847 280.015,307.271 279.926,297.750 277.330 C 289.204 275.000,288.399 274.791,283.667 273.683 C 251.537 266.157,224.879 263.620,187.167 264.500 C 157.877 265.183,131.518 269.208,101.083 277.644 C 93.159 279.840,92.099 279.989,90.334 279.154 C 87.703 277.910,85.058 274.343,78.943 263.792 C 70.575 249.354,65.129 241.184,53.751 226.000 C 40.381 208.158,37.218 203.091,34.554 195.250 C 25.196 167.709,40.772 138.954,68.405 132.756 C 71.619 132.035,84.134 131.697,90.101 132.170 M77.167 137.939 C 76.938 137.972,76.075 138.081,75.250 138.181 C 49.367 141.322,34.656 166.180,42.857 192.917 C 45.794 202.491,49.546 208.748,64.222 228.546 C 73.104 240.527,78.289 248.015,83.582 256.500 C 87.369 262.573,88.811 264.440,90.090 264.928 C 91.323 265.399,91.474 265.367,103.187 262.165 C 129.234 255.045,157.245 250.839,180.417 250.569 C 190.936 250.446,190.240 250.905,189.578 244.537 C 186.280 212.803,168.992 185.342,137.296 161.493 C 119.156 147.843,100.818 139.515,85.596 138.013 C 83.925 137.848,78.147 137.797,77.167 137.939 M316.833 137.934 C 298.630 139.163,278.746 148.409,257.437 165.551 C 228.680 188.685,211.682 218.046,210.219 247.113 L 210.117 249.143 210.615 249.640 C 211.263 250.288,211.210 250.283,219.583 250.588 C 250.662 251.720,281.421 256.737,305.167 264.546 C 310.038 266.149,310.514 265.792,316.863 255.783 C 322.728 246.536,327.159 240.158,336.150 228.022 C 354.813 202.829,358.949 194.214,359.281 179.833 C 359.746 159.722,349.059 144.410,331.083 139.430 C 327.074 138.319,320.830 137.664,316.833 137.934 M217.417 292.491 C 235.385 293.424,250.144 295.668,268.971 300.330 C 280.692 303.233,300.514 309.587,305.239 311.956 C 309.451 314.067,310.500 318.470,307.518 321.515 C 305.217 323.864,303.778 323.659,291.085 319.170 C 270.770 311.985,242.979 305.950,224.333 304.673 C 216.403 304.130,186.863 304.012,178.583 304.490 C 158.224 305.665,130.121 311.616,108.352 319.361 C 95.338 323.992,94.978 324.039,92.534 321.427 C 91.150 319.947,90.750 319.067,90.750 317.500 C 90.750 313.631,94.320 311.471,108.333 306.861 C 136.578 297.570,159.577 293.384,188.167 292.333 C 192.973 292.157,213.060 292.265,217.417 292.491 M207.333 319.670 C 239.688 320.847,274.078 328.290,301.538 340.060 C 311.140 344.175,314.197 346.798,312.850 349.763 C 312.349 350.867,311.302 351.610,307.720 353.404 L 305.524 354.505 304.720 354.186 C 304.278 354.010,302.304 353.176,300.333 352.332 C 271.958 340.180,245.241 333.898,213.000 331.797 C 208.618 331.511,190.532 331.510,186.167 331.796 C 157.146 333.691,126.413 340.753,102.917 350.925 C 93.536 354.986,94.875 354.726,91.627 353.114 C 81.740 348.205,86.333 344.042,111.667 334.949 C 140.931 324.445,177.598 318.589,207.333 319.670 " stroke="none" fill="#040404" fill-rule="evenodd"></path></g></svg>