<?xml version="1.0" encoding="UTF-8" standalone="no"?>
<svg
   version="1.0"
   width="504.000000pt"
   height="504.000000pt"
   viewBox="0 0 504.000000 504.000000"
   preserveAspectRatio="xMidYMid meet"
   id="svg16"
   sodipodi:docname="bKnight.svg"
   inkscape:version="1.2.2 (732a01da63, 2022-12-09)"
   xmlns:inkscape="http://www.inkscape.org/namespaces/inkscape"
   xmlns:sodipodi="http://sodipodi.sourceforge.net/DTD/sodipodi-0.dtd"
   xmlns="http://www.w3.org/2000/svg"
   xmlns:svg="http://www.w3.org/2000/svg">
  <defs
     id="defs20" />
  <sodipodi:namedview
     id="namedview18"
     pagecolor="#505050"
     bordercolor="#eeeeee"
     borderopacity="1"
     inkscape:showpageshadow="0"
     inkscape:pageopacity="0"
     inkscape:pagecheckerboard="0"
     inkscape:deskcolor="#505050"
     inkscape:document-units="pt"
     showgrid="false"
     inkscape:zoom="1.2455357"
     inkscape:cx="335.59857"
     inkscape:cy="336.40143"
     inkscape:window-width="1920"
     inkscape:window-height="1017"
     inkscape:window-x="1912"
     inkscape:window-y="-8"
     inkscape:window-maximized="1"
     inkscape:current-layer="svg16" />
  <g
     transform="translate(0.000000,504.000000) scale(0.100000,-0.100000)"
     fill="#000000"
     stroke="none"
     id="g14">
    <path
       d="M2079 4466 l-182 -193 -306 183 c-289 174 -306 183 -309 160 -2 -14 6 -137 17 -274 12 -137 21 -266 21 -288 0 -60 -65 -151 -216 -299 -180 -177 -178 -175 -179 -400 -1 -177 -1 -182 -33 -275 -43 -125 -93 -213 -254 -455 -155 -232 -196 -307 -238 -434 -90 -267 -18 -497 188 -604 75 -39 147 -57 227 -57 55 0 55 0 55 -30 0 -67 61 -130 126 -130 51 0 121 29 169 72 59 52 107 124 191 284 149 286 217 347 613 553 207 108 323 176 438 258 l61 44 9 -58 c14 -103 8 -350 -11 -441 -37 -177 -115 -357 -216 -502 -32 -45 -140 -162 -270 -290 -219 -216 -289 -299 -340 -400 -62 -123 -90 -277 -76 -414 l8 -66 1545 0 1546 0 -6 205 c-19 590 -102 1167 -253 1755 -103 403 -227 736 -359 967 -99 172 -173 271 -300 398 -256 258 -560 395 -915 412 -93 5 -235 -5 -302 -20 -5 -1 -63 118 -130 266 -67 147 -125 267 -129 267 -5 0 -90 -87 -190 -194z m1001 -409 c255 -60 457 -173 645 -362 252 -252 422 -596 574 -1160 159 -592 254 -1199 296 -1897 7 -105 6 -107 -19 -133 -32 -32 -75 -33 -104 -2 -18 19 -22 41 -32 192 -34 543 -99 994 -216 1515 -162 719 -352 1147 -622 1402 -277 261 -623 369 -997 313 -95 -15 -101 -14 -125 3 -41 31 -40 98 2 120 88 47 416 51 598 9z m-1536 -517 c14 -5 26 -15 26 -22 0 -30 -80 -148 -145 -214 -70 -70 -161 -129 -245 -159 -24 -8 -45 -14 -46 -12 -7 6 185 320 213 350 53 56 137 80 197 57z m-824 -1375 c33 -17 60 -61 60 -98 0 -43 -43 -90 -154 -166 l-109 -74 5 99 c4 80 10 112 31 157 39 86 101 116 167 82z"
       id="path12" />
  </g>
  <path
     style="fill:#ffffff;stroke-width:0.802867"
     d="m 69.643041,421.67329 c 0.455721,-10.81933 1.819217,-20.5995 3.447945,-24.73162 4.442875,-11.27166 12.087214,-16.86807 19.637187,-14.37636 6.615825,2.18342 11.623937,9.62989 10.501277,15.61417 -0.78947,4.20826 -7.718903,11.18174 -19.122305,19.24389 -5.413051,3.827 -10.936759,7.65112 -12.274906,8.49805 l -2.432993,1.53986 z"
     id="path141"
     transform="scale(0.75)" />
  <path
     style="fill:#ffffff;stroke-width:0.802867"
     d="m 152.5448,252.66882 c 0,-2.45449 24.38207,-41.45156 28.47686,-45.54635 6.55726,-6.55727 17.66312,-9.4869 24.74553,-6.52768 3.80056,1.58797 3.77976,2.79042 -0.16501,9.54093 -10.97168,18.77536 -27.73726,33.73896 -45.9685,41.02779 -5.61649,2.24546 -7.08888,2.55812 -7.08888,1.50531 z"
     id="path143"
     transform="scale(0.75)" />
  <path
     style="fill:#ffffff;stroke-width:0.802867"
     d="m 597.45968,605.21044 c -3.10868,-3.10868 -3.76595,-6.75138 -5.33273,-29.55453 -4.79882,-69.84283 -11.99353,-121.58244 -25.8455,-185.8638 -23.6697,-109.84146 -51.30669,-171.21083 -92.76965,-205.99975 -24.15593,-20.26771 -50.71284,-32.07863 -81.31108,-36.1623 -11.41851,-1.52392 -35.92154,-1.06842 -46.96775,0.87312 -9.594,1.68629 -11.51177,1.57493 -14.37551,-0.83475 -5.73863,-4.82874 -4.80904,-12.69799 1.84786,-15.64265 9.39639,-4.15647 42.90051,-5.64352 63.89156,-2.83577 31.25084,4.18009 61.54705,17.47254 85.52498,37.52407 27.18696,22.73507 48.84956,53.21366 65.33006,91.91732 21.84721,51.30712 42.76842,135.9266 54.26297,219.47613 4.53666,32.97524 9.32209,83.21995 10.59574,111.25018 l 0.5158,11.35173 -2.7562,3.00754 c -2.22499,2.42787 -3.47854,3.08896 -6.50392,3.42996 -3.3568,0.37836 -3.99375,0.17638 -6.10663,-1.9365 z"
     id="path145"
     transform="scale(0.75)" />
</svg>
