<?xml version="1.0" standalone="no"?>
<!DOCTYPE svg PUBLIC "-//W3C//DTD SVG 20010904//EN"
 "http://www.w3.org/TR/2001/REC-SVG-20010904/DTD/svg10.dtd">
<svg version="1.0" xmlns="http://www.w3.org/2000/svg"
 width="800.000000pt" height="800.000000pt" viewBox="0 0 800.000000 800.000000"
 preserveAspectRatio="xMidYMid meet">

<g transform="translate(0.000000,800.000000) scale(0.100000,-0.100000)"
fill="#000000" stroke="none">
<path d="M3875 7150 c-259 -41 -478 -190 -579 -394 -47 -94 -66 -180 -66 -296
0 -204 70 -356 232 -504 39 -36 105 -83 146 -104 l74 -39 -99 -6 c-125 -7
-230 -35 -350 -92 -342 -162 -573 -451 -638 -799 -22 -115 -22 -317 0 -420 64
-306 270 -584 550 -741 77 -43 114 -71 104 -78 -2 -2 -60 -25 -129 -52 -399
-156 -750 -410 -1005 -730 -270 -337 -459 -771 -516 -1185 -22 -153 -18 -618
5 -757 l18 -113 2378 0 2377 0 18 108 c35 219 30 645 -11 865 -70 375 -256
779 -498 1082 -257 320 -611 577 -1006 730 -69 27 -127 50 -129 51 -10 8 27
36 104 79 280 157 486 435 550 741 21 100 21 299 1 416 -61 339 -289 631 -620
794 -133 65 -238 93 -369 101 l-99 6 75 39 c148 77 285 233 342 388 36 98 46
268 21 375 -58 246 -268 447 -541 515 -93 24 -254 33 -340 20z"/>
</g>
</svg>
