<?xml version="1.0" encoding="UTF-8" standalone="no"?>
<svg
   version="1.0"
   width="2400.000000pt"
   height="2400.000000pt"
   viewBox="0 0 2400.000000 2400.000000"
   preserveAspectRatio="xMidYMid meet"
   id="svg263"
   sodipodi:docname="bQueen.svg"
   inkscape:version="1.2.2 (732a01da63, 2022-12-09)"
   xmlns:inkscape="http://www.inkscape.org/namespaces/inkscape"
   xmlns:sodipodi="http://sodipodi.sourceforge.net/DTD/sodipodi-0.dtd"
   xmlns="http://www.w3.org/2000/svg"
   xmlns:svg="http://www.w3.org/2000/svg">
  <defs
     id="defs267" />
  <sodipodi:namedview
     id="namedview265"
     pagecolor="#505050"
     bordercolor="#eeeeee"
     borderopacity="1"
     inkscape:showpageshadow="0"
     inkscape:pageopacity="0"
     inkscape:pagecheckerboard="0"
     inkscape:deskcolor="#505050"
     inkscape:document-units="pt"
     showgrid="false"
     inkscape:zoom="0.2615625"
     inkscape:cx="1598.0884"
     inkscape:cy="1601.9116"
     inkscape:window-width="1920"
     inkscape:window-height="1017"
     inkscape:window-x="1912"
     inkscape:window-y="-8"
     inkscape:window-maximized="1"
     inkscape:current-layer="svg263" />
  <g
     transform="translate(0.000000,2400.000000) scale(0.100000,-0.100000)"
     fill="#000000"
     stroke="none"
     id="g261">
    <path
       d="M11850 22359 c-301 -20 -620 -129 -871 -298 -624 -419 -919 -1155 -764 -1904 99 -478 367 -878 765 -1144 151 -101 343 -186 529 -234 63 -16 117 -32 120 -34 2 -3 -44 -321 -104 -707 -169 -1107 -550 -3259 -1140 -6442 -113 -610 -205 -1118 -205 -1128 0 -142 -214 436 -1321 3574 -431 1223 -1344 3859 -1337 3862 2 1 44 17 93 35 246 90 508 272 686 476 489 560 586 1350 248 2015 -279 548 -801 916 -1413 996 -148 20 -405 14 -546 -11 -736 -133 -1297 -687 -1457 -1442 -25 -118 -27 -146 -28 -368 0 -212 3 -253 23 -353 34 -167 83 -309 162 -467 201 -403 533 -703 968 -876 104 -41 315 -94 435 -109 l99 -13 -6 -46 c-31 -243 -149 -2236 -211 -3561 -14 -289 -36 -712 -50 -940 -14 -228 -45 -770 -70 -1205 -87 -1526 -113 -1891 -136 -1926 -14 -21 -91 67 -166 189 -325 525 -1129 2126 -2311 4597 -166 349 -432 917 -432 925 0 4 38 32 84 63 553 368 879 1022 826 1655 -27 330 -127 620 -304 887 -285 427 -704 702 -1216 797 -91 17 -155 22 -305 22 -207 1 -288 -9 -463 -55 -315 -82 -560 -226 -807 -474 -168 -167 -249 -278 -348 -476 -365 -722 -228 -1576 343 -2149 320 -321 735 -507 1175 -527 117 -5 135 -3 183 16 39 16 54 18 57 8 7 -19 70 -442 109 -727 60 -435 112 -857 201 -1615 163 -1395 186 -1593 261 -2195 171 -1377 256 -1970 298 -2064 61 -135 346 -519 686 -926 367 -438 755 -969 957 -1310 205 -346 325 -593 698 -1433 166 -374 246 -565 242 -580 -2 -12 -108 -254 -235 -537 -357 -800 -552 -1333 -552 -1509 0 -69 14 -87 117 -155 128 -84 432 -246 461 -246 12 0 76 -27 142 -60 66 -33 128 -60 137 -60 10 0 90 -25 178 -56 491 -171 1214 -341 1696 -398 681 -82 5184 -104 7294 -36 659 22 976 54 1265 130 63 17 228 59 365 94 260 66 598 174 770 246 55 23 168 68 251 99 242 93 625 279 676 328 24 23 28 35 28 82 0 81 -40 246 -113 464 -81 241 -148 410 -431 1078 -124 294 -226 541 -226 549 0 9 59 155 131 325 72 171 180 432 241 580 135 330 306 732 349 817 106 211 748 1104 1019 1418 281 324 669 850 820 1109 40 69 44 83 57 195 58 503 168 1356 383 2971 106 796 216 1695 369 3017 26 224 49 410 52 412 2 2 31 -5 64 -15 73 -23 165 -24 318 -4 609 80 1149 473 1428 1040 312 636 224 1381 -231 1940 -509 625 -1350 858 -2069 573 -235 -93 -420 -217 -616 -413 -168 -167 -249 -278 -348 -476 -226 -448 -264 -934 -110 -1414 126 -392 375 -725 709 -946 l81 -54 -227 -490 c-380 -823 -688 -1464 -1202 -2510 -182 -368 -583 -1184 -892 -1813 -356 -725 -562 -1135 -564 -1120 -1 13 -45 786 -97 1718 -105 1871 -286 4883 -345 5759 -15 215 -17 296 -9 301 6 4 41 10 77 14 96 9 242 41 351 77 637 209 1090 719 1221 1374 28 138 38 410 21 552 -95 778 -684 1425 -1452 1597 -439 98 -905 21 -1293 -214 -293 -176 -558 -468 -706 -775 -287 -595 -244 -1290 113 -1825 184 -275 466 -514 757 -641 41 -18 79 -36 83 -40 12 -9 -768 -2273 -1516 -4404 -616 -1755 -1018 -2866 -1047 -2898 -12 -14 -70 247 -179 818 -370 1924 -1343 7416 -1319 7441 2 2 56 17 120 33 600 151 1082 599 1277 1187 202 607 83 1246 -324 1734 -265 317 -645 543 -1051 625 -111 23 -167 29 -334 39 -30 1 -107 -1 -170 -5z m935 -13983 c1717 -113 3212 -404 4660 -908 693 -241 952 -384 1020 -562 24 -63 17 -194 -13 -253 -40 -77 -101 -103 -241 -103 -198 0 -448 62 -1091 270 -1525 493 -2400 684 -3510 764 -461 34 -627 38 -1563 43 -1643 9 -2020 -19 -2882 -212 -132 -29 -289 -63 -350 -75 -538 -107 -1360 -333 -2130 -586 -745 -245 -921 -285 -1031 -235 -75 34 -169 175 -181 269 -23 199 231 385 812 597 1666 606 3251 921 5045 1005 281 13 1174 4 1455 -14z m25 -2066 c869 -38 1515 -131 2144 -310 1439 -410 2471 -873 2622 -1178 14 -27 18 -56 17 -105 -3 -118 -39 -188 -116 -230 -37 -19 -56 -22 -152 -21 -91 2 -133 8 -245 37 -173 45 -364 111 -665 227 -534 206 -1365 481 -1730 574 -238 60 -1217 200 -1755 251 -1327 126 -2402 63 -3455 -201 -778 -195 -1716 -520 -2524 -873 -140 -61 -264 -111 -276 -111 -62 0 -215 142 -269 252 -66 130 -47 200 85 323 275 256 1053 597 2103 921 424 131 653 191 851 223 729 116 1493 192 2220 220 296 12 888 12 1145 1z m-130 -2101 c1423 -62 2820 -296 4151 -694 552 -165 768 -250 871 -343 46 -42 100 -129 123 -198 38 -116 -37 -226 -211 -313 -92 -45 -176 -64 -291 -65 -89 -1 -105 2 -131 21 -182 135 -1851 611 -2477 707 -1736 266 -2941 319 -4235 186 -623 -65 -1078 -144 -1934 -336 -1032 -232 -1440 -343 -1827 -497 -223 -89 -398 -98 -547 -27 -122 58 -183 146 -190 277 -4 69 -1 88 18 127 48 99 193 171 675 335 629 214 1398 413 2110 545 956 177 1768 261 2825 290 181 5 822 -4 1070 -15z"
       id="path259" />
  </g>
  <path
     style="fill:#ffffff;stroke-width:3.82318"
     d="m 746.55249,2321.861 c -4.68885,-5.042 -10.5019,-14.8377 -12.91789,-21.7682 -3.77932,-10.8413 -3.34006,-14.0216 3.14561,-22.7746 19.45534,-26.2567 56.71919,-45.1558 154.19898,-78.2052 296.07361,-100.3802 607.97021,-136.7751 907.82611,-105.9331 187.4235,19.2776 335.3816,50.1261 495.9745,103.4083 93.6978,31.0875 138.6226,51.4885 155.3599,70.5512 14.0762,16.0319 15.8813,34.4921 4.7205,48.2751 -6.2414,7.7078 -10.4209,8.8986 -29.6296,8.4415 -27.1092,-0.6451 -47.2186,-5.7469 -155.9321,-39.5601 -198.8716,-61.8552 -288.9614,-81.7484 -436.0846,-96.294 -70.1996,-6.9405 -436.216,-6.8556 -491.2784,0.1138 -111.8217,14.1537 -265.1465,51.3011 -446.7643,108.2418 -53.92122,16.9054 -107.50095,31.6221 -119.06606,32.7038 -18.6358,1.7431 -21.99714,0.9242 -29.55265,-7.2003 z"
     id="path269"
     transform="scale(0.75)" />
  <path
     style="fill:#ffffff;stroke-width:3.82318"
     d="m 876.19011,2606.8055 c -14.20582,-11.1177 -23.62141,-27.4242 -23.62141,-40.9089 0,-37.4589 187.0957,-122.0789 368.6205,-166.7204 91.4171,-22.4817 260.6908,-38.2361 411.6496,-38.3124 112.7487,-0.057 191.4671,5.9711 271.5424,20.7942 148.6767,27.5222 368.9807,110.4871 419.6132,158.0234 16.7492,15.725 19.6137,20.4798 19.6137,32.5564 0,20.8331 -10.3596,29.4348 -35.4502,29.4348 -20.1558,0 -38.937,-5.9174 -193.9405,-61.1058 -127.3454,-45.3408 -174.2124,-56.3132 -317.6336,-74.3637 -271.2511,-34.1385 -442.9083,-18.2899 -685.2487,63.2672 -47.3936,15.9498 -156.79669,58.3379 -209.26276,81.0786 -13.0582,5.6599 -14.05048,5.5164 -25.88223,-3.7434 z"
     id="path271"
     transform="scale(0.75)" />
  <path
     style="fill:#ffffff;stroke-width:3.82318"
     d="m 822.7406,2843.7837 c -20.07396,-9.893 -29.08857,-33.7331 -19.51764,-51.6166 9.10025,-17.0039 107.18596,-52.3849 234.76984,-84.6848 110.8825,-28.0717 230.2568,-48.6848 351.7324,-60.7357 76.9357,-7.6324 342.8507,-6.3212 420.5496,2.0736 164.7245,17.7972 297.3727,44.0097 441.0079,87.147 74.5386,22.3859 100.5984,34.0678 113.3798,50.825 17.4097,22.8253 10.8539,41.6622 -19.9087,57.205 -13.1263,6.6321 -50.7859,8.4315 -56.7729,2.7127 -9.608,-9.1776 -131.891,-46.5378 -237.6107,-72.5954 -74.1899,-18.2861 -184.2389,-34.6436 -316.559,-47.0527 -73.5185,-6.8946 -254.6708,-5.7353 -326.8817,2.0919 -146.9316,15.9265 -374.3576,64.5823 -495.33172,105.9719 -47.65645,16.305 -69.10102,18.3945 -88.85718,8.6581 z"
     id="path273"
     transform="scale(0.75)" />
</svg>
