<?xml version="1.0" encoding="UTF-8" standalone="no"?>
<svg
   version="1.0"
   width="1024.000000pt"
   height="1024.000000pt"
   viewBox="0 0 1024.000000 1024.000000"
   preserveAspectRatio="xMidYMid meet"
   id="svg169"
   sodipodi:docname="bRook.svg"
   inkscape:version="1.2.2 (732a01da63, 2022-12-09)"
   xmlns:inkscape="http://www.inkscape.org/namespaces/inkscape"
   xmlns:sodipodi="http://sodipodi.sourceforge.net/DTD/sodipodi-0.dtd"
   xmlns="http://www.w3.org/2000/svg"
   xmlns:svg="http://www.w3.org/2000/svg">
  <defs
     id="defs173" />
  <sodipodi:namedview
     id="namedview171"
     pagecolor="#505050"
     bordercolor="#eeeeee"
     borderopacity="1"
     inkscape:showpageshadow="0"
     inkscape:pageopacity="0"
     inkscape:pagecheckerboard="0"
     inkscape:deskcolor="#505050"
     inkscape:document-units="pt"
     showgrid="false"
     inkscape:zoom="0.61303711"
     inkscape:cx="681.85106"
     inkscape:cy="683.48228"
     inkscape:window-width="1920"
     inkscape:window-height="1017"
     inkscape:window-x="1912"
     inkscape:window-y="-8"
     inkscape:window-maximized="1"
     inkscape:current-layer="svg169" />
  <g
     transform="translate(0.000000,1024.000000) scale(0.100000,-0.100000)"
     fill="#000000"
     stroke="none"
     id="g167">
    <path
       d="M2196 8791 c-3 -5 -3 -315 1 -689 l6 -681 494 -373 493 -373 0 -1515 0 -1515 -425 -450 -424 -450 0 -437 -1 -438 -255 0 -255 0 0 -375 0 -375 3290 0 3290 0 0 375 0 375 -255 0 -255 0 0 433 0 432 -424 450 -425 450 0 1520 -1 1520 493 373 494 373 6 681 c4 374 4 684 1 689 -3 5 -262 9 -580 9 l-574 0 0 -305 0 -305 -530 0 -530 0 0 305 0 305 -710 0 -710 0 0 -305 0 -305 -530 0 -530 0 0 305 0 305 -574 0 c-318 0 -577 -4 -580 -9z m5668 -1232 c41 -44 56 -77 56 -117 -1 -34 -15 -60 -63 -111 l-38 -41 -2700 0 -2701 0 -31 33 c-86 91 -89 151 -11 236 l36 41 2708 0 2708 0 36 -41z m-1022 -766 c45 -48 60 -77 60 -118 0 -41 -15 -70 -60 -117 l-36 -38 -1686 0 -1686 0 -36 38 c-45 47 -60 76 -60 117 0 41 15 70 60 118 l36 37 1686 0 1686 0 36 -37z m11 -3043 c25 -28 47 -63 49 -80 7 -44 -16 -98 -58 -141 l-38 -39 -1686 0 -1686 0 -38 39 c-76 78 -78 153 -5 227 l43 44 1687 0 1687 0 45 -50z m684 -879 c176 -7 187 -11 219 -73 33 -64 -1 -164 -64 -190 -15 -6 -133 -14 -262 -19 -295 -10 -3654 -10 -4357 0 l-523 7 -26 25 c-59 55 -69 117 -29 184 30 51 39 56 135 65 99 9 4698 10 4907 1z m-147 -850 c162 -5 302 -12 311 -15 28 -12 62 -68 67 -111 5 -47 -12 -86 -51 -124 -24 -21 -38 -24 -169 -32 -174 -10 -4369 -10 -4734 0 -289 8 -297 9 -328 74 -21 46 -20 95 4 134 35 59 59 67 214 73 214 10 4349 10 4686 1z"
       id="path165" />
  </g>
  <path
     style="fill:#ffffff;stroke-width:1.63122"
     d="m 520.36002,1132.8841 c -197.08758,-0.9082 -184.93601,-0.1401 -188.80004,-11.9342 -2.35232,-7.1798 -0.17911,-14.3211 6.04784,-19.8734 3.44828,-3.0747 6.98288,-3.3361 61.80379,-4.5715 63.84228,-1.4388 607.97739,-0.1542 620.64049,1.4652 6.5618,0.8391 8.4009,1.8643 11.0047,6.1343 4.7087,7.7222 4.0994,16.2337 -1.6205,22.6368 l -4.7588,5.3272 -103.30969,0.4113 c -56.82031,0.2262 -130.46952,0.5932 -163.6649,0.8156 -33.19538,0.2224 -139.99968,0.037 -237.34289,-0.4113 z"
     id="path229"
     transform="scale(0.75)" />
  <path
     style="fill:#ffffff;stroke-width:1.63122"
     d="m 383.80823,1019.1076 -44.38771,-0.4613 -3.99089,-5.2753 c -6.45592,-8.5338 -6.29652,-16.8452 0.46828,-24.41655 l 4.75972,-5.32721 327.60188,-0.5011 c 180.18105,-0.27561 334.50199,-0.0153 342.93549,0.57838 13.0961,0.92198 15.8928,1.63883 19.1668,4.91282 6.561,6.56095 4.0658,24.42036 -3.8546,27.58986 -7.8679,3.1485 -78.78164,3.9418 -327.52831,3.664 -148.93062,-0.1663 -290.75742,-0.51 -315.17066,-0.7636 z"
     id="path231"
     transform="scale(0.75)" />
  <path
     style="fill:#ffffff;stroke-width:1.63122"
     d="m 453.89993,894.3178 c -10.27363,-10.65106 -10.28929,-19.58733 -0.0528,-30.14867 l 5.16644,-5.33042 h 223.66794 223.66793 l 4.17208,4.48586 c 11.32894,12.18101 11.7327,18.94542 1.78788,29.95315 l -5.72921,6.34156 H 682.79684 459.01354 Z"
     id="path233"
     transform="scale(0.75)" />
  <path
     style="fill:#ffffff;stroke-width:1.63122"
     d="m 453.12442,489.49286 c -9.11762,-10.99757 -9.31177,-16.78454 -0.92089,-27.44905 l 4.81294,-6.11709 h 225.6502 225.65019 l 4.81293,6.11709 c 2.64714,3.36439 5.31035,7.71481 5.91828,9.66759 1.32629,4.2603 -2.16025,12.65861 -7.83751,18.8788 l -4.0943,4.48587 -224.77915,-0.11777 -224.77916,-0.11777 z"
     id="path235"
     transform="scale(0.75)" />
  <path
     style="fill:#ffffff;stroke-width:1.63122"
     d="m 317.7207,387.00757 c -9.35814,-12.34934 -9.56002,-17.55775 -1.07935,-27.84628 l 4.94702,-6.00159 h 361.05205 361.05208 l 4.3835,5.20952 c 9.1446,10.86779 9.0884,17.1232 -0.2467,27.45605 l -5.8577,6.48377 H 681.85486 321.73807 Z"
     id="path237"
     transform="scale(0.75)" />
</svg>
