<?xml version="1.0" encoding="UTF-8" standalone="no"?>
<svg
   version="1.0"
   width="1280.000000pt"
   height="1280.000000pt"
   viewBox="0 0 1280.000000 1280.000000"
   preserveAspectRatio="xMidYMid meet"
   id="svg638"
   sodipodi:docname="wBishop.svg"
   inkscape:version="1.2.2 (732a01da63, 2022-12-09)"
   xmlns:inkscape="http://www.inkscape.org/namespaces/inkscape"
   xmlns:sodipodi="http://sodipodi.sourceforge.net/DTD/sodipodi-0.dtd"
   xmlns="http://www.w3.org/2000/svg"
   xmlns:svg="http://www.w3.org/2000/svg">
  <defs
     id="defs642" />
  <sodipodi:namedview
     id="namedview640"
     pagecolor="#505050"
     bordercolor="#eeeeee"
     borderopacity="1"
     inkscape:showpageshadow="0"
     inkscape:pageopacity="0"
     inkscape:pagecheckerboard="0"
     inkscape:deskcolor="#505050"
     inkscape:document-units="pt"
     showgrid="false"
     inkscape:zoom="0.49042969"
     inkscape:cx="852.31382"
     inkscape:cy="852.31382"
     inkscape:window-width="1920"
     inkscape:window-height="1017"
     inkscape:window-x="1912"
     inkscape:window-y="-8"
     inkscape:window-maximized="1"
     inkscape:current-layer="svg638" />
  <metadata
     id="metadata630">
Created by potrace 1.16, written by Peter Selinger 2001-2019
</metadata>
  <g
     transform="translate(0.000000,1280.000000) scale(0.100000,-0.100000)"
     fill="#000000"
     stroke="none"
     id="g636">
    <path
       d="M5873 12786 c-370 -71 -688 -331 -827 -676 -96 -240 -106 -546 -24 -785 53 -154 149 -308 264 -424 35 -35 63 -65 62 -65 -31 -12 -194 -94 -293 -149 -670 -366 -1212 -803 -1611 -1297 -38 -47 -77 -94 -87 -105 -10 -11 -60 -81 -111 -155 -233 -338 -392 -652 -504 -1000 -39 -121 -69 -236 -96 -370 -43 -213 -59 -547 -37 -776 50 -503 277 -973 611 -1262 95 -81 238 -181 346 -239 l71 -38 -82 -205 c-45 -113 -189 -470 -320 -795 -131 -324 -240 -600 -243 -612 -6 -29 111 -184 221 -292 288 -283 739 -491 1367 -632 197 -44 480 -91 665 -109 61 -6 127 -14 148 -18 l38 -7 -143 -106 c-284 -212 -455 -312 -643 -378 -123 -44 -221 -61 -345 -61 -213 0 -382 54 -670 216 -152 85 -326 134 -554 155 -270 25 -648 -36 -1023 -165 -489 -168 -980 -418 -1498 -761 -269 -178 -318 -215 -463 -339 l-92 -79 0 -121 0 -121 68 -70 c37 -39 96 -102 131 -140 36 -39 103 -111 150 -160 47 -50 115 -122 150 -160 36 -39 103 -110 151 -160 47 -49 135 -143 194 -208 l109 -117 53 0 c29 0 55 4 58 9 3 4 36 29 73 55 38 26 100 69 138 97 335 239 738 389 1215 453 254 33 353 37 1110 46 870 10 1050 20 1365 75 361 63 655 158 955 310 l144 74 81 -47 c301 -176 679 -297 1095 -351 274 -35 299 -36 1215 -33 561 2 973 -1 1075 -8 810 -51 1356 -228 1876 -606 l102 -74 102 0 103 0 46 42 c44 40 229 211 376 349 38 36 97 90 130 120 33 29 96 88 140 130 44 41 107 100 140 130 33 30 91 84 130 120 38 36 82 77 98 89 l27 24 0 152 0 152 -127 58 c-1126 510 -2072 856 -2793 1022 -325 75 -534 102 -781 102 -189 0 -255 -9 -459 -60 -292 -75 -498 -102 -755 -102 -283 0 -464 35 -683 133 -119 54 -328 186 -472 299 l-25 20 30 0 c85 1 374 36 550 66 741 126 1284 346 1639 662 60 53 252 272 263 299 3 7 -44 128 -103 270 -59 142 -120 287 -135 323 -15 36 -97 234 -184 440 -86 206 -172 411 -190 455 -18 44 -40 97 -49 117 l-16 37 88 46 c180 95 366 247 502 410 250 300 389 650 435 1095 18 174 18 290 0 475 -39 394 -120 684 -312 1105 -109 240 -334 584 -552 845 -446 534 -1077 1019 -1772 1360 l-107 52 60 59 c120 118 213 267 268 426 46 136 54 192 55 363 0 167 -10 232 -57 368 -119 350 -415 622 -778 717 -108 28 -357 37 -467 16z m326 -541 c251 -60 441 -300 441 -560 0 -226 -148 -445 -360 -531 -55 -23 -83 -27 -185 -30 -188 -6 -298 36 -421 160 -113 113 -164 237 -164 400 0 162 56 301 166 410 137 138 335 195 523 151z m32 -1754 c567 -232 1065 -527 1504 -892 150 -125 437 -416 559 -569 231 -288 429 -628 545 -934 244 -647 216 -1299 -76 -1739 -73 -110 -213 -249 -326 -324 -97 -65 -257 -142 -300 -145 -12 0 -83 18 -157 41 -432 135 -911 222 -1500 273 -195 17 -919 17 -1110 0 -327 -29 -607 -74 -869 -138 -146 -36 -365 -105 -454 -143 -27 -12 -59 -21 -71 -21 -37 0 -240 106 -324 169 -281 212 -453 543 -503 966 -16 139 -6 418 21 574 107 612 449 1226 974 1746 370 366 796 667 1316 929 254 128 563 263 606 265 12 1 86 -25 165 -58z m104 -4821 c446 -27 867 -91 1249 -189 157 -40 342 -96 362 -109 6 -4 103 -225 214 -492 111 -267 209 -498 217 -513 8 -16 13 -31 10 -33 -2 -2 -37 12 -78 32 -197 96 -616 249 -884 323 -959 264 -1959 236 -2932 -80 -186 -61 -478 -175 -637 -248 -48 -23 -86 -35 -83 -29 3 7 101 249 217 538 116 289 215 529 220 533 13 14 258 97 375 127 298 76 632 125 985 143 145 8 613 6 765 -3z m66 -1350 c496 -39 930 -140 1409 -327 172 -68 513 -227 518 -242 1 -4 -32 -26 -75 -49 -920 -475 -2763 -547 -3959 -154 -183 60 -454 181 -454 202 0 7 203 106 342 166 499 216 1023 353 1498 394 69 5 141 12 160 14 85 8 438 5 561 -4z m-140 -1879 c295 -235 457 -345 658 -445 508 -255 1133 -281 1904 -80 178 47 405 45 697 -7 464 -82 1152 -299 1905 -599 295 -117 615 -253 615 -261 0 -8 -445 -422 -459 -427 -4 -1 -48 23 -97 54 -117 74 -393 210 -541 268 -300 116 -627 197 -973 240 -320 40 -354 41 -1380 41 -877 1 -1024 3 -1155 18 -522 59 -842 167 -1160 393 -66 47 -137 97 -157 111 l-38 26 -147 -93 c-339 -213 -596 -319 -953 -390 -343 -69 -519 -80 -1435 -90 -872 -10 -1011 -19 -1360 -86 -382 -74 -733 -205 -1035 -387 l-84 -51 -109 115 c-60 63 -149 157 -198 211 l-89 96 92 64 c543 376 1221 708 1693 828 224 57 350 73 535 67 201 -6 243 -19 502 -151 349 -178 587 -234 908 -215 424 25 785 203 1405 693 143 113 262 205 265 206 3 0 89 -67 191 -149z"
       id="path632" />
    <path
       d="M6008 9270 c-76 -19 -150 -82 -186 -159 -14 -31 -17 -82 -20 -358 l-3 -323 -306 0 c-207 0 -318 -4 -345 -12 -54 -16 -131 -87 -158 -145 -19 -40 -22 -60 -18 -125 4 -68 9 -84 39 -128 36 -53 81 -89 138 -108 23 -8 133 -12 342 -12 l308 0 3 -322 c3 -316 4 -324 27 -371 44 -90 150 -157 248 -157 43 0 122 30 165 64 19 14 48 50 64 78 l29 53 5 325 5 325 325 5 325 5 46 27 c91 53 131 125 133 233 0 58 -4 79 -26 121 -30 57 -73 98 -133 125 -36 17 -72 19 -357 19 l-318 0 0 318 c0 313 0 318 -24 367 -46 97 -118 148 -221 159 -27 3 -67 1 -87 -4z"
       id="path634" />
  </g>
  <path
     style="fill:#ffffff;stroke-width:2.03903"
     d="m 1058.2557,913.38217 c -51.5087,-15.29043 -120.2423,-27.89458 -183.51257,-33.65194 -37.76692,-3.43666 -165.24407,-1.53849 -196.76623,2.92988 -41.67621,5.90775 -84.30139,15.43862 -116.80656,26.1176 -35.65103,11.71251 -32.56409,11.9317 -60.28779,-4.28104 C 431.23307,863.76584 402.9816,767.91938 430.12749,664.45166 461.23748,545.8746 554.97449,434.98863 689.19156,357.99245 717.9119,341.51647 762.58047,319.46194 790.34528,308.0491 l 18.57308,-7.63455 21.18797,8.62407 c 92.68253,37.72423 172.84227,89.33015 234.25137,150.80833 32.3603,32.39677 47.9936,51.31966 69.5353,84.16743 28.6401,43.67149 47.0542,85.80245 58.1753,133.10334 5.2493,22.32681 5.7109,27.5487 5.6632,64.06906 -0.048,36.67659 -0.478,41.34283 -5.5444,60.15133 -3.0209,11.21466 -9.7206,28.91161 -14.8882,39.32656 -15.4642,31.16712 -46.3304,60.37269 -79.1409,74.88305 -6.3097,2.79045 -12.593,5.01093 -13.9628,4.9344 -1.3699,-0.0765 -13.0427,-3.27152 -25.9395,-7.09995 z M 829.14771,761.40234 c 3.78947,-2.34203 9.17574,-8.15864 11.9695,-12.92581 4.9665,-8.47471 5.07952,-9.59801 5.07952,-50.48838 v -41.82084 l 21.72699,-1.32936 c 11.94985,-0.73118 31.76521,-1.32939 44.0341,-1.32939 19.78457,0 23.03444,-0.51375 28.73896,-4.54318 9.76271,-6.89595 13.14856,-11.84273 15.52404,-22.6809 2.67892,-12.22253 0.16231,-22.96091 -7.52134,-32.09229 -9.28896,-11.03928 -14.37325,-12.04962 -60.63717,-12.04962 h -41.86558 v -42.17583 c 0,-47.24553 -1.59025,-54.15432 -14.69539,-63.84338 -6.9171,-5.11403 -23.41888,-7.75039 -33.17901,-5.30076 -8.13992,2.04299 -21.11345,14.95726 -23.43979,23.33276 -1.13746,4.09508 -2.07321,25.56746 -2.07945,47.7164 l -0.0114,40.27081 h -42.00168 c -47.7927,0 -52.17653,1.05139 -62.22574,14.92392 -4.97621,6.86946 -5.88011,10.06125 -5.88011,20.76348 0,14.46405 4.562,23.23141 16.15253,31.04225 6.62244,4.46286 8.50884,4.63634 50.41742,4.63634 h 43.53758 v 42.17583 c 0,38.34534 0.37946,42.9597 4.17819,50.8068 9.26638,19.1418 33.92872,26.18971 52.1778,14.91115 z"
     id="path644"
     transform="scale(0.75)" />
  <path
     style="fill:#ffffff;stroke-width:2.03903"
     d="m 505.83331,1125.0339 c 0.0849,-0.8411 12.71672,-32.2447 28.0708,-69.7856 l 27.9165,-68.25631 10.16098,-3.8273 c 29.31784,-11.04302 70.56179,-20.79459 115.17094,-27.23059 21.11173,-3.0459 38.9663,-3.6704 103.99044,-3.63725 70.26832,0.0358 82.1385,0.53045 113.16607,4.71565 54.33529,7.32912 85.15423,13.67295 132.23936,27.22043 l 22.1319,6.36785 4.1074,9.35911 c 12.5469,28.58981 52.5493,123.77131 52.5546,125.04821 0,0.827 -5.2698,-0.8637 -11.7182,-3.7571 -35.6504,-15.9962 -91.2044,-35.1563 -129.29299,-44.5922 -62.3353,-15.4426 -110.15396,-20.4769 -178.84207,-18.8283 -93.85354,2.2525 -173.73348,20.2843 -268.4558,60.6002 -20.2956,8.6382 -21.44126,8.995 -21.19993,6.6032 z"
     id="path646"
     transform="scale(0.75)" />
  <path
     style="fill:#ffffff;stroke-width:2.03903"
     d="m 762.41873,1265.06 c -92.33438,-4.5921 -182.51395,-24.5143 -237.60312,-52.4905 l -12,-6.0941 20.39028,-9.5119 c 189.01658,-88.175 369.89643,-88.5746 554.02191,-1.2242 9.7666,4.6334 18.2891,9.2845 18.9389,10.3359 2.74,4.4335 -46.2322,24.8006 -83.4278,34.6969 -51.58187,13.7241 -100.92488,21.0358 -164.43721,24.3666 -43.2137,2.2662 -48.82518,2.2616 -95.88296,-0.079 z"
     id="path648"
     transform="scale(0.75)" />
  <path
     style="fill:#ffffff;stroke-width:2.03903"
     d="m 1528.2517,1613.5549 c -65.7484,-38.7857 -138.6258,-60.6036 -230.4102,-68.9797 -12.3361,-1.1258 -77.9419,-2.0685 -145.7905,-2.0949 -128.4806,-0.05 -159.23035,-1.3056 -196.83391,-8.0379 -48.62393,-8.7052 -79.89182,-21.2017 -118.19598,-47.238 -12.33612,-8.3852 -23.42691,-15.8464 -24.64621,-16.5804 -1.21929,-0.734 -11.77127,4.6192 -23.44882,11.896 -43.247,26.949 -79.30523,41.6038 -124.91687,50.7687 -47.09219,9.4623 -53.05329,9.8175 -224.59862,13.3825 -96.51593,2.0058 -119.16852,3.8749 -160.81491,13.2693 -46.65124,10.5234 -89.66815,27.3743 -128.44072,50.3138 l -7.86973,4.6561 -25.19544,-26.5074 c -13.85749,-14.579 -25.226508,-27.0258 -25.264479,-27.6595 -0.09723,-1.6226 46.005249,-31.772 69.616619,-45.5268 45.42162,-26.4604 112.37824,-56.9607 149.50988,-68.1053 39.33445,-11.8058 70.02137,-15.7956 98.56312,-12.8148 17.28264,1.8049 21.70768,3.2518 47.91717,15.668 34.35599,16.2755 49.14097,22.2618 65.57865,26.5522 18.87486,4.9266 46.5426,6.8439 69.25647,4.7993 54.88887,-4.9407 98.31365,-26.729 182.12876,-91.383 l 34.96077,-26.9683 33.20295,25.6669 c 54.20946,41.9055 88.13488,60.6682 128.58124,71.1128 31.44006,8.1188 52.63216,10.0711 94.73816,8.7278 39.12,-1.2481 58.6473,-3.972 104.2066,-14.5359 56.2955,-13.0532 123.5114,-2.0256 249.5762,40.9463 62.0245,21.1424 179.1855,67.565 181.9958,72.1121 0.9287,1.5027 -55.6649,55.1002 -58.0915,55.0161 -0.5727,-0.02 -7.4642,-3.825 -15.3145,-8.456 z"
     id="path650"
     transform="scale(0.75)" />
  <path
     style="fill:#ffffff;stroke-width:2.03903"
     d="m 792.61644,221.2618 c -12.90244,-2.31019 -24.94514,-9.6126 -36.86107,-22.35169 -15.07377,-16.11508 -18.64665,-25.70725 -18.64665,-50.06105 0,-17.80222 0.67947,-21.81371 5.35324,-31.60493 7.95664,-16.66861 18.33626,-27.364629 34.31019,-35.356057 39.78026,-19.901252 81.92796,-3.881607 101.33877,38.517187 7.3035,15.95294 7.64345,37.11736 0.8756,54.51192 -5.90042,15.1651 -23.31353,34.21003 -37.52528,41.04184 -11.99834,5.7678 -33.31979,8.08254 -48.8448,5.30278 z"
     id="path652"
     transform="scale(0.75)" />
</svg>
