<?xml version="1.0" encoding="UTF-8" standalone="no"?>
<svg
   version="1.0"
   width="800.000000pt"
   height="800.000000pt"
   viewBox="0 0 800.000000 800.000000"
   preserveAspectRatio="xMidYMid meet"
   id="svg163"
   sodipodi:docname="wKnight.svg"
   inkscape:version="1.2.2 (732a01da63, 2022-12-09)"
   xmlns:inkscape="http://www.inkscape.org/namespaces/inkscape"
   xmlns:sodipodi="http://sodipodi.sourceforge.net/DTD/sodipodi-0.dtd"
   xmlns="http://www.w3.org/2000/svg"
   xmlns:svg="http://www.w3.org/2000/svg">
  <defs
     id="defs167" />
  <sodipodi:namedview
     id="namedview165"
     pagecolor="#505050"
     bordercolor="#eeeeee"
     borderopacity="1"
     inkscape:showpageshadow="0"
     inkscape:pageopacity="0"
     inkscape:pagecheckerboard="0"
     inkscape:deskcolor="#505050"
     inkscape:document-units="pt"
     showgrid="false"
     inkscape:zoom="0.7846875"
     inkscape:cx="324.33294"
     inkscape:cy="563.28156"
     inkscape:window-width="1920"
     inkscape:window-height="1017"
     inkscape:window-x="1912"
     inkscape:window-y="-8"
     inkscape:window-maximized="1"
     inkscape:current-layer="svg163" />
  <metadata
     id="metadata153">
Created by potrace 1.16, written by Peter Selinger 2001-2019
</metadata>
  <g
     transform="translate(0.000000,800.000000) scale(0.100000,-0.100000)"
     fill="#000000"
     stroke="none"
     id="g161">
    <path
       d="m 3585,7515 c -31,-11 -99,-75 -311,-292 -259,-265 -273,-277 -296,-266 -14,6 -189,109 -389,228 -457,273 -499,295 -552,295 -47,0 -100,-27 -118,-61 -17,-32 -7,-310 26,-707 l 27,-324 -36,-53 c -19,-29 -124,-145 -234,-257 -236,-243 -267,-281 -320,-391 l -40,-84 -4,-299 c -5,-276 -7,-304 -28,-369 -52,-162 -141,-324 -362,-661 -319,-488 -435,-724 -484,-981 -24,-131 -16,-330 20,-438 102,-309 347,-526 667,-591 46,-9 91,-20 100,-25 9,-5 30,-33 47,-62 37,-65 88,-112 161,-146 48,-21 70,-25 152,-26 95,0 97,1 190,47 204,103 280,195 513,628 206,381 317,479 873,769 264,137 364,192 519,284 l 109,65 3,-92 c 4,-119 -14,-325 -39,-451 -28,-141 -70,-259 -144,-412 -122,-254 -179,-326 -565,-718 -403,-410 -486,-508 -573,-680 -168,-335 -198,-813 -57,-940 21,-19 40,-20 614,-26 325,-3 1456,-3 2513,-1 l 1922,5 28,29 28,29 3,277 c 6,478 -31,971 -119,1567 -126,863 -354,1780 -596,2395 -127,324 -326,695 -492,915 -129,171 -330,379 -502,518 -251,204 -683,395 -1019,451 -207,34 -549,44 -686,20 l -30,-6 -103,229 c -272,599 -305,648 -416,608 z m 118,-641 c 57,-126 130,-282 162,-346 67,-136 55,-130 205,-102 117,21 473,30 624,15 467,-46 914,-273 1276,-647 187,-194 312,-378 477,-704 240,-475 449,-1186 628,-2135 120,-640 183,-1163 240,-1996 8,-118 -4,-170 -46,-200 -38,-27 -103,-36 -125,-18 -14,12 -371,15 -2262,17 l -2245,3 6,127 c 10,227 71,399 204,577 38,49 199,224 359,387 363,369 449,465 536,598 154,235 290,574 333,830 33,200 45,494 25,633 l -10,69 81,86 c 146,156 238,319 291,518 19,76 23,112 23,244 -1,169 -11,221 -51,269 -38,45 -92,58 -149,37 -73,-28 -79,-49 -81,-261 -2,-146 -6,-195 -23,-258 -27,-104 -90,-221 -158,-296 -129,-143 -428,-337 -935,-604 -394,-209 -530,-293 -673,-416 -137,-119 -189,-192 -380,-540 -58,-107 -129,-227 -156,-267 -88,-127 -188,-203 -266,-204 -78,0 -81,27 -15,125 27,39 78,114 115,168 57,83 67,104 67,140 0,93 -90,158 -171,124 -42,-17 -102,-81 -198,-210 l -73,-97 h -47 c -144,1 -287,65 -401,180 -124,124 -157,222 -147,444 10,234 88,405 422,921 245,379 336,545 406,743 48,136 51,162 58,447 9,349 -7,313 257,580 119,120 227,239 269,297 l 70,97 428,183 428,183 252,258 c 176,181 253,254 258,244 5,-7 55,-117 112,-243 z m -1221,43 c 131,-78 238,-144 238,-147 0,-3 -105,-51 -232,-106 -152,-66 -235,-97 -239,-90 -3,6 -11,92 -18,191 -6,99 -14,209 -18,244 -5,59 -4,64 12,57 10,-4 126,-71 257,-149 z"
       id="path155"
       inkscape:label="path155"
       style="display:inline" />
    <path
       d="m 2280,5578 c -81,-31 -148,-106 -267,-298 -112,-182 -193,-321 -193,-332 0,-5 6,-8 13,-8 20,0 199,83 265,124 166,101 441,437 405,495 -28,45 -132,54 -223,19 z"
       id="path157"
       style="display:inline" />
    <path
       d="M1025 3416 c-37 -16 -97 -82 -125 -137 -29 -56 -47 -151 -55 -293 -5 -97 -4 -117 7 -110 56 34 274 191 315 228 65 58 97 121 87 170 -9 52 -58 114 -107 137 -49 22 -81 23 -122 5z"
       id="path159" />
  </g>
  <path
     style="display:inline;fill:#ffffff;stroke-width:1.27439"
     d="m 952.82122,967.06847 c -0.58394,-0.59336 -135.75411,-1.38639 -300.37815,-1.76229 -164.62405,-0.37591 -299.52854,-0.94939 -299.78776,-1.2744 -0.99138,-1.24294 1.59124,-31.59285 3.41204,-40.09709 3.84307,-17.94949 11.47867,-34.88074 22.3935,-49.65562 6.38927,-8.64882 27.10862,-30.94765 66.35338,-71.41169 44.03629,-45.40442 53.44622,-57.34911 68.60945,-87.09079 26.75995,-52.48793 35.66071,-92.31658 34.30459,-153.50416 l -0.59797,-26.98032 10.55655,-11.85686 c 17.99946,-20.21654 29.98194,-41.17155 36.97035,-64.65389 3.14064,-10.55315 3.41653,-13.30229 3.45313,-34.4086 0.0465,-26.80628 -1.05192,-32.15423 -8.03906,-39.14138 -4.20033,-4.20033 -5.59252,-4.82517 -10.7508,-4.82517 -8.69492,0 -14.48697,2.84763 -16.73487,8.22763 -1.28548,3.07659 -2.24442,12.84844 -3.03718,30.94989 -1.30328,29.75855 -2.29541,34.36236 -11.0874,51.44917 -14.36159,27.9111 -43.83699,49.29173 -136.83219,99.25418 -56.12179,30.1519 -74.6949,41.86981 -93.82126,59.19246 -15.21069,13.77628 -21.79912,23.39926 -47.60062,69.52484 -16.79622,30.02679 -23.1698,39.69292 -31.99376,48.52147 -8.85845,8.86306 -16.87522,12.94673 -24.358,12.40775 -4.43102,-0.31914 -5.56504,-0.90662 -5.87014,-3.041 -0.23946,-1.67524 4.99141,-10.64063 14.26301,-24.44591 8.22375,-12.24504 14.99807,-23.70297 15.45545,-26.14098 0.86387,-4.60484 -1.65908,-12.39025 -5.32955,-16.44607 -2.87951,-3.18181 -10.08621,-5.25918 -15.02843,-4.33201 -6.06213,1.13725 -13.87511,8.57758 -27.45671,26.14713 l -11.87843,15.36626 h -7.17632 c -16.65056,0 -34.80683,-8.20731 -49.76677,-22.49645 -16.23309,-15.50519 -21.593989,-28.13986 -21.642544,-51.00751 -0.06792,-31.9888 9.423114,-56.42051 41.992654,-108.097 36.00758,-57.13144 42.16474,-67.12467 49.51927,-80.37097 12.3235,-22.19595 22.75608,-48.76034 24.9914,-63.6354 0.42131,-2.80366 1.2815,-20.00796 1.91152,-38.23178 1.54983,-44.83014 -0.22535,-40.65295 31.31281,-73.68223 25.24084,-26.43425 36.86136,-39.61939 43.77797,-49.67234 3.91068,-5.68397 4.11845,-5.78647 60.99265,-30.08834 l 57.06861,-24.38495 32.52298,-33.10917 c 17.88765,-18.21004 33.14093,-33.10917 33.89618,-33.10917 0.75526,0 8.14026,14.76703 16.41114,32.81562 17.72588,38.68122 25.6754,54.92406 28.37874,57.98486 2.21113,2.50349 8.87777,2.84741 18.14181,0.93589 3.15412,-0.65081 17.92413,-1.85456 32.82224,-2.67499 53.01633,-2.9196 90.30262,3.27938 131.57442,21.87472 49.04764,22.09881 93.35811,60.08968 125.03881,107.20565 45.2494,67.2955 80.22728,168.78378 109.28948,317.10318 16.51823,84.30101 25.7431,154.11467 33.27712,251.84055 3.67389,47.65517 3.3989,52.09025 -3.61733,58.3413 -2.88736,2.57246 -14.09678,4.32441 -15.90601,2.48598 z M 125.64351,675.85998 c 36.93075,-25.53957 45.32043,-35.31158 41.43898,-48.26672 -2.14128,-7.14693 -10.86957,-15.90536 -17.65995,-17.72088 -8.11333,-2.16925 -14.06738,-0.0788 -21.05614,7.39275 -7.03188,7.51764 -10.51788,14.10435 -13.05658,24.67006 -2.36625,9.84798 -4.11503,41.77648 -2.28818,41.77648 0.69749,0 6.37733,-3.53326 12.62187,-7.85169 z M 261.85998,401.54337 c 17.71082,-8.27632 27.84136,-15.50783 41.54264,-29.6545 19.07108,-19.69102 33.31497,-40.39813 31.3361,-45.55496 -1.61474,-4.20796 -7.52572,-6.46334 -16.72346,-6.38097 -15.18254,0.13595 -24.80353,6.16848 -37.80208,23.70255 -8.18862,11.04584 -38.07857,60.67956 -38.07857,63.23133 0,2.79793 5.48,1.31344 19.72537,-5.34345 z"
     id="path238"
     transform="scale(0.75)" />
  <path
     style="display:none;fill:#ffffff;stroke-width:1.27439"
     d="m 345.53655,1001.1182 -18.30256,-0.72 -3.50745,-4.20463 c -15.51215,-18.59581 -11.57369,-75.4883 8.1865,-118.25661 10.22839,-22.13802 21.51364,-35.92557 71.35467,-87.17631 57.45431,-59.07934 66.06601,-69.86953 81.68376,-102.34729 17.05743,-35.47161 22.82607,-60.58688 24.4236,-106.33451 0.52578,-15.05668 0.34398,-21.98327 -0.57699,-21.98327 -0.73956,0 -8.4249,4.21123 -17.07854,9.35829 -8.65363,5.14705 -25.19624,14.41153 -36.76136,20.58773 -11.56511,6.17621 -32.21027,17.21461 -45.87813,24.52978 -33.87017,18.12766 -51.56221,30.01864 -65.74442,44.18741 -13.93321,13.92003 -20.12091,22.95483 -39.49792,57.67179 -8.14731,14.5972 -17.82077,31.15698 -21.49657,36.79951 -12.97957,19.92428 -28.08418,33.02274 -48.49008,42.04975 -7.03641,3.1127 -8.71378,3.34193 -21.02748,2.87342 -10.72062,-0.40788 -14.46942,-1.0777 -18.85472,-3.36885 -7.54378,-3.94135 -14.9078,-10.85857 -20.80515,-19.5428 -3.92387,-5.77815 -5.98288,-7.59528 -9.73885,-8.59477 -24.25796,-6.45529 -30.31426,-8.43368 -39.36062,-12.85781 -30.753145,-15.03986 -54.11496,-44.57777 -60.968461,-77.08652 -2.490066,-11.81133 -2.467898,-38.27391 0.04315,-51.51109 5.741282,-30.26558 21.742236,-62.48708 62.386631,-125.62949 30.7223,-47.7281 41.89636,-67.88499 49.09934,-88.57029 2.63044,-7.55403 3.00894,-12.0434 4.29773,-50.97571 l 1.41325,-42.69215 5.44674,-10.30849 c 6.62298,-12.53466 13.64282,-21.16736 36.72391,-45.16152 24.77958,-25.75983 32.82733,-34.63657 37.31364,-41.15719 l 3.8876,-5.65044 -1.81507,-20.86437 c -3.7044,-42.58226 -5.77427,-74.95596 -6.07141,-94.959601 -0.34735,-23.384012 -0.0878,-24.113508 9.94128,-27.943657 9.12097,-3.483333 7.39032,-4.319586 81.08558,39.180498 27.1026,15.99784 50.58266,29.08699 52.17791,29.08699 2.09998,0 12.76811,-9.87661 38.65563,-35.78759 19.66536,-19.683178 37.18888,-36.580419 38.94117,-37.549428 4.5916,-2.539133 10.62715,-2.244396 14.37273,0.701871 7.20348,5.666265 17.01162,24.317139 42.55363,80.918697 6.64219,14.71924 12.47858,27.17726 12.96976,27.68451 0.49117,0.50724 7.9787,0.29139 16.63895,-0.47967 19.12924,-1.70316 57.51246,0.20869 79.35199,3.95247 37.80595,6.4808 85.97166,25.84202 118.83909,47.76986 21.85892,14.58341 56.19928,46.97076 76.41773,72.07172 22.59488,28.05125 47.76502,72.06232 66.82301,116.84289 40.9964,96.32931 79.93724,263.81086 94.47086,406.31194 4.74199,46.49449 5.35709,58.18001 6.05989,115.10581 l 0.6972,56.48376 -4.2341,4.36849 -4.23412,4.36847 -316.75519,-0.2358 c -174.21536,-0.1298 -324.99134,-0.5599 -335.05774,-0.9558 z m 623.13202,-34.85409 c 8.03372,-5.40161 8.59352,-10.58888 5.56917,-51.60601 C 966.46505,809.24228 956.74964,736.5268 937.93268,642.9311 914.66147,527.17988 890.14224,447.64857 858.37227,384.86659 833.70468,336.11992 811.65834,305.98618 780.28177,278.12968 736.53663,239.2922 687.90353,215.9387 634.64755,208.19646 c -13.49544,-1.96193 -67.66452,-1.88604 -83.47272,0.11699 -26.66893,3.37912 -25.36136,3.44157 -28.95825,-1.38316 -3.24304,-4.35009 -14.24956,-27.15931 -32.2086,-66.74707 -5.4055,-11.91557 -10.34395,-22.21166 -10.97431,-22.8802 -0.70444,-0.7471 -14.52705,12.07457 -35.86847,33.27114 l -34.72235,34.48663 -56.10461,23.94334 -56.10462,23.94334 -5.70343,7.77537 c -9.00944,12.28239 -19.19383,23.71115 -42.85505,48.09129 -14.45608,14.89533 -23.1544,24.9253 -25.31685,29.19269 -3.93074,7.75693 -5.67495,20.7338 -5.73204,42.64631 -0.074,28.39886 -1.86776,43.57685 -6.95112,58.81736 -8.57515,25.70929 -21.33334,49.56509 -52.71573,98.57013 -49.55491,77.38222 -58.886777,98.88292 -58.809036,135.49644 0.04882,22.99222 5.340926,35.97346 20.874026,51.20283 15.58935,15.28451 34.00075,23.57834 52.33057,23.57348 l 7.69721,-0.003 10.55303,-13.86857 c 11.91027,-15.65223 22.61284,-26.38751 27.53996,-27.62415 10.81225,-2.7137 22.56381,10.33389 18.86468,20.94521 -0.74768,2.14479 -7.4129,12.83316 -14.81161,23.75194 -17.96559,26.5131 -18.74757,29.94309 -6.82165,29.92191 8.90461,-0.0158 17.11143,-4.73954 27.46678,-15.80944 7.88059,-8.42436 16.69923,-22.44477 35.33758,-56.18179 31.94234,-57.81836 46.42599,-70.45915 135.08509,-117.89736 59.21599,-31.68428 89.45256,-50.24329 111.61569,-68.50895 16.42872,-13.53967 25.85895,-27.13306 32.47213,-46.80755 3.06387,-9.11517 3.53835,-12.97056 4.47921,-36.39566 0.57878,-14.41029 1.6389,-27.74337 2.35584,-29.62905 2.9073,-7.64675 15.81901,-10.97323 23.77093,-6.12417 7.28327,4.44132 10.59809,16.61102 10.68864,39.24105 0.0868,21.68926 -4.19128,39.52788 -14.6807,61.2155 -6.13308,12.68055 -20.74722,32.96329 -30.85288,42.82022 l -6.28866,6.13388 0.61803,27.82374 c 1.16478,52.43888 -3.89024,82.23967 -21.35771,125.90977 -7.8586,19.64711 -21.49936,45.27806 -31.36199,58.92905 -9.66223,13.37362 -18.82574,23.48165 -58.92072,64.99403 -53.03799,54.91293 -61.27789,64.70165 -70.26524,83.47272 -7.93691,16.57709 -12.18167,35.90022 -13.04218,59.37088 l -0.40124,10.94396 109.59777,0.84336 c 60.27877,0.46385 190.17125,0.72929 288.64994,0.58987 l 179.05217,-0.25347 -154.83871,-0.83621 c -85.16129,-0.45991 -214.62365,-0.91896 -287.69414,-1.0201 l -132.85544,-0.18338 v -3.60184 c 0,-7.57451 2.80452,-31.80223 4.59433,-39.6895 2.8598,-12.60254 9.74133,-28.27091 17.5175,-39.8852 8.35996,-12.48617 15.48548,-20.41178 62.70945,-69.75058 41.98453,-43.86473 51.7059,-54.93316 62.04478,-70.64205 16.11371,-24.48319 32.41699,-61.51209 39.79765,-90.39063 6.3204,-24.73 8.31837,-44.48147 8.31837,-82.23347 v -32.25136 l 9.7646,-11.29825 c 17.84798,-20.65125 28.20971,-38.13167 36.21386,-61.09344 l 4.22022,-12.10673 0.07,-26.12505 c 0.0787,-29.43006 -0.56952,-32.7044 -7.93793,-40.09312 -4.67323,-4.68611 -4.85042,-4.74277 -13.35169,-4.26888 -7.19891,0.40131 -9.15626,1.02095 -11.90361,3.76828 -3.7447,3.74472 -4.58529,9.09941 -6.82333,43.46588 -1.4373,22.0708 -3.53147,30.43352 -10.97662,43.83336 -15.56853,28.02034 -39.55385,45.20724 -139.16664,99.72119 -59.85259,32.75483 -77.09471,43.96768 -95.2404,61.93649 -11.09666,10.9885 -20.22793,24.55881 -39.59344,58.84121 -24.57893,43.51165 -35.15199,57.73806 -47.6492,64.11366 -6.58844,3.36115 -16.61424,3.55418 -16.61424,0.31988 0,-1.2391 5.38935,-10.6093 11.97633,-20.82265 18.80841,-29.1631 19.53589,-31.21044 14.79876,-41.64782 -3.7455,-8.2525 -14.44315,-11.72927 -22.6966,-7.37647 -4.72794,2.49347 -15.9472,14.34351 -26.98283,28.49985 l -9.22685,11.83606 -7.82927,-0.80613 c -11.62392,-1.19686 -16.99436,-2.81796 -27.6726,-8.35319 -17.92307,-9.29069 -33.36519,-26.11108 -38.12792,-41.53099 -3.238,-10.48343 -3.510658,-34.06588 -0.56125,-48.54331 4.71085,-23.12366 14.22544,-41.65468 54.7722,-106.67666 31.85815,-51.08868 39.28778,-64.15003 47.14635,-82.88371 10.80267,-25.75195 11.89303,-31.24585 13.36355,-67.33363 1.47682,-36.24257 2.66209,-45.03238 7.1064,-52.69984 1.71714,-2.96248 13.51338,-16.43919 26.21385,-29.94823 22.58079,-24.0184 40.46741,-44.4857 42.98089,-49.18218 1.92004,-3.58763 11.79183,-8.27231 66.39172,-31.50638 l 50.33851,-21.42069 32.84545,-33.22952 c 29.83346,-30.1823 33.00303,-33.02315 34.56381,-30.9792 0.94509,1.23768 5.88918,11.27352 10.98684,22.30188 5.09766,11.02835 14.3242,30.50091 20.50343,43.27233 9.85626,20.37122 11.67121,23.33072 14.78978,24.11664 1.95514,0.49272 10.43653,0.18299 18.84752,-0.68828 23.99018,-2.48511 65.57786,-3.25909 82.24153,-1.53058 85.34761,8.85302 163.28433,61.4778 213.45305,144.12876 44.42153,73.18265 83.25329,200.01038 109.44827,357.46714 13.18759,79.26991 26.17653,203.34542 24.7866,236.7714 -0.4183,10.05944 -0.77292,11.35507 -3.98903,14.57406 -3.4565,3.45961 -3.90701,3.54577 -21.66467,4.14348 l -18.13477,0.61041 11.46954,0.74176 c 22.32218,1.44362 22.92697,1.40654 27.52958,-1.68811 z M 129.47105,674.00453 c 21.18867,-14.79922 33.24922,-25.54479 37.28506,-33.21984 2.01713,-3.83602 1.83527,-12.55438 -0.35002,-16.78027 -0.99756,-1.92906 -4.38694,-5.87928 -7.53195,-8.77824 -12.55941,-11.57687 -26.7887,-7.76134 -37.43428,10.03784 -5.91588,9.89125 -8.08002,19.66092 -8.92432,40.28755 -0.63763,15.57738 -0.47308,18.1601 1.15702,18.1601 1.0452,0 8.15452,-4.36821 15.79849,-9.70714 z M 265.69516,400.24031 c 21.72815,-10.82237 39.1265,-26.12061 57.87101,-50.88554 16.8661,-22.28322 15.50645,-29.50229 -5.54915,-29.46316 -20.64947,0.0384 -29.89082,8.24846 -54.48846,48.40787 -13.86735,22.64057 -21.39395,36.10511 -21.39395,38.27221 0,3.60757 7.83122,1.5031 23.56055,-6.33138 z M 317.3131,184.84745 c 20.98599,-8.59528 45.88881,-19.99362 45.88881,-21.0039 0,-0.98598 -55.08859,-34.16458 -62.74783,-37.79158 -2.61964,-1.24052 -5.14062,-1.87784 -5.60219,-1.41626 -0.85321,0.8532 2.98409,59.5739 4.15979,63.65581 0.93081,3.23167 2.91277,2.85869 18.30142,-3.44407 z"
     id="path240"
     transform="scale(0.75)" />
  <path
     style="display:none;fill:#ffffff;stroke-width:1.27439"
     d="m 635.16182,1001.0531 c -261.78892,-0.5603 -306.29211,-0.9162 -308.15789,-2.46485 -4.37544,-3.63163 -8.54428,-12.83439 -10.52353,-23.23091 -4.96768,-26.0937 2.87341,-70.24049 17.73466,-99.84957 10.63253,-21.1839 18.41802,-30.61259 68.39938,-82.83553 59.90816,-62.59494 65.3218,-69.29195 80.35382,-99.40263 15.61318,-31.27473 22.06207,-53.04027 25.48731,-86.0215 1.79528,-17.28658 1.69401,-47.15253 -0.15989,-47.15253 -0.80375,0 -14.13709,7.10011 -29.62963,15.77803 -15.49253,8.67791 -41.3582,22.82549 -57.47927,31.43907 -46.85533,25.03509 -62.81845,35.54052 -79.47322,52.30184 -12.50717,12.58719 -17.26011,19.50383 -37.13858,54.04538 -27.09179,47.07568 -33.75935,56.31703 -48.77974,67.60951 -4.35922,3.27732 -12.47176,8.24467 -18.02785,11.03856 l -10.10198,5.07979 -14.94809,-0.44617 -14.94808,-0.44617 -7.36621,-5.09757 c -4.05141,-2.80366 -10.89015,-9.39865 -15.19719,-14.65552 l -7.83099,-9.55794 -16.46321,-4.75199 C 130.85435,756.64299 116.46788,749.71989 104.14451,739.92696 84.549658,724.35566 70.920946,703.70197 65.023197,680.64043 61.726242,667.74859 61.416284,637.61 64.430573,623.01691 c 5.921306,-28.66689 21.42363,-59.53464 61.681227,-122.81779 36.495,-57.3685 48.26673,-79.95098 51.05202,-97.93644 0.61334,-3.96053 1.75827,-24.64797 2.54429,-45.97211 1.58921,-43.1145 1.02484,-40.42604 12.05913,-57.44549 5.51663,-8.50894 12.90254,-16.8799 45.73508,-51.8347 10.41918,-11.09267 20.6788,-22.68261 22.79918,-25.75541 4.39887,-6.3748 4.42869,0.62471 -0.25309,-59.4071 -3.34528,-42.89472 -4.54565,-78.056247 -2.81475,-82.450277 1.66858,-4.235781 6.1288,-7.276959 12.09162,-8.24459 6.25779,-1.0155 12.6929,2.20319 62.01681,31.019337 55.27092,32.29052 64.46931,37.37366 67.63102,37.37366 3.11715,0 8.82232,-5.21325 49.13779,-44.900863 29.17258,-28.718254 29.52845,-29.013914 34.92296,-29.013914 4.74341,0 6.07323,0.675026 10.25637,5.206188 5.72106,6.197014 18.51698,31.036699 38.13905,74.036209 l 14.35286,31.45267 24.99822,-0.71871 c 58.11168,-1.67073 97.66959,6.09573 148.81098,29.21628 31.26799,14.13596 54.81775,30.55482 83.78114,58.41212 37.84881,36.40337 65.42679,76.66541 92.49705,135.0396 41.6672,89.85101 81.05161,246.94352 99.38361,396.41111 6.13216,49.99753 7.77256,74.97015 8.99036,136.86591 l 1.2029,61.14239 -4.6943,4.80743 -4.69431,4.80738 -27.4594,-0.3009 c -15.10267,-0.1655 -165.14913,-0.5956 -333.43657,-0.9558 z M 969.26274,966.573 c 6.48007,-4.00489 7.41775,-8.65801 6.52697,-32.38919 C 973.7502,879.84896 963.08514,782.21017 951.84112,714.93429 932.47908,599.08606 906.55221,497.0553 879.22107,429.15056 864.23943,391.92842 839.14172,345.51018 820.79506,321.09161 785.50841,274.12669 734.01517,236.42227 680.9556,218.69822 640.88389,205.31265 610.26117,203.3162 535.12343,209.1907 l -9.67943,0.75678 -2.80007,-3.93233 c -3.03721,-4.26537 -15.18885,-29.40047 -31.98068,-66.15055 -5.84478,-12.79172 -11.13275,-23.25767 -11.75103,-23.25767 -1.6946,0 -11.50327,9.14806 -43.06993,40.16915 l -28.67383,28.17828 -55.27508,23.49256 -55.27507,23.49255 -11.82183,14.65551 c -6.502,8.06054 -20.33789,23.56052 -30.74643,34.44439 -21.80753,22.80347 -29.87255,32.10089 -32.74622,37.75011 -3.07464,6.04433 -4.51057,18.44347 -5.88127,50.78439 -1.65569,39.06494 -4.46534,50.32815 -20.58051,82.50202 -8.60243,17.17474 -16.66642,30.83176 -40.38598,68.39699 -48.41208,76.67133 -56.327834,95.10811 -56.327834,131.19454 0,27.11097 3.453674,35.89734 20.865334,53.0827 17.03294,16.81158 31.94055,23.57684 51.77505,23.49617 l 9.55794,-0.0389 8.28356,-11.06005 c 4.55595,-6.08303 12.36078,-15.23435 17.34405,-20.33628 7.7346,-7.91875 9.69278,-9.27553 13.38112,-9.27146 8.51256,0.009 16.42735,7.826 16.42735,16.2236 0,2.43136 -4.45082,10.46617 -13.62441,24.59535 -13.46629,20.74076 -17.28361,28.21872 -16.0483,31.4379 0.99762,2.59976 14.06239,2.0305 20.50515,-0.89345 6.99084,-3.17269 18.42243,-14.66943 25.9792,-26.12723 3.23592,-4.90641 12.90354,-21.2505 21.48358,-36.32019 37.50905,-65.87954 46.63884,-74.11184 136.36768,-122.9622 74.21344,-40.40343 102.05447,-58.1767 121.75174,-77.72433 12.62377,-12.52785 18.81674,-22.19888 24.19905,-37.78941 2.75401,-7.9774 3.51387,-13.67111 5.04053,-37.76982 0.98871,-15.607 2.40322,-29.50788 3.14335,-30.89083 1.86639,-3.48737 7.91296,-6.36402 13.37687,-6.36402 9.35233,0 14.13664,5.00467 17.10718,17.89508 1.91405,8.30585 1.65529,36.48448 -0.43438,47.30543 -4.96616,25.7162 -19.8334,53.49507 -40.43979,75.56021 l -8.73003,9.34802 -0.0249,34.862 c -0.0261,36.62702 -1.38029,52.3952 -6.29215,73.26755 -9.79293,41.61399 -31.99845,88.17132 -55.46322,116.28729 -5.03914,6.03801 -21.76503,24.16817 -37.16866,40.28923 -67.29672,70.4312 -73.42862,77.58954 -82.19181,95.95024 -2.83346,5.93665 -6.55838,16.31053 -8.27762,23.05306 -3.21554,12.61082 -6.76006,46.53328 -5.04177,48.25188 0.53045,0.53056 128.94542,1.02097 285.3666,1.0898 178.21532,0.0784 254.42561,-0.21142 204.11541,-0.77628 -44.1577,-0.49579 -171.88867,-0.98222 -283.84659,-1.08094 l -203.55987,-0.17951 0.59143,-5.41617 c 0.32528,-2.9789 1.21492,-11.3605 1.97697,-18.6258 2.56288,-24.43427 8.12083,-40.23125 20.86024,-59.28949 7.73678,-11.5743 14.18953,-18.78258 60.01946,-67.04688 36.65628,-38.60339 46.99627,-49.92649 54.91434,-60.13547 17.31653,-22.32669 36.67602,-61.73961 46.51791,-94.70324 7.58353,-25.39968 8.952,-36.91894 9.67941,-81.47822 l 0.66436,-40.69765 9.90268,-11.71066 c 17.865,-21.12672 27.27918,-36.93422 36.16267,-60.7213 l 4.61956,-12.36967 v -24.20639 c 0,-28.85928 -1.14767,-35.51755 -7.2949,-42.32179 -4.37762,-4.84552 -4.65661,-4.94912 -13.32745,-4.94912 -16.86442,0 -17.50245,1.46517 -20.81068,47.78973 -1.73095,24.23816 -6.52635,38.24943 -18.78129,54.87547 -14.6737,19.90755 -42.1356,38.47406 -123.76443,83.67501 -69.79098,38.64588 -82.1178,46.62276 -100.95834,65.33176 -14.40567,14.3051 -19.83387,22.14515 -41.83882,60.42872 -22.49735,39.14022 -32.51442,53.38511 -42.2517,60.08453 -8.11354,5.58226 -19.66484,7.52445 -19.66074,3.30568 7.7e-4,-0.80115 5.22192,-9.77206 11.60254,-19.93534 6.38063,-10.16328 12.68823,-20.60638 14.0169,-23.2069 4.5209,-8.84838 2.5312,-19.38813 -4.73978,-25.10749 -4.93601,-3.88267 -14.98896,-3.66516 -21.05306,0.4555 -4.20714,2.85883 -18.75869,19.0505 -28.98107,32.24758 -3.42223,4.4181 -4.96549,5.41617 -8.37468,5.41617 -8.64675,0 -18.27903,-2.70523 -29.76272,-8.35887 -15.07134,-7.41992 -29.49649,-21.02799 -35.71932,-33.69609 -4.97294,-10.12362 -6.90268,-26.38738 -5.21677,-43.96655 2.70602,-28.21593 9.68996,-42.85661 57.44797,-120.43011 30.06355,-48.83233 37.19635,-61.25014 43.79673,-76.24765 11.962,-27.18022 12.75498,-31.00311 15.2448,-73.49349 2.14146,-36.54531 3.1818,-43.68234 7.37717,-50.60907 1.5612,-2.57764 13.22653,-16.04438 25.92294,-29.92607 26.7788,-29.27876 40.5354,-45.05729 42.52554,-48.77589 1.85497,-3.46604 20.30466,-12.22086 73.29889,-34.78207 l 43.32935,-18.44658 32.89323,-32.98344 c 30.11464,-30.19722 33.0159,-32.76814 34.34518,-30.43466 0.79856,1.40183 9.91684,20.20656 20.26285,41.78829 10.34601,21.58173 20.06346,40.99853 21.59433,43.14845 l 2.78343,3.90895 13.51488,-0.7613 c 7.43319,-0.4187 29.57225,-1.1254 49.19789,-1.57043 29.95487,-0.67926 37.93333,-0.46521 49.70132,1.33341 85.75243,13.10636 159.82065,67.00268 208.39576,151.64079 38.501,67.0848 74.13893,181.38688 98.76929,316.78424 15.52843,85.36239 29.91181,210.16336 29.91181,259.53715 v 18.47652 l -3.58166,3.58165 c -3.45406,3.45407 -4.21453,3.61936 -21.34607,4.63962 -19.46796,1.15941 -16.81298,2.50101 5.66142,2.8608 10.0301,0.16056 12.63474,-0.2279 16.16744,-2.41123 z M 125.94367,677.15499 c 20.34825,-13.64298 37.09138,-27.89423 40.48762,-34.46183 0.9837,-1.90227 1.78854,-6.59668 1.78854,-10.43204 0,-5.92409 -0.63213,-7.80216 -4.20104,-12.48131 -11.92414,-15.6336 -29.41245,-14.84095 -40.91088,1.85425 -7.57825,11.00329 -9.87205,20.19751 -10.63872,42.64312 -0.78871,23.0907 -1.18828,22.70881 13.47448,12.87781 z M 264.24159,401.62648 c 21.03307,-10.23198 40.91435,-27.2547 58.27266,-49.8941 9.65629,-12.59412 12.65102,-18.32927 12.65102,-24.22772 0,-4.01726 -0.53977,-4.8017 -4.41944,-6.42274 -5.81043,-2.42774 -17.64488,-2.3474 -26.14722,0.17752 -9.58698,2.84702 -19.57272,12.78918 -32.52652,32.38453 -13.97673,21.14276 -29.93748,49.10645 -29.93748,52.45135 0,2.39595 0.54716,2.60974 5.11213,1.99744 2.81167,-0.37712 10.45935,-3.28695 16.99485,-6.46628 z m 64.3261,-220.78075 c 24.26456,-10.36186 34.63422,-15.46137 34.63422,-17.03213 0,-2.52793 -62.44175,-39.56031 -66.7042,-39.56031 -2.39785,0 -2.45971,0.69066 -1.62648,18.16009 1.04266,21.85997 3.13441,45.47568 4.17749,47.16341 1.38419,2.23968 9.33672,-0.11249 29.51897,-8.73106 z"
     id="path311"
     transform="scale(0.75)" />
  <path
     style="display:none;fill:#ffffff;stroke-width:1.27439"
     d="m 635.09976,1001.0531 c -303.78532,-0.65 -306.05998,-0.6736 -308.85724,-3.20364 -18.12092,-16.38973 -13.80914,-79.07795 8.4866,-123.38508 10.04184,-19.95559 18.3892,-30.03611 67.20194,-81.15494 41.80995,-43.78519 47.82295,-50.30003 57.04703,-61.80805 22.5441,-28.12615 40.72629,-68.83085 46.96335,-105.13739 3.49089,-20.32087 5.19345,-66.26842 2.45553,-66.26842 -0.95081,0 -11.21297,5.38914 -22.80479,11.97586 -11.59183,6.58674 -36.27318,20.1286 -54.84746,30.09305 -55.9576,30.0193 -68.49454,38.005 -85.69252,54.5839 -15.02897,14.48798 -20.61404,22.34317 -40.45376,56.89667 -26.80654,46.68716 -33.74811,56.30577 -48.8032,67.62435 -4.35922,3.27732 -12.47176,8.24467 -18.02785,11.03856 l -10.10198,5.07979 -14.94809,-0.44617 -14.94808,-0.44617 -7.36621,-5.09757 c -4.05141,-2.80366 -10.89015,-9.39865 -15.19719,-14.65552 l -7.83099,-9.55794 -16.46321,-4.75199 C 117.40293,752.76034 96.369639,738.17968 79.138629,712.67805 67.038225,694.76964 62.445241,677.96316 62.445241,651.59427 c 0,-43.01805 9.951255,-66.28734 67.287779,-157.34079 33.60927,-53.37332 44.80907,-75.07652 47.41244,-91.87678 0.62344,-4.02323 1.77671,-24.80601 2.56282,-46.18395 l 1.42929,-38.86897 4.63019,-8.58095 c 7.08785,-13.13562 13.43564,-20.92609 40.07969,-49.18871 13.51389,-14.33483 27.63225,-29.85324 31.37413,-34.48535 l 6.80342,-8.42202 -0.76006,-11.46953 c -0.41802,-6.30824 -1.61279,-21.79211 -2.65502,-34.4086 -3.09988,-37.52501 -5.07588,-85.149197 -3.72796,-89.849081 1.7221,-6.004621 7.05472,-9.553549 14.35515,-9.553549 6.9292,0 14.35992,3.890011 71.57452,37.46955 19.27519,11.3127 39.72524,22.97508 45.44456,25.91639 9.76028,5.01948 10.60868,5.23548 13.81781,3.51801 1.88048,-1.0064 19.7036,-17.76182 39.60694,-37.23427 35.66853,-34.896346 36.26404,-35.404447 41.49542,-35.404447 4.57982,0 5.96897,0.716446 10.13145,5.225213 5.6151,6.08226 19.2963,32.663704 38.75628,75.300254 l 13.77778,30.18697 24.33116,-0.74035 c 55.14639,-1.67799 93.75901,5.27675 140.93808,25.38515 36.66695,15.62798 60.44165,31.67959 92.37122,62.3649 39.27676,37.74617 67.21711,79.05305 94.69187,139.99192 36.66554,81.32395 71.11151,212.62266 91.27333,347.9092 10.04764,67.42002 13.36497,107.79326 14.81277,180.2803 l 1.2209,61.12459 -4.7117,4.82523 -4.71171,4.8252 -27.4594,-0.3009 c -15.10267,-0.1655 -165.17705,-0.5956 -333.49863,-0.9558 z m 334.13133,-34.46053 c 5.53955,-3.42364 6.9537,-8.08097 6.9537,-22.90134 0,-23.65467 -8.27314,-115.77297 -14.76477,-164.40011 C 946.26303,665.7539 920.50698,547.83068 893.43404,468.01954 874.02557,410.80329 847.83935,357.82539 820.81157,321.09543 c -12.01264,-16.3248 -42.76091,-46.92058 -60.30969,-60.01059 -25.94671,-19.35419 -53.65399,-33.94416 -82.25356,-43.31268 -37.99409,-12.44595 -69.51964,-14.33614 -143.12489,-8.58146 -9.56884,0.74814 -9.70898,0.71496 -12.26539,-2.90274 -3.64135,-5.15309 -9.30603,-16.71832 -26.4484,-53.99804 -8.21872,-17.87335 -15.69974,-33.29027 -16.62449,-34.25982 -2.07039,-2.17068 -5.29299,0.68819 -44.10934,39.13069 l -27.56593,27.30043 -55.90679,23.83315 -55.90679,23.83316 -6.76443,8.82672 c -3.72042,4.85469 -14.32974,17.01762 -23.57626,27.02872 -41.41931,44.84426 -42.92448,46.61109 -45.44318,53.34293 -2.7758,7.41901 -3.48789,14.49658 -5.11074,50.79676 -0.62673,14.01832 -2.02932,29.6482 -3.1169,34.73305 -5.02057,23.47324 -19.6804,52.73086 -53.79467,107.36173 -38.22028,61.20628 -44.2479,71.80322 -52.00265,91.42403 -6.16196,15.59079 -8.359234,27.86403 -8.359234,46.69194 0,24.7423 3.732344,34.99168 18.274164,50.1827 16.29658,17.02409 31.82023,24.63759 51.81743,25.41361 l 12.10673,0.4698 7.64636,-10.43387 c 4.20549,-5.73863 11.99568,-14.93318 17.31151,-20.43234 8.36154,-8.64988 10.25233,-9.99783 14.01832,-9.9937 8.52843,0.009 16.45989,7.81105 16.45989,16.19064 0,2.37693 -4.75376,11.01728 -14.16116,25.73901 -14.68715,22.98411 -17.18682,28.15926 -14.76905,30.57703 2.40316,2.40316 13.64092,1.62904 19.82747,-1.36581 7.34042,-3.55344 18.37775,-14.60918 25.88813,-25.93133 3.24488,-4.89175 12.91725,-21.22386 21.49417,-36.29355 20.42297,-35.88331 28.71403,-47.92085 42.61837,-61.87642 18.29244,-18.35983 33.13947,-28.02802 94.33107,-61.4271 106.78404,-58.28397 131.73494,-77.82129 144.52455,-113.16712 3.76215,-10.39719 4.19517,-13.3184 5.8843,-39.69598 1.00282,-15.66008 2.42679,-29.60048 3.16436,-30.97865 1.86215,-3.47946 7.91326,-6.35533 13.37223,-6.35533 9.35233,0 14.13664,5.00467 17.10718,17.89508 1.91405,8.30585 1.65529,36.48448 -0.43438,47.30543 -4.96616,25.7162 -19.8334,53.49507 -40.43979,75.56021 l -8.73003,9.34802 v 34.47813 c 0,48.57107 -2.91316,68.26793 -15.42722,104.30843 -6.36497,18.33115 -19.76658,46.54795 -29.77528,62.69121 -9.83541,15.86374 -20.36299,28.27137 -53.03813,62.50984 -66.78936,69.98483 -73.31539,77.50535 -81.35224,93.74913 -9.19631,18.58727 -13.08657,34.51017 -14.81612,60.64276 l -0.89286,13.49024 45.08223,0.84472 c 24.79522,0.4646 138.84567,0.73509 253.44543,0.60112 121.26523,-0.14178 189.98473,-0.59753 164.39665,-1.09028 -24.1816,-0.46568 -137.53224,-0.92865 -251.8903,-1.02883 l -207.92375,-0.18215 0.5934,-7.96496 c 2.21039,-29.66917 7.28339,-49.4475 17.0704,-66.55296 7.78233,-13.60177 15.5267,-22.89485 45.5211,-54.62432 14.52995,-15.37046 33.80064,-35.7555 42.82377,-45.30007 38.17755,-40.38385 52.28534,-61.69901 69.57726,-105.12278 15.2716,-38.35033 19.15445,-61.80408 19.15445,-115.69974 v -31.79286 l 10.41253,-12.35725 c 17.58207,-20.86585 26.85127,-36.42631 35.6494,-59.84564 l 4.91378,-13.07976 v -24.1335 c 0,-28.73586 -1.04928,-34.79225 -7.2912,-42.08452 l -4.59188,-5.36458 -10.11321,0.45926 c -8.66361,0.39344 -10.44888,0.8738 -12.45507,3.35134 -3.16645,3.91041 -4.69102,12.5165 -6.36795,35.94667 -1.7441,24.36873 -4.11328,36.41442 -9.13225,46.43113 -15.48517,30.90495 -35.37004,45.69624 -138.02136,102.66675 -95.9556,53.25447 -100.73944,57.53454 -139.59687,124.89654 -21.99916,38.13704 -31.84053,52.06775 -41.45782,58.68462 -7.94295,5.46489 -19.66216,7.53137 -19.66216,3.46706 0,-0.71238 2.69221,-5.66895 5.98269,-11.01458 21.2479,-34.51889 22.05395,-36.0475 22.05395,-41.82374 0,-6.57333 -2.4256,-11.85221 -7.15556,-15.57279 -4.52605,-3.5602 -14.55595,-3.62787 -20.20536,-0.13635 -4.28086,2.64573 -14.1972,13.42544 -26.69226,29.01625 -7.06326,8.81323 -7.65028,9.23935 -12.72823,9.23935 -22.21507,0 -53.79016,-20.66889 -64.24576,-42.05496 -5.07416,-10.37877 -6.97579,-26.05145 -5.28444,-43.55289 2.78163,-28.78321 9.08331,-42.08277 56.50979,-119.26283 32.85898,-53.47344 39.73156,-65.63789 47.36027,-83.82745 8.97064,-21.38921 10.55109,-29.78558 12.70453,-67.49463 1.95594,-34.25018 3.05517,-42.6812 6.41077,-49.17023 1.94772,-3.76647 13.19568,-16.64458 41.20325,-47.17479 7.97274,-8.69084 18.00858,-20.27815 22.30187,-25.74958 7.44524,-9.48831 8.45385,-10.26247 21.82432,-16.75127 7.71007,-3.74177 33.22978,-14.95663 56.71047,-24.92191 l 42.69215,-18.11868 33.58676,-33.29742 33.58676,-33.29742 2.64333,5.08494 c 1.45384,2.79671 10.52792,21.56927 20.16463,41.7168 9.6367,20.14753 18.79268,38.41737 20.34661,40.59967 l 2.82533,3.9678 13.51488,-0.75576 c 34.11278,-1.90757 83.47118,-2.3637 94.84995,-0.8765 86.80172,11.3449 164.55608,67.38721 213.54821,153.9172 39.3095,69.42852 75.50867,188.26287 100.07422,328.52289 14.281,81.53906 27.50369,199.88123 27.50369,246.15603 v 18.47652 l -3.54479,3.54479 c -3.35294,3.35292 -4.40476,3.60079 -19.43449,4.57965 -18.01422,1.17323 -16.063,2.74886 3.71297,2.99825 9.95664,0.12553 12.65532,-0.28123 16.13579,-2.43228 z M 129.18939,674.84133 c 16.39904,-11.16267 29.42974,-22.06979 34.83813,-29.16066 3.62114,-4.74764 4.19231,-6.4987 4.19231,-12.85257 0,-6.12769 -0.62945,-8.22502 -3.76944,-12.55965 -11.58576,-15.99368 -29.80107,-15.392 -41.34248,1.36561 -7.57825,11.00329 -9.87205,20.19751 -10.63872,42.64312 -0.60579,17.73533 -0.47355,19.43449 1.51249,19.43449 1.19698,0 8.04045,-3.99165 15.20771,-8.87034 z m 133.6195,-272.57815 c 15.5189,-7.58722 25.74183,-14.74704 38.44456,-26.92542 11.77934,-11.29308 27.26116,-30.22055 31.47467,-38.47971 3.39892,-6.66246 3.23276,-13.28404 -0.38193,-15.21856 -4.84615,-2.59358 -18.93474,-2.92954 -26.8126,-0.63938 -8.47865,2.4648 -18.28314,10.8102 -26.83449,22.84102 -14.28954,20.10383 -36.56449,58.26636 -36.56449,62.64408 0,3.55145 8.19926,1.87702 20.67428,-4.22203 z m 65.7588,-221.41745 c 24.20509,-10.33646 34.63422,-15.46105 34.63422,-17.01827 0,-2.36032 -62.5876,-39.57417 -66.55727,-39.57417 -1.92546,0 -2.25596,1.17883 -2.23304,7.96495 0.0391,11.57679 3.52776,55.56357 4.53626,57.19537 1.4922,2.41442 8.96259,0.25353 29.61983,-8.56788 z"
     id="path382"
     transform="scale(0.75)" />
  <path
     style="display:inline;fill:#ffffff;stroke-width:0.901132"
     d="m 300.06398,188.56181 c -0.22379,-0.61953 -1.22576,-12.27792 -2.2266,-25.90754 -1.00084,-13.62962 -2.08357,-27.78825 -2.40606,-31.46362 -0.54555,-6.21767 -0.47217,-6.6387 1.05487,-6.05272 2.29823,0.88192 26.36101,14.94838 47.6317,27.84423 17.87854,10.83928 17.90416,10.85939 15.46266,12.13862 -8.73552,4.577 -56.41121,24.56744 -58.59149,24.56744 -0.28501,0 -0.7013,-0.50688 -0.92508,-1.12641 z"
     id="path480"
     transform="scale(0.75)" />
</svg>
