<?xml version="1.0" encoding="UTF-8" standalone="no"?>
<svg
   version="1.0"
   width="2400.000000pt"
   height="2400.000000pt"
   viewBox="0 0 2400.000000 2400.000000"
   preserveAspectRatio="xMidYMid meet"
   id="svg601"
   sodipodi:docname="wPawn.svg"
   inkscape:version="1.2.2 (732a01da63, 2022-12-09)"
   xmlns:inkscape="http://www.inkscape.org/namespaces/inkscape"
   xmlns:sodipodi="http://sodipodi.sourceforge.net/DTD/sodipodi-0.dtd"
   xmlns="http://www.w3.org/2000/svg"
   xmlns:svg="http://www.w3.org/2000/svg">
  <defs
     id="defs605" />
  <sodipodi:namedview
     id="namedview603"
     pagecolor="#505050"
     bordercolor="#eeeeee"
     borderopacity="1"
     inkscape:showpageshadow="0"
     inkscape:pageopacity="0"
     inkscape:pagecheckerboard="0"
     inkscape:deskcolor="#505050"
     inkscape:document-units="pt"
     showgrid="false"
     inkscape:zoom="0.2615625"
     inkscape:cx="1598.0884"
     inkscape:cy="1601.9116"
     inkscape:window-width="1920"
     inkscape:window-height="1017"
     inkscape:window-x="1912"
     inkscape:window-y="-8"
     inkscape:window-maximized="1"
     inkscape:current-layer="svg601" />
  <metadata
     id="metadata595">
Created by potrace 1.16, written by Peter Selinger 2001-2019
</metadata>
  <g
     transform="translate(0.000000,2400.000000) scale(0.100000,-0.100000)"
     fill="#000000"
     stroke="none"
     id="g599">
    <path
       d="M11785 21899 c-567 -41 -1177 -272 -1640 -622 -118 -89 -321 -296 -413 -421 -242 -328 -410 -759 -468 -1196 -23 -175 -15 -515 16 -689 67 -382 188 -670 441 -1052 77 -116 141 -215 142 -220 1 -4 -125 -71 -279 -148 -155 -76 -335 -169 -400 -207 -157 -89 -383 -242 -519 -350 -141 -113 -416 -388 -529 -529 -318 -400 -558 -870 -726 -1427 -82 -271 -100 -440 -100 -928 0 -437 15 -595 80 -850 149 -590 498 -1231 916 -1681 113 -123 204 -206 380 -350 l141 -115 -276 -144 c-323 -168 -476 -253 -661 -368 -1291 -804 -2365 -2075 -2973 -3518 -224 -532 -444 -1254 -521 -1715 -55 -325 -74 -576 -83 -1079 -11 -685 25 -1275 98 -1617 65 -303 187 -502 328 -534 80 -18 1337 -29 4401 -39 3240 -11 8580 0 9603 20 l508 10 51 27 c214 116 320 459 369 1193 17 251 18 1221 1 1440 -45 582 -128 976 -349 1645 -90 273 -139 407 -226 615 -655 1569 -1834 2913 -3253 3709 -94 53 -283 154 -421 226 l-250 129 141 115 c174 141 265 225 380 350 418 451 767 1091 916 1681 70 276 84 452 77 959 -7 489 -20 585 -128 920 -323 999 -896 1725 -1742 2205 -65 37 -245 130 -400 207 -155 77 -281 144 -280 149 1 5 64 102 140 217 76 115 164 258 195 319 145 281 236 583 269 893 17 163 7 483 -20 636 -72 408 -231 789 -453 1091 -92 125 -295 332 -413 421 -473 357 -1071 581 -1665 623 -163 11 -233 11 -405 -1z m713 -890 c129 -14 243 -53 437 -149 450 -222 703 -478 866 -875 68 -163 74 -215 74 -605 0 -388 -6 -442 -72 -600 -146 -357 -398 -634 -755 -834 -68 -38 -160 -89 -205 -115 -286 -160 -372 -336 -268 -548 58 -118 168 -199 320 -237 33 -8 137 -25 230 -36 526 -65 733 -119 1062 -280 404 -198 797 -516 1098 -890 269 -334 456 -786 541 -1310 25 -152 30 -553 10 -730 -53 -456 -205 -878 -450 -1250 -117 -178 -223 -304 -387 -465 -230 -225 -407 -348 -764 -532 -250 -129 -365 -202 -425 -270 -65 -74 -75 -104 -75 -223 0 -141 19 -196 94 -270 71 -71 175 -122 461 -228 401 -149 657 -263 957 -427 868 -475 1620 -1127 2233 -1937 454 -600 802 -1262 1044 -1989 170 -514 246 -891 286 -1434 17 -229 24 -1010 11 -1327 -11 -288 -17 -342 -46 -443 l-16 -55 -6759 0 -6759 0 -16 55 c-29 101 -35 155 -46 443 -13 319 -6 1113 11 1332 52 664 170 1169 427 1815 599 1512 1750 2799 3190 3568 280 150 521 256 891 393 290 107 401 162 472 233 76 75 95 130 95 271 0 82 -4 113 -19 142 -52 106 -179 198 -488 356 -222 113 -314 170 -475 289 -573 427 -982 1075 -1093 1733 -33 199 -43 358 -37 594 9 330 52 580 152 881 157 473 379 811 754 1150 262 237 486 394 746 520 338 166 516 213 1040 280 110 14 227 33 260 41 154 38 261 119 322 241 34 69 38 84 38 157 0 64 -5 91 -24 128 -53 109 -154 191 -395 322 -252 137 -375 226 -517 373 -136 141 -249 313 -328 503 -70 168 -76 218 -76 610 0 390 6 442 74 605 163 398 423 659 876 880 175 86 300 130 405 143 106 13 900 14 1018 1z"
       id="path597" />
  </g>
  <path
     style="fill:#ffffff;stroke-width:3.82318"
     d="m 697.44605,2797.6105 c -5.22164,-11.5927 -6.55433,-205.0803 -1.74183,-252.8898 9.5912,-95.2834 35.61347,-185.5979 80.03099,-277.7606 74.96154,-155.5391 182.67042,-279.5533 325.34009,-374.591 57.9428,-38.598 106.2983,-63.7233 173.1913,-89.9898 87.829,-34.4872 94.4311,-39.8312 94.4311,-76.4359 0,-19.5776 -1.3464,-23.4758 -11.6758,-33.8053 -6.4218,-6.4217 -26.6368,-19.6511 -44.9224,-29.3985 -78.1118,-41.6389 -126.2412,-83.5061 -165.1766,-143.685 -44.5163,-68.805 -59.4697,-125.4394 -56.2977,-213.2215 2.4059,-66.5794 11.7921,-103.8741 40.9487,-162.7029 34.5827,-69.7766 98.5933,-131.3594 177.8646,-171.11823 36.4328,-18.27304 69.039,-27.7929 120.7485,-35.25433 62.4043,-9.00462 69.6029,-11.43536 85.2911,-28.80031 11.939,-13.21504 13.7931,-17.81826 13.7931,-34.24474 0,-16.35421 -1.7359,-20.7134 -12.5587,-31.53613 -6.9073,-6.9073 -28.8428,-21.90245 -48.7455,-33.32259 -47.687,-27.36256 -77.932,-57.94082 -99.058,-100.14922 l -15.9847,-31.9364 1.1961,-63.33963 1.1962,-63.33963 14.3438,-28.99659 c 17.7252,-35.83236 47.3072,-66.34899 86.7916,-89.5337 47.1523,-27.68717 66.641,-32.0366 143.548,-32.0366 77.1554,0 96.3473,4.3219 144.3514,32.50691 39.4031,23.13501 68.0578,52.81608 85.9932,89.07343 l 14.3388,28.98655 1.1962,63.33963 1.1961,63.33963 -15.9192,31.80552 c -19.6129,39.18544 -47.7461,68.70746 -89.6989,94.127 -50.0047,30.29819 -59.5157,37.36231 -65.2601,48.47079 -7.4161,14.34123 -6.8838,36.0448 1.2219,49.81685 11.3102,19.21686 26.6183,25.55932 81.7112,33.85466 61.7347,9.29541 94.8882,18.79336 133.1539,38.14656 84.8859,42.93167 156.5311,116.10417 187.8162,191.81977 23.5198,56.9222 28.384,83.0386 28.3614,152.2754 -0.019,53.9956 -1.2954,67.7636 -8.8714,95.5795 -17.7912,65.3218 -51.378,123.6984 -97.984,170.3044 -30.6883,30.6883 -56.9534,49.2646 -109.7926,77.6521 -20.3386,10.9268 -42.2741,24.813 -48.7455,30.8583 -10.6921,9.9879 -11.7663,13.155 -11.7663,34.6904 0,21.6488 1.0749,24.7703 12.4253,36.0807 8.6333,8.603 27.5933,18.2924 62.1266,31.7497 89.5886,34.9116 129.3556,55.228 198.8053,101.5667 177.8005,118.6333 314.8106,306.9486 374.6536,514.9471 23.1694,80.5311 26.702,113.6096 26.7432,250.4182 0.019,67.2879 -1.2862,127.0729 -2.9033,132.8554 l -2.9402,10.5138 h -899.8766 c -853.32846,0 -900.03243,-0.3461 -902.89015,-6.6906 z"
     id="path607"
     transform="scale(0.75)" />
</svg>
