<?xml version="1.0" encoding="UTF-8" standalone="no"?>
<svg
   version="1.0"
   width="1024.000000pt"
   height="1024.000000pt"
   viewBox="0 0 1024.000000 1024.000000"
   preserveAspectRatio="xMidYMid meet"
   id="svg28"
   sodipodi:docname="wQueen.svg"
   inkscape:version="1.2.2 (732a01da63, 2022-12-09)"
   xmlns:inkscape="http://www.inkscape.org/namespaces/inkscape"
   xmlns:sodipodi="http://sodipodi.sourceforge.net/DTD/sodipodi-0.dtd"
   xmlns="http://www.w3.org/2000/svg"
   xmlns:svg="http://www.w3.org/2000/svg">
  <defs
     id="defs32" />
  <sodipodi:namedview
     id="namedview30"
     pagecolor="#505050"
     bordercolor="#eeeeee"
     borderopacity="1"
     inkscape:showpageshadow="0"
     inkscape:pageopacity="0"
     inkscape:pagecheckerboard="0"
     inkscape:deskcolor="#505050"
     inkscape:document-units="pt"
     showgrid="false"
     inkscape:zoom="0.61303711"
     inkscape:cx="681.85106"
     inkscape:cy="683.48228"
     inkscape:window-width="1920"
     inkscape:window-height="1017"
     inkscape:window-x="1912"
     inkscape:window-y="-8"
     inkscape:window-maximized="1"
     inkscape:current-layer="svg28" />
  <metadata
     id="metadata22">
Created by potrace 1.16, written by Peter Selinger 2001-2019
</metadata>
  <g
     transform="translate(0.000000,1024.000000) scale(0.100000,-0.100000)"
     fill="#000000"
     stroke="none"
     id="g26">
    <path
       d="m 3065,9404 c -11,-2 -45,-9 -75,-15 -141,-28 -280,-107 -382,-218 -79,-86 -122,-157 -162,-268 -30,-84 -31,-95 -31,-238 1,-136 3,-158 28,-230 39,-117 91,-199 187,-296 69,-69 103,-94 176,-131 50,-25 114,-51 142,-59 l 52,-13 v -64 c 0,-36 16,-664 35,-1396 20,-732 35,-1346 33,-1364 -3,-31 -71,64 -755,1041 -414,592 -753,1077 -753,1080 0,2 22,18 49,36 85,55 184,170 234,274 59,121 77,197 77,334 0,177 -47,317 -154,459 -87,117 -245,221 -391,260 -148,38 -336,26 -477,-31 -138,-56 -291,-191 -363,-320 -86,-153 -117,-354 -80,-521 65,-298 296,-523 591,-578 l 68,-12 431,-1465 c 353,-1202 429,-1471 424,-1499 -11,-54 8,-258 32,-335 29,-96 69,-162 157,-264 110,-126 143,-173 217,-309 55,-101 66,-128 61,-153 -3,-17 -35,-89 -71,-160 -77,-153 -127,-272 -160,-387 -17,-59 -33,-91 -55,-113 -147,-148 -180,-370 -86,-584 l 26,-57 -34,-57 c -53,-86 -69,-157 -64,-270 8,-143 55,-247 180,-392 131,-153 302,-223 643,-263 325,-38 484,-41 2080,-39 2386,2 2708,19 2984,154 136,67 267,213 334,374 24,56 31,89 35,166 5,113 -11,185 -64,270 l -34,57 25,57 c 91,206 67,414 -66,559 -42,46 -54,68 -74,138 -33,113 -79,226 -164,397 -39,79 -71,153 -71,164 0,26 119,245 171,314 21,28 66,82 100,120 135,150 183,262 199,463 4,63 5,131 1,150 -5,28 71,297 424,1499 l 431,1465 68,13 c 296,54 526,279 591,577 25,111 17,271 -19,381 -103,321 -412,532 -751,512 -268,-16 -491,-160 -615,-399 -58,-110 -80,-207 -80,-342 0,-139 18,-215 76,-333 51,-104 150,-220 235,-275 27,-17 48,-37 46,-42 -5,-13 -1490,-2156 -1492,-2153 -1,1 13,646 29,1433 l 30,1431 50,13 c 27,7 90,33 140,58 73,37 107,62 176,131 96,97 148,179 187,296 24,72 27,95 27,230 1,143 -1,154 -31,238 -44,123 -86,189 -183,287 -206,207 -489,270 -776,171 -220,-75 -404,-278 -464,-511 -25,-95 -27,-266 -4,-359 28,-115 94,-239 175,-325 83,-88 150,-137 266,-191 2,-1 -206,-588 -461,-1306 -255,-717 -465,-1310 -468,-1318 -2,-8 -120,565 -262,1275 -142,709 -259,1298 -262,1309 -3,17 12,28 98,69 90,43 113,59 193,140 72,72 99,108 133,176 65,130 85,227 80,374 -9,209 -69,347 -218,496 -97,97 -193,154 -326,192 -111,31 -277,31 -388,0 -462,-132 -679,-629 -464,-1062 34,-68 61,-103 133,-176 80,-81 103,-97 193,-140 86,-41 101,-52 98,-69 -3,-11 -120,-600 -262,-1309 -142,-710 -260,-1283 -262,-1275 -3,8 -213,601 -468,1318 -255,718 -463,1305 -461,1306 1,1 36,19 77,40 56,29 98,62 165,129 77,77 98,106 137,186 57,116 78,208 78,338 0,335 -217,621 -541,712 -70,20 -241,34 -284,24 z m 184,-309 c 402,-95 466,-643 97,-825 -224,-110 -481,-20 -594,209 -36,73 -37,78 -37,186 0,108 1,113 37,186 62,125 161,208 288,241 81,21 128,22 209,3 z m 1970,0 c 135,-32 239,-117 300,-244 35,-73 36,-80 36,-186 0,-106 -1,-113 -36,-185 -164,-341 -635,-342 -798,-1 -35,73 -36,80 -36,186 0,106 1,113 36,185 59,125 159,208 289,242 81,21 128,22 209,3 z m 1970,0 c 35,-9 86,-27 113,-42 69,-37 153,-130 191,-210 30,-64 32,-75 32,-179 0,-107 -1,-112 -37,-185 -22,-45 -58,-96 -87,-125 -278,-279 -751,-82 -751,311 0,205 131,375 330,427 81,21 128,22 209,3 z M 1287,8306 c 130,-35 236,-122 293,-241 59,-123 53,-294 -16,-410 -88,-151 -278,-242 -447,-215 -130,20 -270,119 -327,229 -101,199 -42,444 137,568 108,74 243,100 360,69 z m 7878,-1 c 344,-90 451,-521 186,-757 -173,-154 -438,-148 -601,14 -98,99 -135,196 -128,343 3,80 8,101 38,161 93,191 304,291 505,239 z M 5397,6078 c 150,-749 272,-1363 270,-1364 -1,-1 -125,2 -274,7 -150,4 -396,4 -545,0 -150,-5 -274,-8 -275,-7 -5,4 542,2726 547,2726 3,0 128,-613 277,-1362 z m 1488,-99 c -14,-712 -28,-1318 -31,-1348 l -6,-53 -36,6 c -192,32 -767,106 -820,106 -5,0 198,583 451,1295 254,712 462,1293 464,1291 2,-2 -8,-586 -22,-1297 z m -3077,-26 c 247,-695 445,-1263 440,-1263 -37,0 -490,-56 -643,-79 -104,-16 -192,-27 -195,-24 -6,5 -69,2318 -69,2528 0,94 3,133 10,120 5,-11 211,-588 457,-1282 z M 2340,5555 c 396,-566 716,-1032 712,-1036 -9,-7 -782,-163 -786,-158 -3,3 -177,593 -653,2214 -3,11 -3,17 1,14 3,-3 330,-468 726,-1034 z m 6281,998 c -127,-437 -644,-2189 -647,-2192 -2,-2 -178,32 -393,75 l -389,79 716,1033 c 394,567 717,1032 718,1032 2,0 -1,-12 -5,-27 z M 5610,4320 c 644,-35 1142,-111 2223,-337 49,-10 28,-59 -77,-178 -92,-104 -147,-182 -231,-327 -74,-130 -67,-126 -166,-108 -253,45 -856,111 -1342,146 -294,21 -1165,30 -1483,15 -530,-25 -1081,-78 -1582,-151 -73,-11 -142,-20 -152,-20 -14,0 -37,32 -85,118 -80,139 -136,221 -227,323 -36,42 -76,91 -87,110 -20,32 -28,69 -16,69 3,0 149,29 323,64 918,187 1318,243 1982,279 145,8 756,6 920,-3 z m 330,-1194 c 439,-29 829,-69 1235,-127 236,-34 265,-41 265,-63 0,-7 34,-82 75,-165 41,-84 75,-156 75,-161 0,-5 -6,-7 -12,-5 -14,5 -417,48 -603,65 -402,36 -932,66 -1451,81 -750,22 -1801,-28 -2669,-125 -110,-13 -202,-21 -204,-19 -3,2 150,329 165,351 3,5 310,50 524,76 388,48 844,87 1230,106 267,12 1091,4 1370,-14 z m 60,-785 c 729,-40 1219,-83 1680,-147 127,-18 150,-31 150,-88 0,-41 -40,-125 -95,-198 -51,-68 -65,-126 -45,-191 12,-40 46,-79 129,-148 54,-46 37,-116 -54,-217 -40,-45 -57,-55 -123,-76 -93,-29 -267,-52 -502,-66 -428,-26 -3209,-40 -3770,-20 -433,16 -666,43 -796,91 -85,32 -184,155 -184,230 0,23 8,38 31,58 83,69 117,108 129,148 20,65 6,123 -44,190 -85,113 -114,199 -83,246 14,22 30,26 174,45 463,63 1215,124 1863,152 259,11 1282,5 1540,-9 z"
       id="path24"
       style="display:inline" />
  </g>
  <path
     style="fill:#ffffff;stroke-width:1.63122"
     d="m 498.33851,1206.2233 c -90.15177,-1.2637 -124.65487,-3.7349 -148.97451,-10.6701 -13.67156,-3.8987 -29.64437,-20.867 -29.64437,-31.4919 0,-1.7647 4.33161,-7.4829 9.62581,-12.707 15.27008,-15.0681 16.19587,-25.133 3.95694,-43.019 -10.35553,-15.1336 -13.30407,-26.4058 -8.04816,-30.7678 5.63316,-4.6751 110.04751,-15.2907 220.38975,-22.4066 56.82005,-3.6643 215.44,-3.5782 277.30784,0.1505 95.45382,5.753 196.16059,15.5769 212.57989,20.7371 10.261,3.2249 9.343,12.6563 -3.089,31.7377 -12.7566,19.5797 -12.2461,27.3232 2.8303,42.9275 5.6874,5.8865 10.3407,12.0198 10.3407,13.6294 0,9.1077 -14.2983,25.5523 -25.7183,29.5789 -21.63526,7.6284 -67.43392,10.444 -187.35797,11.5181 -193.62074,1.7342 -255.93785,1.8802 -334.19892,0.7832 z"
     id="path538"
     transform="scale(0.75)" />
  <path
     style="fill:#ffffff;stroke-width:1.63122"
     d="m 355.60653,1016.1284 c 0,-0.6848 4.48723,-10.9695 9.97162,-22.85487 l 9.97162,-21.60974 10.01086,-1.71847 c 33.49064,-5.74902 100.84791,-13.39509 169.87067,-19.28289 42.9504,-3.66377 205.39847,-4.14338 247.94584,-0.73204 63.07993,5.0576 137.67734,13.41007 171.20003,19.16882 15.52536,2.66705 17.20618,3.22131 17.20618,5.67372 0,0.85585 4.39042,10.80347 9.75655,22.10582 l 9.7564,20.54975 -6.9018,-0.9776 c -46.29257,-6.5571 -145.70585,-13.9892 -233.64181,-17.46712 -116.45387,-4.60579 -296.56524,3.08212 -407.39785,17.38942 -4.26157,0.5501 -7.74831,0.44 -7.74831,-0.2448 z"
     id="path540"
     transform="scale(0.75)" />
  <path
     style="fill:#ffffff;stroke-width:1.63122"
     d="m 368.24503,910.0258 c -2.19988,-3.48066 -7.57235,-12.20087 -11.93881,-19.37825 -4.36646,-7.17738 -13.91851,-20.43672 -21.22678,-29.4652 -14.72867,-18.1955 -17.95746,-23.29637 -15.91873,-25.14855 1.45851,-1.32505 104.26927,-21.64731 144.10651,-28.48506 155.23084,-26.64413 303.21414,-25.10172 466.52967,4.86261 40.67969,7.46371 113.82031,22.35632 115.79741,23.57822 2.8865,1.78401 -0.9149,8.09656 -15.1436,25.14677 -6.6698,7.99249 -16.011,20.83837 -20.7581,28.5464 -16.34507,26.54018 -16.12144,26.24876 -20.14133,26.24876 -2.09935,0 -13.28321,-1.43117 -24.853,-3.18038 -50.49125,-7.63365 -135.94095,-15.72956 -192.31436,-18.22077 -53.76213,-2.37582 -182.16582,-0.95828 -224.29311,2.47613 -47.62449,3.88256 -95.08963,8.82597 -128.86659,13.4212 -50.89946,6.92468 -46.32577,6.96074 -50.97918,-0.40188 z"
     id="path542"
     transform="scale(0.75)" />
  <path
     style="fill:#ffffff;stroke-width:1.63122"
     d="m 612.22854,727.52529 c 5.47289,-29.3555 69.99318,-349.18044 70.55587,-349.74313 0.38383,-0.38382 0.69787,-0.28747 0.69787,0.21413 0,0.72581 68.77409,346.14542 70.72902,355.23828 0.46137,2.14595 -8.32925,2.44683 -71.48865,2.44683 h -72.0147 z"
     id="path544"
     transform="scale(0.75)" />
  <path
     style="fill:#ffffff;stroke-width:1.63122"
     d="m 454.42821,724.67065 c -2.28157,-59.47152 -5.85499,-197.24614 -6.67418,-257.32537 -0.74634,-54.73681 -0.56454,-62.06887 1.41562,-57.09279 3.22644,8.10794 52.21663,145.8938 82.06804,230.818 13.87593,39.47559 27.01465,76.77238 29.19715,82.88177 2.1825,6.10938 3.96819,12.04932 3.96819,13.19987 0,1.48138 -7.02222,2.90428 -24.06054,4.87538 -13.23329,1.53092 -36.90105,4.58308 -52.59502,6.78261 -15.69397,2.19951 -29.36817,3.99912 -30.38712,3.99912 -1.26938,0 -2.19249,-8.85875 -2.93214,-28.13859 z"
     id="path546"
     transform="scale(0.75)" />
  <path
     style="fill:#ffffff;stroke-width:1.63122"
     d="m 300.54325,776.05416 c -0.89637,-3.36439 -19.7072,-67.40049 -41.80184,-142.30243 -22.09464,-74.90195 -39.94729,-136.85968 -39.67257,-137.68386 0.75601,-2.26802 182.07854,256.76972 184.92223,264.18028 0.5294,1.37958 -3.03126,2.90195 -11.05639,4.72724 -22.16422,5.04114 -83.80552,17.17803 -87.28983,17.18695 -2.63761,0.007 -3.86343,-1.46091 -5.1016,-6.10818 z"
     id="path548"
     transform="scale(0.75)" />
  <path
     style="display:inline;fill:#ffffff;stroke-width:1.63122"
     d="m 140.92334,370.51507 c -9.2258,-3.02024 -23.92763,-13.05497 -29.14124,-19.89037 -22.601584,-29.6322 -11.75061,-72.45721 22.33372,-88.1434 8.59072,-3.9536 12.3571,-4.71603 23.29716,-4.71603 17.61415,0 29.92487,5.52237 42.43619,19.03608 33.16397,35.82105 9.18966,93.33138 -39.76315,95.38509 -7.46073,0.313 -15.14963,-0.35763 -19.16268,-1.67137 z"
     id="path550"
     transform="scale(0.75)"
     inkscape:label="path550" />
  <path
     style="fill:#ffffff;stroke-width:1.63122"
     d="m 406.05918,266.20671 c -16.45358,-4.6594 -29.93544,-16.02259 -38.53055,-32.4755 -4.00272,-7.66207 -4.50254,-10.34858 -4.48726,-24.1191 0.0155,-13.98797 0.47505,-16.33282 4.72037,-24.08595 2.58675,-4.72414 7.18028,-11.48328 10.20785,-15.0203 6.50412,-7.59861 22.7677,-16.06558 34.06794,-17.73609 27.10585,-4.00705 54.3938,13.37371 62.57311,39.85526 4.2044,13.61226 4.20908,21.97797 0.0199,35.54102 -8.47949,27.4534 -41.42239,45.72882 -68.57134,38.04066 z"
     id="path552"
     transform="scale(0.75)" />
  <path
     style="fill:#ffffff;stroke-width:1.63122"
     d="m 670.01804,266.66498 c -16.60798,-4.18496 -31.40198,-16.31654 -39.73559,-32.58453 -4.0246,-7.85639 -4.59976,-10.79683 -4.62661,-23.65273 -0.0261,-12.48388 0.60642,-16.02369 4.22628,-23.65273 6.18406,-13.03325 14.69579,-21.95024 26.49947,-27.76117 18.50031,-9.10767 36.05148,-8.9782 53.63868,0.39568 11.24718,5.99468 19.50034,14.87293 25.4388,27.36549 3.63789,7.65291 4.25702,11.12979 4.21188,23.65273 -0.0486,13.48016 -0.4995,15.5152 -5.51277,24.87956 -10.14176,18.94398 -27.75216,30.83991 -47.66155,32.19567 -5.69517,0.38782 -13.11054,0.0108 -16.47859,-0.83797 z"
     id="path554"
     transform="scale(0.75)" />
  <path
     style="fill:#ffffff;stroke-width:1.63122"
     d="m 893.09438,751.06913 c -9.86889,-1.52167 -34.64309,-4.85827 -55.05376,-7.4147 -23.22373,-2.90877 -37.11031,-5.3232 -37.11031,-6.4523 0,-1.79626 22.58959,-66.72047 56.71796,-163.01177 41.62237,-117.43517 61.54582,-172.09356 62.11125,-170.39726 1.36429,4.09288 -6.16374,345.80542 -7.67328,348.30599 -0.72772,1.20547 -6.53697,0.89042 -18.99186,-1.02996 z"
     id="path556"
     transform="scale(0.75)" />
  <path
     style="fill:#ffffff;stroke-width:1.63122"
     d="m 932.64488,266.66498 c -11.08977,-2.79445 -21.78006,-9.4025 -30.31015,-18.73578 -24.93617,-27.28414 -17.19429,-71.17118 15.60588,-88.46641 10.85207,-5.7222 17.00436,-7.27994 28.40332,-7.19164 16.95274,0.13131 33.52996,8.67618 44.14837,22.75664 10.4176,13.81423 11.7112,17.60427 11.8039,34.58432 0.08,14.59741 -0.2362,16.08839 -5.44322,25.69517 -10.30012,19.00324 -27.85089,30.84201 -47.72951,32.19567 -5.69517,0.38782 -13.11053,0.0108 -16.47859,-0.83797 z"
     id="path558"
     transform="scale(0.75)" />
  <path
     style="fill:#ffffff;stroke-width:1.63122"
     d="m 1010.5424,773.09026 c -24.22364,-4.84621 -45.27246,-9.37334 -46.77513,-10.06029 -2.2567,-1.03166 9.09752,-18.28416 65.24893,-99.14432 111.5482,-160.63375 117.7333,-169.44121 117.7333,-167.65014 0,1.46046 -37.2925,128.74887 -73.6168,251.27226 -9.9231,33.4711 -10.4189,34.65884 -14.412,34.52862 -2.2744,-0.0742 -23.9546,-4.09993 -48.1783,-8.94613 z"
     id="path560"
     transform="scale(0.75)" />
  <path
     style="fill:#ffffff;stroke-width:1.63122"
     d="m 1191.2591,370.4644 c -23.5754,-7.69893 -39.1374,-27.36546 -40.8754,-51.65638 -1.8943,-26.47539 14.8843,-50.72288 40.774,-58.92428 26.9203,-8.52788 56.9523,5.31742 69.249,31.92504 3.9151,8.47152 4.6051,12.0483 4.5977,23.8328 -0.01,11.88431 -0.6644,15.20307 -4.5974,23.22768 -5.8139,11.86216 -16.5057,22.5947 -28.2171,28.32456 -10.9814,5.37267 -29.8717,6.8821 -40.9308,3.27058 z"
     id="path562"
     transform="scale(0.75)" />
</svg>
