<?xml version="1.0" encoding="UTF-8" standalone="no"?>
<svg
   version="1.0"
   width="2400.000000pt"
   height="2400.000000pt"
   viewBox="0 0 2400.000000 2400.000000"
   preserveAspectRatio="xMidYMid meet"
   id="svg684"
   sodipodi:docname="wRook.svg"
   inkscape:version="1.2.2 (732a01da63, 2022-12-09)"
   xmlns:inkscape="http://www.inkscape.org/namespaces/inkscape"
   xmlns:sodipodi="http://sodipodi.sourceforge.net/DTD/sodipodi-0.dtd"
   xmlns="http://www.w3.org/2000/svg"
   xmlns:svg="http://www.w3.org/2000/svg">
  <defs
     id="defs688" />
  <sodipodi:namedview
     id="namedview686"
     pagecolor="#505050"
     bordercolor="#eeeeee"
     borderopacity="1"
     inkscape:showpageshadow="0"
     inkscape:pageopacity="0"
     inkscape:pagecheckerboard="0"
     inkscape:deskcolor="#505050"
     inkscape:document-units="pt"
     showgrid="false"
     inkscape:zoom="0.2615625"
     inkscape:cx="1598.0884"
     inkscape:cy="1601.9116"
     inkscape:window-width="1920"
     inkscape:window-height="1017"
     inkscape:window-x="1912"
     inkscape:window-y="-8"
     inkscape:window-maximized="1"
     inkscape:current-layer="svg684" />
  <metadata
     id="metadata678">
Created by potrace 1.16, written by Peter Selinger 2001-2019
</metadata>
  <g
     transform="translate(0.000000,2400.000000) scale(0.100000,-0.100000)"
     fill="#000000"
     stroke="none"
     id="g682">
    <path
       d="M5212 21410 c-156 -11 -210 -23 -284 -62 -123 -66 -161 -163 -190 -493 -10 -114 -13 -449 -13 -1410 0 -1230 10 -1711 35 -1805 7 -27 31 -54 97 -111 287 -246 618 -504 1696 -1323 l497 -378 0 -3376 0 -3377 -272 -285 c-1074 -1128 -1551 -1643 -1630 -1761 -84 -126 -89 -183 -95 -1086 l-5 -753 -372 0 c-204 0 -402 -5 -440 -10 -91 -14 -149 -44 -257 -136 -67 -58 -90 -84 -94 -108 -3 -17 -7 -447 -8 -956 -2 -842 0 -933 15 -1017 35 -180 87 -267 192 -317 137 -67 414 -69 8684 -64 l7143 5 75 74 c88 86 108 121 126 215 19 98 19 1832 0 1949 -34 217 -99 299 -261 334 -51 11 -263 22 -682 37 l-196 6 -6 667 c-6 604 -15 879 -33 999 -8 51 -31 87 -145 224 -198 238 -553 626 -1292 1416 l-527 562 0 3380 0 3379 473 358 c1295 980 1774 1359 1802 1427 34 82 38 173 42 1091 5 947 -10 2157 -27 2330 -15 142 -33 198 -83 252 -113 123 -157 126 -1772 127 -1302 1 -1340 0 -1444 -51 -108 -52 -173 -145 -205 -293 -28 -130 -36 -284 -36 -682 l0 -388 -799 0 -798 0 -6 73 c-4 39 -9 243 -12 452 -7 426 -17 577 -42 648 -52 145 -188 200 -555 229 -132 10 -515 13 -1623 13 -1526 0 -1621 -2 -1719 -45 -91 -39 -161 -124 -198 -243 -43 -138 -50 -232 -55 -689 l-5 -438 -798 0 -798 0 -6 113 c-3 61 -11 299 -16 527 -6 228 -15 439 -21 469 -37 193 -151 259 -496 292 -144 13 -2379 21 -2561 9z m2228 -1232 c0 -512 16 -675 78 -807 52 -113 160 -182 312 -201 141 -17 802 -23 1783 -15 l927 7 82 97 c45 53 92 119 104 146 36 78 44 213 44 711 l0 454 1240 0 1240 0 0 -398 c0 -516 14 -666 77 -800 56 -119 158 -182 328 -204 136 -18 2163 -17 2370 1 247 20 354 48 424 107 97 83 109 145 121 639 6 215 13 450 16 523 l6 132 924 0 924 0 0 -1165 0 -1165 -6430 0 -6430 0 0 1165 0 1165 930 0 930 0 0 -392z m8508 -2815 c903 -3 1642 -9 1642 -12 -1 -6 -1121 -861 -1143 -871 -6 -4 -2011 -5 -4453 -2 l-4441 4 -564 437 -564 436 1105 5 c1845 9 6674 10 8418 3z m152 -4888 l0 -3145 -4095 0 -4095 0 0 3138 c0 1726 3 3142 7 3145 3 4 1846 7 4095 7 l4088 0 0 -3145z m603 -4360 c531 -566 827 -894 827 -917 0 -5 -2496 -8 -5546 -8 -4346 0 -5544 3 -5538 12 4 7 275 295 602 640 l593 628 4367 -2 4367 -3 328 -350z m1397 -2355 l0 -570 -6095 0 -6095 0 0 570 0 570 6095 0 6095 0 0 -570z m1190 -1880 l0 -450 -7285 0 -7285 0 0 450 0 450 7285 0 7285 0 0 -450z"
       id="path680" />
  </g>
  <path
     style="fill:#ffffff;stroke-width:3.82318"
     d="m 1055.2145,1579.9283 c 0.01,-206.595 1.1327,-394.9821 2.4957,-418.638 l 2.4784,-43.0107 h 542.3071 542.3072 v 418.638 418.638 H 1600 1055.1971 l 0.017,-375.6273 z"
     id="path690"
     transform="scale(0.75)" />
  <path
     style="fill:#ffffff;stroke-width:3.82318"
     d="m 918.07807,2180.6059 c 30.2064,-31.8257 64.97065,-68.8204 77.25388,-82.2105 l 22.33315,-24.3457 583.4585,0.968 583.4585,0.968 62.5352,66.9056 c 34.3943,36.7981 67.7391,73.3572 74.0995,81.2425 l 11.5643,14.3369 H 1597.9692 863.15733 Z"
     id="path692"
     transform="scale(0.75)" />
  <path
     style="fill:#ffffff;stroke-width:3.82318"
     d="m 791.39785,2431.5412 v -74.552 h 810.51375 810.5137 v 74.552 74.552 H 1601.9116 791.39785 Z"
     id="path694"
     transform="scale(0.75)" />
  <path
     style="fill:#ffffff;stroke-width:3.82318"
     d="m 630.82437,2681.9594 v -57.3477 H 1600 2569.1756 v 57.3477 57.3476 H 1600 630.82437 Z"
     id="path696"
     transform="scale(0.75)" />
  <path
     style="fill:#ffffff;stroke-width:3.82318"
     d="M 745.51971,613.62007 V 460.69295 h 121.87461 121.87462 l 1.58738,69.773 c 1.80379,79.28541 5.87465,93.95984 29.93218,107.89836 12.8615,7.45171 20.6002,7.79763 199.282,8.90786 l 185.9008,1.15509 12.1847,-15.38437 c 6.7015,-8.4614 13.7988,-21.01284 15.7718,-27.89209 1.9729,-6.87925 3.5871,-42.1965 3.5871,-78.48279 v -65.97506 h 164.3967 164.3966 V 523.994 c 0,34.81557 1.8828,70.77828 4.184,79.91712 5.0642,20.11157 19.2347,34.32993 39.7826,39.91686 19.3597,5.26387 301.7522,5.48114 342.1744,0.26326 51.523,-6.65082 56.1889,-15.68904 59.6443,-115.53688 l 2.3485,-67.86141 h 121.9307 121.9308 V 613.62007 766.54719 H 1601.9116 745.51971 Z"
     id="path698"
     transform="scale(0.75)" />
  <path
     style="fill:#ffffff;stroke-width:3.82318"
     d="m 936.93824,945.24866 -70.46917,-54.44818 122.08207,-2.34865 c 158.57966,-3.05081 1138.50286,-3.05129 1257.27086,-6.2e-4 l 91.4612,2.34927 -71.8453,54.48028 -71.8453,54.48029 -593.0926,-0.0321 -593.0926,-0.0321 z"
     id="path700"
     transform="scale(0.75)" />
</svg>
