<?xml version="1.0" encoding="UTF-8" standalone="no"?>
<!-- Created with Inkscape (http://www.inkscape.org/) -->

<svg
   version="1.1"
   id="svg2187"
   width="500"
   height="513"
   viewBox="0 0 500 513"
   sodipodi:docname="emoji6.svg"
   inkscape:version="1.2.2 (732a01da63, 2022-12-09)"
   xmlns:inkscape="http://www.inkscape.org/namespaces/inkscape"
   xmlns:sodipodi="http://sodipodi.sourceforge.net/DTD/sodipodi-0.dtd"
   xmlns="http://www.w3.org/2000/svg"
   xmlns:svg="http://www.w3.org/2000/svg">
  <defs
     id="defs2191" />
  <sodipodi:namedview
     id="namedview2189"
     pagecolor="#505050"
     bordercolor="#eeeeee"
     borderopacity="1"
     inkscape:showpageshadow="0"
     inkscape:pageopacity="0"
     inkscape:pagecheckerboard="0"
     inkscape:deskcolor="#505050"
     showgrid="false"
     inkscape:zoom="1.6315789"
     inkscape:cx="205.93548"
     inkscape:cy="215.12903"
     inkscape:window-width="1920"
     inkscape:window-height="1017"
     inkscape:window-x="1912"
     inkscape:window-y="-8"
     inkscape:window-maximized="1"
     inkscape:current-layer="g2193" />
  <g
     inkscape:groupmode="layer"
     inkscape:label="Image"
     id="g2193">
    <g
       id="g2197">
      <path
         style="fill:#b2b0b0"
         d="M 228.32867,498.98132 C 172.5167,493.55006 121.68758,469.67825 82.504662,430.49534 40.665926,388.6566 16.00459,332.81233 13.615706,274.5 l -0.491605,-12 0.907798,9.36372 c 10.287837,106.11672 89.581951,192.5186 193.703381,211.06657 51.25428,9.13032 104.28445,1.31879 150.14186,-22.11645 71.94764,-36.76855 120.24414,-108.01189 128.09096,-188.95012 l 0.9078,-9.36372 -0.49161,12 C 483.99541,332.81233 459.33407,388.6566 417.49534,430.49534 381.347,466.64367 334.98219,489.90697 284,497.47592 c -12.80028,1.90036 -43.17293,2.72166 -55.67133,1.5054 z"
         id="path2203"
         sodipodi:nodetypes="ssscsssscssss" />
      <path
         style="fill:#c7332f"
         d="M 230,485.86378 C 130.00756,477.69362 45.276241,406.00077 20.549197,308.64329 3.9944567,243.46252 15.590294,175.27877 52.828175,118.84227 61.438039,105.79344 67.664697,98.179803 80.39004,85.141021 119.0806,45.497473 164.98283,22.557667 221,14.870684 c 12.23806,-1.679375 45.76194,-1.679375 58,0 38.49061,5.281892 70.86811,17.312002 102.15773,37.957491 30.93114,20.408956 59.32748,51.468795 77.26668,84.514095 19.66558,36.2254 30.10764,81.48134 28.18505,122.15418 C 484.52215,303.65413 471.71347,343.72266 448.24802,379.5 400.2939,452.61476 317.41458,493.00623 230,485.86378 Z m -35.30576,-75.27603 2.80576,-2.41224 0.2986,-32.82603 c 0.16424,-18.05432 0.0397,-33.85776 -0.27683,-35.11877 -0.3165,-1.26101 -2.02587,-3.17711 -3.79861,-4.25799 -2.98813,-1.82194 -5.14211,-1.96552 -29.5389,-1.96898 -26.73128,-0.004 -29.12287,0.28929 -31.90246,3.9096 -0.90158,1.17428 -1.22646,10.50022 -1.25,35.88211 L 131,408.09091 l 2.45455,2.45454 2.45454,2.45455 h 27.98969 27.98969 z m 148,0 2.80576,-2.41226 0.29724,-32.7666 c 0.32212,-35.51012 0.0934,-37.37986 -4.88843,-39.95605 -3.65858,-1.89192 -53.74018,-2.14529 -57.22455,-0.2895 -4.60624,2.4533 -4.61901,2.55933 -4.65246,38.63211 L 279,408.09091 l 2.45455,2.45454 2.45454,2.45455 h 27.98969 27.98969 z M 192.62909,310.46182 c 2.28516,-2.28516 2.50492,-3.18256 2.20455,-9.0021 -1.41345,-15.54717 2.86307,-13.89273 3.09441,-14.45972 0.87912,-2.15462 9.15971,-11.18786 21.54197,-23.5 34.01283,-33.82019 39.30109,-44.4403 39.4706,-79.26651 0.0952,-19.55201 -1.31846,-27.53203 -6.86148,-38.73349 -13.97962,-28.25031 -45.45386,-45.5 -83.02051,-45.5 -24.91282,0 -53.74377,10.91636 -70.80863,26.81052 -3.602411,3.35527 -4.25,4.55506 -4.25,7.87396 0,2.15353 0.513736,4.42926 1.141637,5.05716 0.855515,0.85551 0.713084,2.04474 -0.568308,4.74507 -1.164966,2.45499 -1.44914,4.36701 -0.891637,5.99924 0.730566,2.1389 21.717718,28.43595 28.469518,35.6725 3.63804,3.89923 8.19542,3.82187 13.79462,-0.23417 14.37448,-10.41282 29.82179,-14.1859 41.98954,-10.25616 5.40823,1.74666 13.52279,8.04934 14.55647,11.30617 1.60817,5.0669 -7.49354,15.723 -32.44369,37.98441 -9.40427,8.39083 -15.65198,16.34141 -20.68597,26.32412 -5.77918,11.46046 -6.7516,16.89369 -6.8101,38.05036 l -0.0521,18.83317 2.80576,2.41683 2.80577,2.41682 h 25.98969 25.98969 l 2.53818,-2.53818 z m 148.73455,-0.0982 c 2.32269,-2.3227 2.63636,-3.43179 2.63636,-9.32186 0,-12.64499 1.05764,-14.32333 22.39736,-35.54178 21.24852,-21.12776 27.77696,-29.11028 33.71893,-41.22912 6.09593,-12.43283 8.03214,-23.49881 7.53146,-43.04421 -0.42409,-16.55509 -1.65106,-23.14802 -6.1354,-32.96759 -9.18006,-20.102 -26.63626,-34.66996 -51.01235,-42.57202 -11.53196,-3.73834 -19.31495,-4.86253 -33.48274,-4.8363 -18.51633,0.0343 -30.83596,3.07803 -49.67985,12.27415 -5.58942,2.72773 -10.65316,5.55062 -11.25275,6.27308 -0.82462,0.99361 -0.25589,2.36787 2.33487,5.6418 l 3.42504,4.32821 -2.4194,1.2552 c -1.33067,0.69036 -2.87333,1.53574 -3.42812,1.87863 -0.5803,0.35864 0.91394,3.31779 3.51816,6.96727 4.9428,6.92672 11.64956,20.55028 13.44019,27.3013 0.62297,2.34873 1.69793,8.19873 2.3888,13 1.08795,7.56093 1.53216,8.76996 3.31805,9.03108 1.13407,0.16581 3.3615,-0.75593 4.94984,-2.04832 4.51699,-3.67533 16.75019,-10.70988 20.48977,-11.78237 1.86172,-0.53394 6.98791,-0.96091 11.39154,-0.94883 11.07501,0.0304 18.85733,3.66813 24.04549,11.23975 2.54316,3.71149 1.97062,6.79062 -2.36855,12.73829 -3.28717,4.5057 -15.43036,16.29046 -25.80721,25.04545 -13.49613,11.38675 -23.58878,26.69698 -27.38588,41.54351 -1.59873,6.25098 -1.95887,10.96173 -1.92462,25.17479 l 0.0421,17.48487 2.87569,2.87569 2.87569,2.87569 h 25.44056 25.44056 l 2.63637,-2.63636 z"
         id="path2201"
         sodipodi:nodetypes="sssssssssssccssscssccccccccssssccccccsccssssssssssssssssccccccsssssssssssscssssssssssssssccccccs" />
      <path
         style="fill:#a12925"
         d="M 133.45455,410.54545 C 131.35198,408.44289 131,407.15881 131,401.59091 v -6.5 l 2.45455,2.45454 2.45454,2.45455 h 27.96873 27.96873 l 3.2058,-2.6975 3.20579,-2.6975 -0.43504,6.83223 c -0.37783,5.93368 -0.79669,7.1433 -3.18484,9.1975 -2.7497,2.3652 -2.75067,2.36527 -30.73948,2.36527 h -27.98969 z m 148,0 C 279.35198,408.44289 279,407.15881 279,401.59091 v -6.5 l 2.45455,2.45454 2.45454,2.45455 h 28.12238 28.12238 l 3.03807,-3.03807 3.03808,-3.03808 -0.4045,7.15864 c -0.35743,6.32556 -0.72642,7.43554 -3.17076,9.53807 L 339.88847,413 H 311.89878 283.90909 Z M 135.34526,310.62056 c -2.45722,-2.11362 -2.81263,-3.20016 -3.18138,-9.72601 l -0.41512,-7.34658 2.71452,3.22602 2.71451,3.22601 h 26.27624 c 25.06878,0 26.39733,-0.0952 28.91111,-2.07258 L 195,295.85484 v 6.11803 c 0,5.16236 -0.38342,6.50146 -2.45455,8.57258 L 190.09091,313 h -25.98969 c -25.92947,0 -25.9961,-0.006 -28.75596,-2.37944 z m 149.57782,-0.54364 C 282.31958,307.47343 282,306.47454 282,300.94056 v -6.21329 l 2.63636,2.63637 2.63637,2.63636 h 25.90909 25.90909 l 2.45454,-2.45455 L 344,295.09091 v 6.31818 c 0,5.49321 -0.34423,6.66242 -2.63636,8.95455 L 338.72727,313 h -25.44056 -25.44056 z m 59.50606,-23.76917 c 0.24465,-3.95573 1.26067,-9.00291 2.25784,-11.21595 2.74655,-6.09554 15.29401,-20.01678 25.60949,-28.4134 18.5487,-15.09832 30.07848,-32.54165 34.15866,-51.6784 1.36947,-6.42309 1.38666,-6.44676 1.45223,-2 0.11731,7.95427 -3.52487,22.57001 -7.79416,31.27727 -5.94108,12.1169 -12.47397,20.10246 -33.72382,41.22273 -15.19237,15.09973 -19.45409,19.92375 -20.76081,23.5 l -1.64425,4.5 z m -148.41709,-1.74203 c -0.0213,-10.47575 3.41178,-14.98025 32.0599,-42.06572 15.4244,-14.58306 25.11662,-29.2392 28.9094,-43.71553 1.81087,-6.91174 1.91134,-7.06485 1.96359,-2.99231 0.0832,6.48239 -2.76229,18.84894 -5.9594,25.90001 -5.49995,12.12986 -12.73844,21.18707 -32.61353,40.80783 -10.58545,10.45 -20.39415,21.025 -21.7971,23.5 l -2.55082,4.5 -0.012,-5.93428 z M 123.75036,187.75 c -2.74711,-2.10423 -28.84274,-34.09696 -29.8287,-36.5694 -0.508711,-1.27567 -0.655042,-3.39471 -0.325181,-4.70898 1.426564,-5.68388 2.718572,-4.80912 14.470511,9.79736 14.87689,18.49048 15.48952,19.05243 20.09795,18.4351 2.01571,-0.27002 5.73741,-1.91685 8.27044,-3.65962 7.15592,-4.92341 16.90093,-9.11019 24.05801,-10.33615 11.40761,-1.95404 23.1693,2.04969 29.18298,9.93403 2.15334,2.82318 2.83055,4.95489 3.14552,9.90147 l 0.40139,6.30373 -4.86963,-4.6937 c -12.38968,-11.94207 -32.73828,-10.4781 -52.40782,3.77044 -4.52306,3.27649 -9.35676,4.00011 -12.19547,1.82572 z m 152.91631,0.58333 c -0.36667,-0.36666 -0.67258,-2.05416 -0.67981,-3.75 -0.051,-11.97997 -7.6068,-32.69125 -16.44432,-45.07592 l -4.49955,-6.30556 2.55929,-1.67691 c 1.40761,-0.9223 3.13131,-1.45741 3.83045,-1.18913 2.10267,0.80687 9.29122,16.63451 11.43445,25.17618 1.10237,4.3934 2.30241,10.80051 2.66675,14.23801 0.62864,5.93107 0.79776,6.24968 3.31426,6.24368 1.88412,-0.004 3.1355,-0.85649 4.32259,-2.94301 C 286.35417,167.45531 303.36547,161 314.9272,161 c 16.135,0 27.07997,9.12135 26.99839,22.5 l -0.0305,5 -1.69755,-2.49804 c -5.48339,-8.06911 -13.53695,-11.97857 -24.70415,-11.99219 -4.40363,-0.005 -9.52982,0.42708 -11.39154,0.96102 -3.71414,1.0652 -15.95844,8.09636 -20.42859,11.73089 -2.78191,2.26188 -5.69743,2.94083 -7.0066,1.63165 z"
         id="path2199"
         sodipodi:nodetypes="sscccccccssscssscccccccsscccscscccsscsscscsscccccccsscccssssssssscssssssssccsssssssssscsssscscsssscssscscssss" />
    </g>
    <path
       style="fill:#ffffff;stroke-width:0.433388"
       d="m 134.9006,296.98741 -2.2667,-2.71694 -3.1e-4,-4.76727 c -4.8e-4,-7.74929 0.78651,-19.6762 1.54426,-23.40295 1.00423,-4.93901 2.43822,-8.70141 5.8639,-15.38528 5.41238,-10.56013 10.44667,-16.61898 24.38887,-29.35242 16.14677,-14.74688 26.07107,-25.62009 27.76417,-30.41885 1.4854,-4.21007 1.13753,-13.67717 -0.65115,-17.72078 -1.3088,-2.95875 -6.47111,-7.78619 -10.38744,-9.7136 -4.51058,-2.21988 -7.66802,-2.99445 -13.26324,-3.2537 -9.22296,-0.42732 -18.74242,2.64547 -30.2522,9.76513 -5.20035,3.21681 -8.14999,4.39489 -11.03564,4.40764 l -2.32782,0.0103 -3.33238,-3.35876 c -1.83281,-1.84731 -6.63603,-7.44982 -10.67382,-12.45001 -8.32299,-10.30676 -12.963159,-15.39517 -14.038995,-15.39517 -0.571985,0 -0.69396,-0.29065 -0.545751,-1.30047 0.104978,-0.71526 -0.103643,-1.93416 -0.463603,-2.70867 -1.007449,-2.16769 -1.289331,-4.79708 -0.738111,-6.8851 0.376555,-1.42638 1.208733,-2.58653 3.388605,-4.72411 13.994405,-13.72286 38.732905,-24.45086 62.001175,-26.88718 6.13347,-0.64221 19.75152,-0.29399 26.04904,0.6661 30.40493,4.63537 54.55979,20.95475 66.09748,44.65646 5.29817,10.88396 6.69804,18.64395 6.70724,37.18074 0.004,7.64958 -0.12056,9.41698 -0.82333,11.70148 -3.00076,9.75466 -3.83113,12.04183 -5.88966,16.22265 -2.94984,5.99104 -7.86523,13.3311 -12.98401,19.38877 -2.22352,2.63136 -10.41362,11.00608 -18.20022,18.61048 -15.83946,15.46884 -20.25518,20.4347 -22.88101,25.73168 -1.69784,3.42498 -1.78668,3.80594 -1.97079,8.45106 -0.10604,2.67543 -0.38595,5.23353 -0.62202,5.68467 -0.23607,0.45115 -0.60114,2.18954 -0.81128,3.86308 -0.42279,3.36714 -0.97785,4.22994 -3.63843,5.65574 -1.70961,0.91617 -2.09281,0.93062 -27.73684,1.04562 l -26.00328,0.11661 z"
       id="path2207" />
    <path
       style="fill:#ffffff;stroke-width:0.433388"
       d="m 133.53385,397.4678 -2.30368,-2.33267 0.19961,-27.24607 c 0.14028,-19.14705 0.35088,-27.72362 0.7085,-28.8526 0.27989,-0.88359 1.04014,-1.98481 1.68946,-2.44717 2.74463,-1.95435 3.6483,-2.01373 30.64302,-2.01373 h 25.56989 l 2.16694,0.99836 c 2.78608,1.28361 4.4465,2.89188 4.98429,4.82774 0.26044,0.9375 0.42917,11.92318 0.43064,28.03734 l 0.002,26.49584 -2.97361,2.43281 -2.97362,2.43281 h -27.92008 -27.92009 z"
       id="path2209" />
    <path
       style="fill:#ffffff;stroke-width:0.433388"
       d="m 281.5803,397.29591 -2.47841,-2.50455 0.0168,-19.05651 c 0.0177,-20.16974 0.50175,-34.03403 1.28157,-36.70881 0.75704,-2.59664 2.68065,-3.74348 7.21184,-4.29964 5.12011,-0.62845 39.50399,-0.59458 46.70272,0.046 7.11662,0.63328 8.95056,1.57274 10.19112,5.22051 0.95226,2.80005 1.34388,15.61909 1.07243,35.10443 l -0.26867,19.28576 -2.64585,2.70868 -2.64585,2.70868 h -27.97962 -27.97961 z"
       id="path2211" />
    <path
       style="fill:#ffffff;stroke-width:0.433388"
       d="m 284.61402,297.18327 -2.47841,-2.50454 0.006,-6.27157 c 0.009,-8.92299 0.71811,-18.16106 1.7163,-22.36396 2.93999,-12.37893 10.44758,-25.55486 20.55089,-36.06713 1.45541,-1.51431 5.66908,-5.41013 9.36371,-8.65736 8.13906,-7.15345 18.2047,-16.90664 21.947,-21.26573 3.45281,-4.02188 5.35409,-7.71115 5.36308,-10.40659 0.005,-1.44418 0.12178,-1.81122 0.42676,-1.33929 0.65702,1.01668 0.52289,-8.07805 -0.15661,-10.61801 -1.5064,-5.63091 -5.50033,-10.4962 -10.94357,-13.33113 -10.15973,-5.29136 -25.29376,-4.30952 -39.45821,2.55991 -3.82021,1.85271 -5.87864,3.49483 -9.07958,7.24326 -1.07642,1.26054 -1.65386,1.57772 -2.8723,1.57772 -0.83877,0 -1.74905,-0.26993 -2.02285,-0.59984 -0.2738,-0.32991 -0.98001,-3.69409 -1.56934,-7.47595 -0.58934,-3.78185 -1.55985,-8.83585 -2.15668,-11.23109 -2.47537,-9.93416 -9.82391,-26.1254 -11.90614,-26.23308 -0.44551,-0.023 -0.48466,-0.10561 -0.11986,-0.25281 0.90183,-0.3639 0.65577,-0.87159 -2.29979,-4.74521 -3.96905,-5.20192 -3.96158,-5.22537 2.84153,-8.92617 11.57517,-6.29673 25.23996,-11.57341 34.47354,-13.31199 7.41892,-1.3969 11.84941,-1.75922 21.55894,-1.76305 14.25183,-0.006 21.33163,1.05556 33.05916,4.95521 26.25814,8.73137 43.67156,24.36244 52.44335,47.0755 2.7472,7.1134 4.08339,16.98881 4.08339,30.17929 0,5.89026 -0.14966,7.30176 -1.26845,11.96358 -4.72102,19.67167 -14.59666,34.58181 -33.83598,51.08523 -5.83994,5.00947 -15.39317,14.48071 -19.15612,18.9917 -3.55251,4.25872 -6.41962,8.79933 -7.24292,11.4705 -0.94945,3.08047 -1.72728,8.90125 -1.89887,14.20977 l -0.12264,3.79418 -2.35202,2.3816 -2.35201,2.3816 h -26.03165 -26.03166 z"
       id="path2213" />
  </g>
</svg>
