<?xml version="1.0" encoding="UTF-8" standalone="no"?>
<!-- Created with Inkscape (http://www.inkscape.org/) -->

<svg
   version="1.1"
   id="svg2227"
   width="500"
   height="513"
   viewBox="0 0 500 513"
   sodipodi:docname="emoji5.svg"
   inkscape:version="1.2.2 (732a01da63, 2022-12-09)"
   xmlns:inkscape="http://www.inkscape.org/namespaces/inkscape"
   xmlns:sodipodi="http://sodipodi.sourceforge.net/DTD/sodipodi-0.dtd"
   xmlns="http://www.w3.org/2000/svg"
   xmlns:svg="http://www.w3.org/2000/svg">
  <defs
     id="defs2231" />
  <sodipodi:namedview
     id="namedview2229"
     pagecolor="#505050"
     bordercolor="#eeeeee"
     borderopacity="1"
     inkscape:showpageshadow="0"
     inkscape:pageopacity="0"
     inkscape:pagecheckerboard="0"
     inkscape:deskcolor="#505050"
     showgrid="false"
     inkscape:zoom="1.1537005"
     inkscape:cx="-208.89303"
     inkscape:cy="236.62986"
     inkscape:window-width="1920"
     inkscape:window-height="1017"
     inkscape:window-x="1912"
     inkscape:window-y="-8"
     inkscape:window-maximized="1"
     inkscape:current-layer="g2233" />
  <g
     inkscape:groupmode="layer"
     inkscape:label="Image"
     id="g2233">
    <g
       id="g2237">
      <path
         style="display:inline;fill:#b2b1b1"
         d="M 228.32867,498.98132 C 172.5167,493.55006 121.68758,469.67825 82.504662,430.49534 40.665926,388.6566 16.00459,332.81233 13.615706,274.5 l -0.491605,-12 0.907798,9.36372 c 10.287837,106.11672 89.581951,192.5186 193.703381,211.06657 51.25428,9.13032 104.28445,1.31879 150.14186,-22.11645 71.94764,-36.76855 120.24414,-108.01189 128.09096,-188.95012 l 0.9078,-9.36372 -0.49161,12 C 483.99541,332.81233 459.33407,388.6566 417.49534,430.49534 381.347,466.64367 334.98219,489.90697 284,497.47592 c -12.80028,1.90036 -43.17293,2.72166 -55.67133,1.5054 z"
         id="path2243"
         sodipodi:nodetypes="ssscsssscssss" />
      <path
         style="fill:#e4902b"
         d="M 230,485.86378 C 130.00756,477.69362 45.276241,406.00077 20.549197,308.64329 3.9944567,243.46252 15.590294,175.27877 52.828175,118.84227 61.438039,105.79344 67.664697,98.179803 80.39004,85.141021 119.0806,45.497473 164.98283,22.557667 221,14.870684 c 12.23806,-1.679375 45.76194,-1.679375 58,0 38.49061,5.281892 70.86811,17.312002 102.15773,37.957491 30.93114,20.408956 59.32748,51.468795 77.26668,84.514095 19.66558,36.2254 30.10764,81.48134 28.18505,122.15418 C 484.52215,303.65413 471.71347,343.72266 448.24802,379.5 400.2939,452.61476 317.41458,493.00623 230,485.86378 Z m 38.69424,-75.27611 2.80576,-2.41232 0.29006,-32.78385 c 0.31417,-35.50872 0.0867,-37.36961 -4.88125,-39.93866 -3.65858,-1.89192 -53.74018,-2.14529 -57.22455,-0.2895 -4.60475,2.45251 -4.61901,2.57031 -4.65246,38.4503 L 205,407.72727 l 2.63636,2.63637 2.63637,2.63636 h 27.80787 27.80787 z m -2.56381,-100.56425 c 2.77295,-2.77295 2.96299,-3.44186 2.77799,-9.7778 -0.33856,-11.5946 1.15484,-13.82343 24.95588,-37.24562 21.8861,-21.53772 27.83818,-29.04036 33.18738,-41.83293 4.37269,-10.45724 5.80122,-19.72666 5.88969,-38.21691 0.0894,-18.68611 -1.4586,-27.16151 -7.02689,-38.47231 -10.77388,-21.88487 -37.51771,-39.3954 -66.27808,-43.3956 -9.87638,-1.373674 -28.20128,-1.380676 -36.6364,-0.014 -15.50327,2.51188 -37.2044,12.25101 -48.65927,21.83753 -8.42037,7.04696 -9.70661,10.14809 -6.41685,15.47105 1.83689,2.97214 1.90564,3.51976 0.58001,4.61993 -0.83573,0.69359 -1.50389,2.86932 -1.50389,4.89708 0,3.22987 1.72868,5.74184 15.05138,21.8714 9.17862,11.11239 15.95137,18.44832 17.35798,18.80136 2.7054,0.67901 7.22679,-1.28794 13.85302,-6.02649 5.71858,-4.08949 14.06483,-7.36787 22.27428,-8.74928 10.30186,-1.7335 22.62262,2.49513 27.83687,9.55395 3.41698,4.62577 3.63151,5.93079 1.68498,10.25022 -2.01719,4.4762 -17.01451,20.09982 -28.05851,29.23023 -12.77643,10.56267 -22.03404,23.63418 -26.68231,37.67476 -2.41351,7.29022 -2.68345,9.70945 -3.04257,27.26744 0.90288,8.60784 -1.46052,13.31865 0.58406,20.13723 1.66232,1.89971 3.32465,3.47171 4.98697,5.09534 H 238 263.15385 Z"
         id="path2241"
         sodipodi:nodetypes="sssssssssssccssssccccccsssssssssssssssssssscccccs" />
      <path
         style="fill:#b77322"
         d="M 206.87023,411.58945 C 203.87579,410.34806 205,406.9023 205,401.40909 v -6.31818 l 2.45455,2.45454 2.45454,2.45455 h 28.12238 28.12238 l 3.03807,-3.03807 3.03808,-3.03808 -0.4045,7.15864 c -0.35743,6.32556 0.49543,7.95553 -2.24981,9.64642 L 265.88847,413 H 238.0806 210.27273 Z m 3.10702,-100.69993 C 207.08531,308.76209 207,306.49599 207,300.94056 v -6.21329 l 2.63636,2.63637 L 212.27273,300 H 238 263.72727 l 2.63637,-2.63636 L 269,294.72727 v 6.21329 c 0,5.53398 -0.31958,6.53287 -2.92308,9.13636 L 263.15385,313 H 238 212.84615 Z m 59.03252,-23.96138 c -0.0165,-9.38414 2.34591,-14.30357 11.39834,-23.73611 4.45054,-4.63742 11.58731,-11.34818 15.85949,-14.91281 16.36871,-13.65777 29.93022,-33.44575 34.81842,-50.80453 l 1.96406,-6.97469 -0.45212,7.07427 c -0.94869,14.84378 -6.38049,28.70914 -16.50984,42.14346 -3.22726,4.28025 -14.08978,15.65644 -24.13892,25.28043 -13.99264,13.40065 -18.81659,18.66942 -20.60041,22.5 l -2.32925,5.00184 -0.01,-5.57186 z m -72.3106,-100.08577 c -1.44493,-1.2883 -8.71835,-9.76006 -16.16315,-18.82613 C 168.64706,153.53822 167,151.08911 167,147.88869 c 0,-2.11477 0.66901,-4.19903 1.5943,-4.96695 1.353,-1.12289 1.84491,-1.00534 3.25,0.77663 0.91064,1.15489 7.0409,8.67021 13.62281,16.70071 C 196.92199,174.37504 197.59133,175 201.10489,175 c 2.49612,0 5.22652,-1.05129 8.5329,-3.28543 2.67421,-1.80699 8.23721,-4.82169 12.36221,-6.69933 6.24564,-2.84293 8.96869,-3.48489 16.28151,-3.83839 9.65118,-0.46654 14.61019,0.81659 20.79719,5.38121 5.60261,4.13348 7.91121,8.93219 7.91002,16.44194 -10e-4,6.45163 -0.0122,6.47767 -1.50776,3.5 C 261.56982,178.71261 251.3318,173.52842 240,173.59728 c -9.87733,0.06 -22.7852,5.05793 -32,12.39033 -4.10631,3.26747 -8.24382,3.58042 -11.30083,0.85476 z"
         id="path2239"
         sodipodi:nodetypes="sscccccccsscccssscccccccsscccscssscsssscccsssssssssssscsss" />
    </g>
    <path
       style="fill:#ffffff;stroke-width:0.866776"
       d="m 210.35536,297.04006 c -2.29317,-2.39355 -2.32891,-2.6109 -2.3163,-14.08511 0.0158,-14.37333 1.27563,-20.14344 6.8972,-31.58989 5.51865,-11.23688 9.37707,-15.96767 23.96849,-29.38761 13.32254,-12.25294 24.72945,-24.52531 26.74638,-28.77566 1.91212,-4.02949 1.72678,-15.39099 -0.32475,-19.9079 -3.4185,-7.52659 -12.94324,-12.50693 -23.9191,-12.50693 -9.86391,0 -14.6413,1.39112 -27.07278,7.88326 -6.30336,3.29184 -12.39006,5.98515 -13.52599,5.98515 -2.46472,0 -6.63362,-4.28651 -20.10612,-20.67331 -15.03738,-18.29019 -15.56572,-19.33928 -12.25745,-24.33842 5.07508,-7.66897 27.91943,-20.87274 44.34858,-25.63297 16.13443,-4.674839 40.96893,-4.673381 58.50738,0.003 23.47467,6.25978 45.06517,22.60152 54.15883,40.99255 5.114,10.34258 6.57517,17.57793 6.77519,33.54921 0.20025,15.98905 -0.64522,19.53923 -8.15373,34.23766 -6.05924,11.86138 -13.95664,21.81326 -26.56041,33.47004 -15.48213,14.31885 -23.09824,22.42117 -25.9019,27.55546 -2.04493,3.74484 -2.46364,5.66773 -2.75462,12.65047 -0.30899,7.41478 -0.56603,8.47161 -2.58252,10.618 l -2.23937,2.38364 h -25.67896 -25.67894 z"
       id="path2247" />
    <path
       style="fill:#ffffff;stroke-width:0.866776"
       d="m 207.6808,397.5086 -2.40334,-2.50854 0.29093,-27.90446 0.29092,-27.90446 2.33082,-2.00409 c 1.98902,-1.7102 3.70493,-2.09864 11.70147,-2.64889 12.73892,-0.87657 44.04392,0.16997 46.96949,1.57021 3.92222,1.87727 4.33785,4.97744 4.39089,32.7515 l 0.0489,25.61656 -2.85828,2.77036 -2.85829,2.77036 h -27.7501 -27.75009 z"
       id="path2249" />
  </g>
</svg>
