<?xml version="1.0" encoding="UTF-8" standalone="no"?>
<!-- Created with Inkscape (http://www.inkscape.org/) -->

<svg
   version="1.1"
   id="svg1899"
   width="500"
   height="528"
   viewBox="0 0 500 528"
   sodipodi:docname="emoji3.svg"
   inkscape:version="1.2.2 (732a01da63, 2022-12-09)"
   xmlns:inkscape="http://www.inkscape.org/namespaces/inkscape"
   xmlns:sodipodi="http://sodipodi.sourceforge.net/DTD/sodipodi-0.dtd"
   xmlns="http://www.w3.org/2000/svg"
   xmlns:svg="http://www.w3.org/2000/svg">
  <defs
     id="defs1903" />
  <sodipodi:namedview
     id="namedview1901"
     pagecolor="#505050"
     bordercolor="#eeeeee"
     borderopacity="1"
     inkscape:showpageshadow="0"
     inkscape:pageopacity="0"
     inkscape:pagecheckerboard="0"
     inkscape:deskcolor="#505050"
     showgrid="false"
     inkscape:zoom="0.79261364"
     inkscape:cx="121.11828"
     inkscape:cy="365.87814"
     inkscape:window-width="1920"
     inkscape:window-height="1017"
     inkscape:window-x="1912"
     inkscape:window-y="-8"
     inkscape:window-maximized="1"
     inkscape:current-layer="g1905" />
  <g
     inkscape:groupmode="layer"
     inkscape:label="Image"
     id="g1905">
    <g
       id="g1909">
      <path
         style="fill:#b1b2b0"
         d="m 229.5,513.4246 c -1.65,-0.22452 -7.05,-0.90218 -12,-1.50592 C 176.00746,506.85793 133.64348,489.46226 98.539873,463.07077 85.733719,453.44289 66.058346,434.35476 55.690173,421.5 22.432729,380.26645 2.6435125,328.54597 0.59309889,277.5 0.14002517,266.22053 0.16475574,266.01037 1.0049741,274 6.2113376,323.50725 25.106187,369.6238 55.702532,407.5 65.502887,419.63217 85.58426,439.39267 96.539659,447.68459 130.81434,473.6264 166.14851,489.17842 208,496.74286 c 13.34856,2.41269 16.68376,2.6208 42,2.6208 25.31624,0 28.65144,-0.20811 42,-2.6208 51.6117,-9.32854 95.38807,-31.63611 131.85974,-67.19309 43.11974,-42.03833 68.78597,-95.17415 75.13529,-155.54977 0.84021,-7.98963 0.86494,-7.77947 0.41187,3.5 -2.05041,51.04597 -21.83963,102.76645 -55.09707,144 -10.36818,12.85476 -30.04355,31.94289 -42.8497,41.57077 -34.12136,25.65301 -71.84221,41.53614 -115.13705,48.48078 -9.31116,1.49354 -49.80295,2.82826 -56.82308,1.87305 z"
         id="path1915"
         sodipodi:nodetypes="ssssssssssssssssss" />
      <path
         style="fill:#95ad8a"
         d="M 223.71461,498.97607 C 166.87234,492.49472 116.3013,468.70359 76.14026,429.54977 35.959175,390.3764 10.812485,341.26126 2.3875489,285.5 0.21785531,271.13967 -0.07860785,235.85117 1.8456763,221 6.3944042,185.894 17.865041,151.88742 34.825504,123.22591 56.242488,87.033317 86.458565,56.641289 121.99885,35.544951 c 14.3962,-8.545437 19.15619,-10.897925 34.5898,-17.09503 60.15837,-24.1555639 126.66433,-24.1555639 186.8227,0 15.43361,6.197105 20.1936,8.549593 34.5898,17.09503 35.54029,21.096338 65.75636,51.488366 87.17335,87.680959 16.96046,28.66151 28.4311,62.66809 32.97982,97.77409 1.92429,14.85117 1.62782,50.13967 -0.54187,64.5 -14.86547,98.38857 -84.0088,177.68921 -178.79996,205.06606 -21.94068,6.33674 -38.10939,8.59124 -64.31249,8.96748 -12.65,0.18164 -26.50342,-0.0692 -30.78539,-0.55747 z m -9.91495,-104.41008 c 1.48519,-0.78871 48.97443,-47.74295 105.53165,-104.34276 L 422.16262,187.31448 c 9.5034,-14.08194 9.90715,-13.88756 -0.47797,-25.93492 C 420.85926,159.7958 410.96512,149.3875 399.69768,138.25 L 379.21142,118 c -3.58839,-5.06523 -6.54596,-5.39927 -11.71142,-0.0559 L 288.31394,197.72205 209.12789,277.5 183.31394,251.97862 c -14.19767,-14.03676 -31.70261,-31.24926 -38.89987,-38.25 L 130.7148,201.3903 c -2.78483,-2.6978 -5.78677,-3.3331 -9.16535,-0.3903 l -45.094274,60.86489 c 30.807574,37.31521 39.493084,41.33856 63.572024,69.73991 34.36004,34.40602 63.3728,62.94161 64.4728,63.41241 3.03247,1.29792 6.3049,1.13914 9.29966,-0.45122 z M 228.5,367 c 3.8205,-3.85 7.17136,-7 7.44636,-7 0.275,0 -2.62586,3.15 -6.44636,7 -3.8205,3.85 -7.17136,7 -7.44636,7 -0.275,0 2.62586,-3.15 6.44636,-7 z M 367,228.5 c 12.36583,-12.375 22.70833,-22.5 22.98333,-22.5 0.275,0 -9.6175,10.125 -21.98333,22.5 -12.36583,12.375 -22.70833,22.5 -22.98333,22.5 -0.275,0 9.6175,-10.125 21.98333,-22.5 z"
         id="path1913"
         sodipodi:nodetypes="cssssssssssssscssccsccccssccccssssssssssss" />
      <path
         style="fill:#778b6e"
         d="m 205,395.31286 c -0.825,-0.29109 -29.73807,-28.71729 -64.25127,-63.16934 -66.755103,-66.63685 -65.740842,-65.47589 -62.814241,-71.89908 1.168485,-2.56455 2.093304,-1.69543 63.394391,59.57652 L 203.53749,382 h 4.73977 c 4.50895,0 5.16549,-0.38257 13.48126,-7.85562 4.80781,-4.3206 51.55849,-50.86609 103.89038,-103.43444 52.3319,-52.56834 102.35847,-99.40867 95.75,-94.97771 -0.38834,0.26038 7.68844,-6.94945 7.22476,-3.92019 L 427.04659,182.11512 319.25,290.30455 c -56.43088,56.63652 -103.96515,103.47273 -105.45034,104.26144 -2.71953,1.4442 -6.02752,1.72496 -8.79966,0.74687 z"
         id="path1911"
         sodipodi:nodetypes="sssscssssscsss" />
    </g>
    <path
       style="fill:#ffffff;stroke-width:0.44606"
       d="m 199.16588,376.73489 c -41.2268,-39.92701 -90.25195,-90.45656 -120.168022,-117.79695 0.0062,-0.12267 9.689476,-13.27029 21.518302,-29.21694 23.58406,-31.7941 23.07729,-31.22049 26.63948,-30.15323 2.74579,0.82266 17.25312,14.32454 41.45339,38.5804 11.89771,11.92504 21.8319,21.68189 22.07599,21.68189 0.24409,0 4.49266,4.04524 9.44125,8.98943 l 8.99746,8.98942 35.38952,-35.6395 c 19.46423,-19.60173 46.22878,-46.40724 59.47677,-59.5678 37.35394,-37.10744 61.18142,-61.12497 62.31073,-62.80776 1.69271,-2.52229 5.52067,-5.38191 7.17986,-5.3636 2.13225,0.0235 2.86738,0.60628 8.13903,6.45206 2.65486,2.944 12.46916,12.97873 21.80955,22.2994 15.54553,15.5127 22.33624,22.86728 24.47927,26.51191 0.7865,1.33761 0.78489,1.37046 -0.0673,1.37046 -1.15346,0 -5.79644,3.57653 -7.20638,5.55114 -0.61333,0.85897 -7.71125,8.0164 -15.77316,15.9054 -10.09015,9.87375 -14.76668,14.16782 -15.00672,13.77942 -0.23807,-0.3852 -27.36188,26.45351 -85.48072,84.58223 -46.8226,46.83056 -86.13644,86.01632 -87.36409,87.07948 -3.60454,3.12158 -2.9451,4.74196 -7.41261,4.25912 l -5.97098,-0.64532 z M 422.95335,168.43446 c 0.26678,-1.81765 -0.10725,-4.54827 -0.58273,-4.25441 -0.5178,0.32002 -0.51991,5.54585 -0.002,5.54585 0.21749,0 0.48073,-0.58115 0.58497,-1.29144 z"
       id="path1990"
       sodipodi:nodetypes="ccssssscsssssssssssssscccsscc" />
  </g>
</svg>
