<?xml version="1.0" encoding="UTF-8" standalone="no"?>
<!-- Created with Inkscape (http://www.inkscape.org/) -->

<svg
   version="1.1"
   id="svg2001"
   width="500"
   height="513"
   viewBox="0 0 500 513"
   sodipodi:docname="emoji4.svg"
   inkscape:version="1.2.2 (732a01da63, 2022-12-09)"
   xmlns:inkscape="http://www.inkscape.org/namespaces/inkscape"
   xmlns:sodipodi="http://sodipodi.sourceforge.net/DTD/sodipodi-0.dtd"
   xmlns="http://www.w3.org/2000/svg"
   xmlns:svg="http://www.w3.org/2000/svg">
  <defs
     id="defs2005" />
  <sodipodi:namedview
     id="namedview2003"
     pagecolor="#505050"
     bordercolor="#eeeeee"
     borderopacity="1"
     inkscape:showpageshadow="0"
     inkscape:pageopacity="0"
     inkscape:pagecheckerboard="0"
     inkscape:deskcolor="#505050"
     showgrid="false"
     inkscape:zoom="1.6315789"
     inkscape:cx="250.06452"
     inkscape:cy="256.80645"
     inkscape:window-width="1920"
     inkscape:window-height="1017"
     inkscape:window-x="1912"
     inkscape:window-y="-8"
     inkscape:window-maximized="1"
     inkscape:current-layer="g2007" />
  <g
     inkscape:groupmode="layer"
     inkscape:label="Image"
     id="g2007">
    <g
       id="g2099">
      <path
         style="fill:#b2b2b1"
         d="M 228.32867,498.98132 C 172.5167,493.55006 121.68758,469.67825 82.504662,430.49534 40.665926,388.6566 16.00459,332.81233 13.615706,274.5 l -0.491605,-12 0.907798,9.36372 c 10.287837,106.11672 89.581951,192.5186 193.703381,211.06657 51.25428,9.13032 104.28445,1.31879 150.14186,-22.11645 71.94764,-36.76855 120.24414,-108.01189 128.09096,-188.95012 l 0.9078,-9.36372 -0.49161,12 C 483.99541,332.81233 459.33407,388.6566 417.49534,430.49534 381.347,466.64367 334.98219,489.90697 284,497.47592 c -12.80028,1.90036 -43.17293,2.72166 -55.67133,1.5054 z M 300.87244,397.25 c -1.24387,-1.58606 -1.2085,-1.62143 0.37756,-0.37756 1.66575,1.30637 2.19548,2.12756 1.37244,2.12756 -0.20765,0 -0.99515,-0.7875 -1.75,-1.75 z M 144.4357,367.5 c 5.7e-4,-14.3 0.14102,-20.01094 0.31211,-12.69097 0.17108,7.31996 0.17062,19.01996 -10e-4,26 -0.1717,6.98003 -0.31168,0.99097 -0.31111,-13.30903 z M 298.43674,366 c 0,-14.575 0.1398,-20.5375 0.31066,-13.25 0.17086,7.2875 0.17086,19.2125 0,26.5 -0.17086,7.2875 -0.31066,1.325 -0.31066,-13.25 z M 163.75,334.2526 c 7.2875,-0.17086 19.2125,-0.17086 26.5,0 7.2875,0.17086 1.325,0.31066 -13.25,0.31066 -14.575,0 -20.5375,-0.1398 -13.25,-0.31066 z m 156,-39 c 7.2875,-0.17086 19.2125,-0.17086 26.5,0 7.2875,0.17086 1.325,0.31066 -13.25,0.31066 -14.575,0 -20.5375,-0.1398 -13.25,-0.31066 z M 146.3605,284 c 0,-5.225 0.16854,-7.3625 0.37454,-4.75 0.206,2.6125 0.206,6.8875 0,9.5 -0.206,2.6125 -0.37454,0.475 -0.37454,-4.75 z m 61.71845,-2.58333 c 0.048,-1.16495 0.28494,-1.4019 0.60416,-0.60417 0.28887,0.72187 0.25335,1.58438 -0.0789,1.91667 -0.3323,0.33229 -0.56864,-0.25834 -0.52522,-1.3125 z M 221,260.5 c 2.98742,-3.025 5.65668,-5.5 5.93168,-5.5 0.275,0 -1.94426,2.475 -4.93168,5.5 -2.98742,3.025 -5.65668,5.5 -5.93168,5.5 -0.275,0 1.94426,-2.475 4.93168,-5.5 z m 79.30987,-4 c 0.006,-3.3 0.1923,-4.52944 0.41486,-2.73209 0.22256,1.79735 0.21797,4.49735 -0.0102,6 -0.22818,1.50265 -0.41027,0.0321 -0.40466,-3.26791 z m 65.97614,1 c 0.008,-2.75 0.20172,-3.75631 0.43157,-2.23625 0.22986,1.52006 0.22371,3.77006 -0.0136,5 -0.23736,1.22994 -0.42542,-0.0138 -0.41792,-2.76375 z M 239.5,244 c 0.99549,-1.1 2.03498,-2 2.30998,-2 0.275,0 -0.31449,0.9 -1.30998,2 -0.99549,1.1 -2.03498,2 -2.30998,2 -0.275,0 0.31449,-0.9 1.30998,-2 z M 13.157895,235 c 0,-1.375 0.226973,-1.9375 0.504386,-1.25 0.277412,0.6875 0.277412,1.8125 0,2.5 -0.277413,0.6875 -0.504386,0.125 -0.504386,-1.25 z m 472.999995,0 c 0,-1.375 0.22698,-1.9375 0.50439,-1.25 0.27741,0.6875 0.27741,1.8125 0,2.5 -0.27741,0.6875 -0.50439,0.125 -0.50439,-1.25 z M 367.28601,221.5 c 0.008,-2.75 0.20172,-3.75631 0.43157,-2.23625 0.22986,1.52006 0.22371,3.77006 -0.0136,5 -0.23736,1.22994 -0.42542,-0.0137 -0.41792,-2.76375 z M 299.32007,211 c 0,-3.575 0.1815,-5.0375 0.40333,-3.25 0.22182,1.7875 0.22182,4.7125 0,6.5 -0.22183,1.7875 -0.40333,0.325 -0.40333,-3.25 z m -28.24112,-20.58333 c 0.048,-1.16495 0.28494,-1.4019 0.60416,-0.60417 0.28887,0.72187 0.25335,1.58437 -0.0789,1.91667 -0.33229,0.33229 -0.56864,-0.25834 -0.52522,-1.3125 z M 368.28601,185.5 c 0.008,-2.75 0.20172,-3.75631 0.43157,-2.23625 0.22986,1.52006 0.22371,3.77006 -0.0136,5 -0.23736,1.22994 -0.42542,-0.0137 -0.41792,-2.76375 z m -161.09106,-3 c 0.0204,-1.65 0.2445,-2.20394 0.49804,-1.23097 0.25354,0.97297 0.23687,2.32297 -0.0371,3 -0.27393,0.67703 -0.48137,-0.11903 -0.46099,-1.76903 z M 298.32007,166 c 0,-3.575 0.1815,-5.0375 0.40333,-3.25 0.22182,1.7875 0.22182,4.7125 0,6.5 -0.22183,1.7875 -0.40333,0.325 -0.40333,-3.25 z M 175.8125,160.31689 c 0.72187,-0.28887 1.58437,-0.25335 1.91667,0.0789 0.33229,0.33229 -0.25834,0.56864 -1.3125,0.52522 -1.16495,-0.048 -1.4019,-0.28494 -0.60417,-0.60416 z m 8,0 c 0.72187,-0.28887 1.58437,-0.25335 1.91667,0.0789 0.33229,0.33229 -0.25834,0.56864 -1.3125,0.52522 -1.16495,-0.048 -1.4019,-0.28494 -0.60417,-0.60416 z M 369.28601,150.5 c 0.008,-2.75 0.20172,-3.75631 0.43157,-2.23625 0.22986,1.52006 0.22371,3.77006 -0.0136,5 -0.23736,1.22994 -0.42542,-0.0137 -0.41792,-2.76375 z M 105.07895,133.41667 c 0.048,-1.16495 0.28494,-1.4019 0.60416,-0.60417 0.28887,0.72187 0.25335,1.58437 -0.0789,1.91667 -0.3323,0.33229 -0.56864,-0.25834 -0.52522,-1.3125 z M 297.30987,120.5 c 0.006,-3.3 0.1923,-4.52944 0.41486,-2.73209 0.22256,1.79735 0.21797,4.49735 -0.0102,6 -0.22818,1.50265 -0.41027,0.0321 -0.40466,-3.26791 z m 72.97614,-6 c 0.008,-2.75 0.20172,-3.75631 0.43157,-2.23625 0.22986,1.52006 0.22371,3.77006 -0.0136,5 -0.23736,1.22994 -0.42542,-0.0138 -0.41792,-2.76375 z M 191.8125,99.316886 c 0.72187,-0.288871 1.58437,-0.253344 1.91667,0.07895 0.33229,0.332292 -0.25834,0.568641 -1.3125,0.52522 -1.16495,-0.04798 -1.4019,-0.284941 -0.60417,-0.604167 z M 233.75,13.337719 c 0.6875,-0.277412 1.8125,-0.277412 2.5,0 0.6875,0.277413 0.125,0.504386 -1.25,0.504386 -1.375,0 -1.9375,-0.226973 -1.25,-0.504386 z m 30,0 c 0.6875,-0.277412 1.8125,-0.277412 2.5,0 0.6875,0.277413 0.125,0.504386 -1.25,0.504386 -1.375,0 -1.9375,-0.226973 -1.25,-0.504386 z"
         id="path2105" />
      <path
         style="fill:#f3be42"
         d="M 230,485.86378 C 130.00646,477.69353 45.302257,406.02469 20.546086,308.64329 15.130395,287.34002 13.603533,274.44272 13.603533,250 c 0,-24.44272 1.526862,-37.34002 6.942553,-58.64329 C 41.832853,107.62263 107.62263,41.832853 191.35671,20.546086 212.65998,15.130395 225.55728,13.603533 250,13.603533 c 24.44272,0 37.34002,1.526862 58.64329,6.942553 83.73408,21.286767 149.52386,87.076544 170.81062,170.810624 5.4157,21.30327 6.94256,34.20057 6.94256,58.64329 0,24.44272 -1.52686,37.34002 -6.94256,58.64329 C 456.69034,398.18656 382.58423,467.09341 292,482.94549 c -21.33301,3.73324 -40.80743,4.64988 -62,2.91829 z m -22.30576,-75.27606 2.80576,-2.41228 0.29978,-32.8917 c 0.19281,-21.15575 -0.0725,-33.87091 -0.74364,-35.63609 C 208.13148,334.58542 204.70316,334 176.98246,334 c -27.8577,0 -29.87608,0.38747 -31.87404,6.11884 -1.20787,3.46488 -1.37921,43.34084 -0.25821,60.08936 0.54052,8.07556 0.98613,9.96213 2.64979,11.21819 1.66922,1.26027 6.58033,1.51526 29.69424,1.54181 L 204.88847,413 Z m 158.52939,-0.36425 c 2.26968,-2.26985 2.27724,-2.37933 2.57207,-37.28122 l 0.2957,-35.00469 -2.96877,-2.96878 L 363.15385,332 h -29.62238 -29.62238 l -2.38827,2.38827 c -1.31355,1.31355 -2.66887,3.90105 -3.01183,5.75 -0.34295,1.84895 -0.42915,14.83673 -0.19154,28.86173 0.2376,14.025 0.4647,28.53428 0.50467,32.24284 0.0629,5.84083 0.41368,7.08387 2.6219,9.29209 l 2.54924,2.54924 29.977,-0.29208 c 29.67162,-0.28911 30.00019,-0.31528 32.25337,-2.56862 z M 205.54545,310.54545 c 2.54923,-2.54922 2.77674,-4.32933 2.75364,-21.54545 -0.006,-4.19976 0.0923,-4.56456 0.41437,-1.54307 l 0.42176,3.95693 1.91036,-4.26693 c 1.99644,-4.45919 10.99755,-13.88945 26.78703,-28.06417 11.35631,-10.19492 22.13454,-23.84164 27.32211,-34.59352 5.68999,-11.79323 6.96328,-20.20877 6.58885,-43.54769 -0.29315,-18.27329 -0.47952,-19.9217 -3.10136,-27.43195 -9.58599,-27.45894 -35.06625,-47.18247 -68.5232,-53.04183 -23.49777,-4.115192 -48.18903,0.21456 -72.11901,12.64649 -8.66872,4.50351 -19.86989,13.62555 -21.89312,17.82938 -1.24688,2.59074 -1.18064,3.30226 0.631,6.77798 1.75644,3.36979 1.84149,4.13314 0.64312,5.772 -2.99471,4.09552 -1.7599,6.93934 8.369,19.27419 5.3625,6.53038 12,14.611 14.75,17.95692 2.75,3.34592 6.03829,6.57874 7.3073,7.18405 3.10223,1.47973 6.92321,0.45802 11.41782,-3.05306 10.35819,-8.09158 27.06047,-13.03251 36.91257,-10.91961 7.48197,1.60459 14.60468,5.82909 17.8975,10.61504 l 2.83918,4.12661 -2.29522,4.91112 c -2.64212,5.65339 -10.15177,13.55792 -26.93388,28.35011 -14.39026,12.68397 -19.5405,18.85423 -24.58185,29.45045 -5.90782,12.41738 -6.58974,16.49583 -6.37215,38.11056 l 0.19127,19 2.61449,2.25 c 2.56349,2.20611 3.11177,2.25 28.10419,2.25 h 25.48969 z m -39.7381,-11.29291 c 6.76904,-0.17326 17.56904,-0.17273 24,10e-4 6.43096,0.17391 0.89265,0.31567 -12.30735,0.31502 -13.2,-6.6e-4 -18.46169,-0.14295 -11.69265,-0.31621 z m 13.46168,-138.94553 c 0.97297,-0.25354 2.32297,-0.23687 3,0.0371 0.67703,0.27393 -0.11903,0.48137 -1.76903,0.46099 -1.65,-0.0204 -2.20394,-0.2445 -1.23097,-0.49804 z m 183.95485,145.91806 c 2.10298,-2.10189 2.29863,-3.28091 2.57206,-15.5 0.16277,-7.27379 1.36834,-51.44666 2.67906,-98.16193 2.56528,-91.42981 2.63403,-88.82887 -2.41961,-91.5335 C 364.85711,100.38834 352.68713,100 333.78825,100 c -32.86959,0 -33.74912,0.13668 -35.81315,5.56549 -0.54417,1.43128 -0.0734,40.73952 1.19343,99.64909 2.23578,103.96654 2.00725,100.67613 7.13977,102.7999 1.20543,0.49879 13.99245,0.81208 28.41558,0.69621 25.81129,-0.20738 26.2597,-0.24648 28.5,-2.48562 z"
         id="path2103" />
      <path
         style="fill:#c49a35"
         d="M 147.18856,410.96104 C 145.37335,409.26992 145,407.81988 145,402.46104 V 396 l 2,2 c 1.9045,1.9045 3.33333,2 29.92327,2 h 27.92328 l 3.2058,-2.6975 3.20579,-2.6975 -0.43504,6.83223 c -0.37783,5.93368 -0.79669,7.1433 -3.18484,9.1975 C 204.88975,412.9989 204.87554,413 177.1328,413 c -26.55019,0 -27.85073,-0.0886 -29.94424,-2.03896 z m 154.30807,-0.3735 C 299.37856,408.46947 299,407.16324 299,401.97287 v -6.11803 l 2.63486,2.07258 C 304.16425,399.91704 305.44203,400 333.55813,400 h 29.28842 l 3.2058,-2.6975 3.20579,-2.6975 -0.4278,6.71845 c -0.33424,5.24922 -0.91495,7.20591 -2.65544,8.9475 -2.19081,2.1922 -2.72326,2.23388 -32.20464,2.52114 l -29.977,0.29208 z M 149.63486,310.92742 c -2.39345,-1.88269 -2.63486,-2.70727 -2.63486,-9 0,-6.86117 0.0186,-6.90883 1.94422,-4.9832 2.8851,2.8851 6.36816,3.20495 31.20305,2.86541 20.99749,-0.28707 22.80904,-0.45532 24.86803,-2.30963 1.22142,-1.1 2.63034,-2.9 3.13094,-4 0.77753,-1.70853 0.83519,-1.63566 0.39562,0.5 -0.283,1.375 -0.5207,5.10795 -0.52821,8.29545 -0.0113,4.80929 -0.43132,6.21313 -2.4682,8.25 L 203.09091,313 h -25.4106 c -24.19302,0 -25.53684,-0.0993 -28.04545,-2.07258 z M 306.357,308.03249 C 302.58121,306.46636 301,303.01938 301,296.35442 v -6.20057 l 2.92308,2.92307 L 306.84615,296 H 333.5 360.15385 l 3.03807,-3.03807 3.03808,-3.03808 -0.39798,7.04328 c -0.31831,5.63315 -0.84708,7.49271 -2.64112,9.28808 -2.19895,2.20058 -2.75963,2.24894 -28.46702,2.45548 -14.42313,0.11587 -27.18823,-0.18931 -28.36688,-0.6782 z m -97.33504,-23.08615 c -0.0387,-11.55179 4.29135,-17.24551 31.72271,-41.71304 14.31755,-12.77061 26.27643,-30.83777 29.65352,-44.79977 1.42687,-5.89917 1.43567,-5.90943 1.5185,-1.7715 0.14921,7.45426 -2.81153,19.6296 -6.7695,27.83797 -5.17813,10.73883 -15.95926,24.38872 -27.31458,34.58276 -15.78073,14.16686 -24.7881,23.60209 -26.83268,28.10724 l -1.95601,4.31 -0.022,-6.55366 z M 137.5,187.86321 c -2.54677,-1.30413 -29.68495,-34.10013 -30.94304,-37.3941 -1.06771,-2.79551 0.30583,-7.96911 2.11571,-7.96911 0.61848,0 7.13265,7.2 14.47592,16 12.1923,14.61095 13.65873,16.02586 16.89136,16.29784 2.5072,0.21095 4.64875,-0.4546 7.34057,-2.28132 5.3218,-3.61147 14.15508,-7.9222 20.47989,-9.99438 4.02278,-1.31797 7.51634,-1.64694 14,-1.3183 10.08855,0.51137 14.87055,2.5422 20.4013,8.66408 3.8478,4.25906 5.08567,8.24224 4.56094,14.67608 L 206.5,188.5 l -2.35673,-3.79073 c -2.84913,-4.58273 -10.62365,-9.24903 -17.94497,-10.77066 -10.04091,-2.08684 -26.67717,2.83527 -36.97318,10.93913 -4.22953,3.329 -8.78773,4.48962 -11.72512,2.98547 z"
         id="path2101" />
    </g>
    <path
       style="fill:#ffffff;stroke-width:0.612903"
       d="m 153.252,298.71383 c -1.02935,-0.21062 -2.85475,-1.03804 -4.05646,-1.83871 l -2.18492,-1.45577 0.27581,-14.09677 c 0.30561,-15.6205 0.58996,-17.22887 4.73591,-26.78782 4.08118,-9.40965 7.4486,-14.14771 16.49476,-23.20866 4.56802,-4.57548 12.13258,-11.74645 16.81016,-15.93549 14.01621,-12.55231 21.83403,-22.6742 21.83403,-28.26894 0,-1.14741 0.31773,-2.40392 0.70606,-2.79224 0.74848,-0.74848 -0.31978,-5.2457 -2.43188,-10.23793 -2.39139,-5.65233 -10.32109,-11.48344 -16.80283,-12.35599 -1.59479,-0.21468 -2.74949,-0.63325 -2.56599,-0.93016 0.53815,-0.87074 -1.51788,-1.34801 -2.45538,-0.56997 -0.53174,0.44132 -0.9961,0.48613 -1.22356,0.1181 -0.37374,-0.60473 -5.43022,-0.55809 -7.09739,0.0655 -0.50564,0.18912 -2.81869,0.78388 -5.1401,1.32169 -5.19463,1.20346 -14.958,5.53081 -21.0614,9.33489 -5.58047,3.47816 -8.86485,4.07212 -11.95537,2.16208 -1.14232,-0.706 -5.64248,-5.48964 -10.00036,-10.63034 C 116.00917,149.48514 109.7303,142.5 109.05888,142.5 c -0.31626,0 -0.57501,-0.4247 -0.57501,-0.94377 0,-0.51908 -0.55161,-2.02502 -1.22581,-3.34655 -2.64216,-5.17906 -1.05155,-8.70425 6.8347,-15.14747 8.21461,-6.71149 15.40233,-10.87917 26.12301,-15.14698 17.78132,-7.07859 34.2588,-9.626019 51.62294,-7.980945 37.38747,3.542075 66.68632,24.500905 76.90333,55.012545 2.01672,6.02265 2.8823,15.2027 2.69833,28.61769 -0.11585,8.44762 -0.37629,10.97077 -1.5816,15.32258 -2.66836,9.63412 -8.99444,21.1303 -17.27854,31.39971 -3.66448,4.54268 -23.79879,23.82903 -25.35914,24.29114 -1.18356,0.35051 -11.47915,10.69646 -11.47915,11.53528 0,0.41343 -1.10381,2.32743 -2.45291,4.25333 -1.34909,1.9259 -2.9164,4.97201 -3.4829,6.76915 -0.56649,1.79714 -1.25542,3.26752 -1.53096,3.26752 -0.27554,0 -0.50098,0.55161 -0.50098,1.2258 0,0.6742 0.27581,1.22581 0.61291,1.22581 0.33709,0 0.6129,0.53533 0.6129,1.18963 0,0.6543 -0.27581,1.3601 -0.6129,1.56843 -0.3371,0.20834 -0.61291,2.14567 -0.61291,4.30517 0,3.51033 -0.19979,4.15393 -1.88553,6.07387 -1.11442,1.26926 -2.68099,2.29631 -3.83064,2.51138 -2.66303,0.49818 -46.47656,0.68715 -48.80602,0.21051 z"
       id="path2167" />
    <path
       style="fill:#ffffff;stroke-width:0.612903"
       d="m 153.39686,399.3433 c -4.35532,-0.33388 -5.27301,-0.61081 -6.76692,-2.04207 l -1.72828,-1.6558 0.10747,-27.56433 c 0.10115,-25.9445 0.17649,-27.68283 1.28212,-29.58078 2.04587,-3.512 3.18234,-3.64588 30.91309,-3.64169 15.62259,0.002 25.79801,0.24615 27.31411,0.65439 1.32892,0.35785 3.08778,1.36495 3.90857,2.23801 1.42788,1.51882 1.50758,2.04199 1.84516,12.11173 0.19406,5.78838 0.221,18.33033 0.0599,27.87098 l -0.29298,17.34665 -2.81792,2.41552 -2.81794,2.41553 -22.98388,-0.0909 c -12.64112,-0.05 -25.25125,-0.26476 -28.02249,-0.4772 z"
       id="path2169" />
    <path
       style="fill:#ffffff;stroke-width:0.612903"
       d="m 309.17032,399.35598 c -4.15822,-0.29949 -5.24885,-0.61415 -6.87252,-1.98284 -1.06146,-0.89477 -2.18832,-1.72219 -2.50412,-1.83871 -0.34143,-0.12597 -0.65514,-11.51673 -0.77387,-28.09895 -0.21399,-29.88668 -0.3331,-28.55347 2.94313,-32.94354 L 303.44948,332.5 h 29.87088 29.87088 l 2.85488,2.91129 2.85488,2.91129 -0.37033,28.37112 -0.37032,28.37112 -2.89911,2.42727 -2.8991,2.42726 -24.12462,-0.10369 c -13.26854,-0.0571 -26.34878,-0.26389 -29.0672,-0.45968 z"
       id="path2171" />
    <path
       style="fill:#ffffff;stroke-width:0.612903"
       d="m 303.99712,292.9648 -2.40897,-2.45455 -0.66902,-24.20674 c -0.36797,-13.3137 -0.76618,-32.75674 -0.88491,-43.20674 -0.11873,-10.45 -0.36413,-19.68951 -0.54531,-20.53225 -0.36638,-1.70408 -1.31149,-61.79338 -1.31149,-83.38303 0,-12.1207 0.13158,-14.01918 1.07094,-15.45174 2.00565,-3.0587 3.74853,-3.21487 35.70325,-3.19911 33.24732,0.0164 32.74009,-0.0497 33.98418,4.43002 0.80257,2.88992 0.80518,27.89389 0.006,56.23289 -0.33277,11.79839 -0.74112,27.51935 -0.90745,34.93548 -0.16633,7.41613 -0.58698,22.44758 -0.93477,33.40323 -0.34779,10.95564 -0.76112,27.50403 -0.91851,36.77419 -0.40119,23.6293 -0.42435,23.81206 -3.38258,26.7007 l -2.41275,2.35599 -26.98976,0.0281 -26.98975,0.0281 -2.40897,-2.45455 z"
       id="path2173" />
  </g>
</svg>
