<?xml version="1.0" encoding="UTF-8" standalone="no"?>
<!-- Created with Inkscape (http://www.inkscape.org/) -->

<svg
   version="1.1"
   id="svg1340"
   width="500"
   height="528"
   viewBox="0 0 500 528"
   sodipodi:docname="emoji2.svg"
   inkscape:version="1.2.2 (732a01da63, 2022-12-09)"
   xmlns:inkscape="http://www.inkscape.org/namespaces/inkscape"
   xmlns:sodipodi="http://sodipodi.sourceforge.net/DTD/sodipodi-0.dtd"
   xmlns="http://www.w3.org/2000/svg"
   xmlns:svg="http://www.w3.org/2000/svg">
  <defs
     id="defs1344" />
  <sodipodi:namedview
     id="namedview1342"
     pagecolor="#505050"
     bordercolor="#eeeeee"
     borderopacity="1"
     inkscape:showpageshadow="0"
     inkscape:pageopacity="0"
     inkscape:pagecheckerboard="0"
     inkscape:deskcolor="#505050"
     showgrid="false"
     inkscape:zoom="0.79261364"
     inkscape:cx="78.222222"
     inkscape:cy="111.02509"
     inkscape:window-width="1920"
     inkscape:window-height="1017"
     inkscape:window-x="1912"
     inkscape:window-y="-8"
     inkscape:window-maximized="1"
     inkscape:current-layer="g1346" />
  <g
     inkscape:groupmode="layer"
     inkscape:label="Image"
     id="g1346">
    <g
       id="g1350">
      <circle
         style="fill:#94ba49;fill-opacity:1;stroke-width:1.37372"
         id="path1834"
         cx="250.53433"
         cy="251.87253"
         r="251.42645" />
      <path
         style="fill:#b1b2b0"
         d="M 229.5,513.38203 C 189.01363,509.16774 151.94093,497.04195 120,477.56661 87.437577,457.71232 56.804232,427.1097 36.753367,394.40348 15.732467,360.11497 2.6198108,318.22038 0.63304286,279 c -0.26468031,-5.225 -0.287297,-8.15 -0.0502593,-6.5 0.23703768,1.65 1.12252774,8.04174 1.96775564,14.20388 C 14.392171,373.03527 74.503266,449.39828 156.53398,482.31901 187.22148,494.63458 215.5844,500 250,500 c 34.4156,0 62.77852,-5.36542 93.46602,-17.68099 82.03071,-32.92073 142.14181,-109.28374 153.98344,-195.61513 0.84523,-6.16214 1.73072,-12.55388 1.96776,-14.20388 0.23703,-1.65 0.21442,1.275 -0.0503,6.5 -2.17163,42.86955 -16.72204,86.22423 -41.38851,123.32195 C 418.59869,461.54808 357.2056,500.52808 286,511.51536 c -10.08915,1.55679 -47.57808,2.79536 -56.5,1.86667 z"
         id="path1358" />
      <path
         style="display:inline;fill:#8fb447"
         d="M 306,389.32503 C 278.52106,388.1007 261.64171,385.68077 234,379.00266 215.48081,374.5285 194.73515,371 186.94878,371 H 184 v -6.65297 -6.65298 l 11.25,0.61452 c 12.92628,0.70607 21.84251,2.27511 44.20637,7.77926 28.94179,7.12309 64.35187,10.72666 94.04363,9.57052 14.43616,-0.56212 15.24291,-0.70764 21.46236,-3.87121 7.33609,-3.73157 13.6302,-10.95467 14.62808,-16.78714 1.52151,-8.89304 2.71902,-11.47469 7.84363,-16.90974 2.89903,-3.07464 5.77364,-6.49026 6.38804,-7.59026 0.9895,-1.7716 1.12055,-1.59209 1.14748,1.57186 0.055,6.46489 -2.89849,12.77896 -9.05731,19.36276 -4.48176,4.79101 -6.1003,7.37122 -6.99396,11.14948 -2.995,12.6623 -7.55024,19.12294 -16.55751,23.48328 -6.63428,3.2116 -22.45063,4.32298 -46.36081,3.25765 z M 112.29855,377.07065 C 107.92594,374.36331 106,370.18769 106,363.4148 v -5.68452 l 2.1679,2.75604 C 112.0122,365.37355 115.17439,366 136,366 c 20.82561,0 23.9878,-0.62645 27.8321,-5.51368 L 166,357.73028 v 6.64955 c 0,6.1758 -0.24375,6.91566 -3.42126,10.38486 l -3.42127,3.73531 -21.82873,0.27643 c -20.29323,0.25699 -22.05394,0.137 -25.03019,-1.70578 z m 272.18296,-70.1289 c -1.41056,-4.4443 -0.65487,-7.76687 3.10064,-13.6326 2.0456,-3.19503 4.30884,-7.15915 5.02942,-8.80915 1.27067,-2.9096 1.3113,-2.81919 1.3485,3 0.0379,5.92228 -3.07513,14.51256 -7.22485,19.93694 -1.44316,1.88646 -1.5019,1.87355 -2.25371,-0.49519 z m 6.03118,-51.13225 c -0.46352,-2.39937 -0.17556,-5.37312 0.82309,-8.5 0.84481,-2.64523 1.77577,-5.7095 2.0688,-6.8095 0.29302,-1.1 0.34348,1.61487 0.11212,6.03305 -0.23135,4.41817 -0.84148,9.14317 -1.35585,10.5 -0.90331,2.3828 -0.95953,2.34106 -1.64816,-1.22355 z m -81.07176,-64.85563 c 0.27996,-5.64867 1.6468,-11.43199 5.43586,-23 2.78402,-8.49963 5.48046,-17.25387 5.99208,-19.45387 l 0.93023,-4 0.0929,3.5 c 0.17119,6.44979 -1.9436,16.16206 -6.83451,31.38772 -2.66996,8.31176 -5.1101,16.01228 -5.42252,17.11228 -0.31242,1.1 -0.39973,-1.39576 -0.19403,-5.54613 z"
         id="path1352" />
    </g>
    <path
       style="display:inline;fill:#ffffff;stroke-width:0.630824"
       d="m 307.84229,375.17517 c -42.50636,3.1728 -86.42166,-19.88304 -123.77318,-18.08268 l 0.22351,-67.88168 c 0.20588,-62.52683 0.30704,-67.96521 1.28239,-68.94051 54.80757,-23.55236 74.20843,-77.49545 93.32096,-122.17711 0.30757,0 0.55923,-0.695572 0.55923,-1.545715 0,-0.850143 0.37625,-1.772724 0.8361,-2.050179 0.45986,-0.277456 1.00472,-0.964841 1.21081,-1.527524 0.2061,-0.562683 1.67676,-1.65337 3.26815,-2.423749 2.33626,-1.130964 3.59117,-1.335186 6.51679,-1.06053 46.47562,5.122162 32.85031,71.905427 17.11253,100.708057 -1.00941,2.296 -3.99662,9.29805 1.54269,11.66935 25.6308,10.08229 50.42527,-1.9795 72.63999,6.8804 3.16976,1.15207 4.50626,3.96472 6.28042,6.01874 6.02659,3.77079 6.66265,22.8724 3.66773,25.72983 -3.30948,6.01116 -3.79721,9.02508 -3.94265,12.78411 0,1.38781 0.28387,2.5233 0.63082,2.5233 2.04456,3.82056 6.43722,9.81936 4.80681,18.76702 -0.48001,10.71805 -7.44429,21.20975 -11.11505,27.91398 2.86787,7.10884 3.82042,10.18223 3.06612,16.71685 -0.0688,2.9491 -0.29174,5.362 -0.49539,5.362 -1.08283,3.16404 -2.13668,4.78137 -3.89135,7.34581 -0.14105,0.39719 -2.62388,3.20466 -5.5174,6.23884 -4.77174,12.17031 -8.37045,27.977 -15.89862,30.70026 -7.69727,9.85906 -36.56118,5.68705 -52.33144,6.33115 z"
       id="path1433"
       sodipodi:nodetypes="ccsccssssccccccccccccccccc" />
    <path
       style="display:inline;fill:#ffffff;stroke-width:0.630824"
       d="m 107.1613,217.47136 c 0.75228,-5.10263 1.69487,-6.99705 8.17719,-6.90527 10.81346,0.008 28.98805,0.10452 44.91484,-0.0652 5.84961,-0.0623 6.49676,3.02175 6.27803,5.39877 -1.60339,26.24457 1.41849,64.19045 0.97923,95.97121 -0.25119,18.17375 2.06684,33.90751 -3.37988,48.39989 -3.19669,5.22004 -16.15237,5.86621 -28.66124,5.83567 -12.14891,-0.0297 -23.86741,-0.60147 -26.41006,-4.64213 -0.81806,-1.23751 -2.77466,-2.25721 -2.83505,-3.76006 -0.92619,-23.04854 -0.13104,-47.6348 0.50982,-77.92558 0.53853,-25.45388 0.40818,-39.41527 0.42712,-62.30729 z"
       id="path1435"
       sodipodi:nodetypes="ccscscscssc" />
  </g>
</svg>
