<?xml version="1.0" encoding="UTF-8" standalone="no"?>
<!-- Created with Inkscape (http://www.inkscape.org/) -->

<svg
   version="1.1"
   id="svg2"
   width="500"
   height="513"
   viewBox="0 0 500 513"
   sodipodi:docname="emoji0.svg"
   inkscape:version="1.2.2 (732a01da63, 2022-12-09)"
   xmlns:inkscape="http://www.inkscape.org/namespaces/inkscape"
   xmlns:sodipodi="http://sodipodi.sourceforge.net/DTD/sodipodi-0.dtd"
   xmlns="http://www.w3.org/2000/svg"
   xmlns:svg="http://www.w3.org/2000/svg">
  <defs
     id="defs6" />
  <sodipodi:namedview
     id="namedview4"
     pagecolor="#505050"
     bordercolor="#eeeeee"
     borderopacity="1"
     inkscape:showpageshadow="0"
     inkscape:pageopacity="0"
     inkscape:pagecheckerboard="0"
     inkscape:deskcolor="#505050"
     showgrid="false"
     inkscape:zoom="1.1537005"
     inkscape:cx="185.49008"
     inkscape:cy="199.35849"
     inkscape:window-width="1920"
     inkscape:window-height="1017"
     inkscape:window-x="1912"
     inkscape:window-y="-8"
     inkscape:window-maximized="1"
     inkscape:current-layer="g8" />
  <g
     inkscape:groupmode="layer"
     inkscape:label="Image"
     id="g8"
     style="display:inline">
    <g
       id="g170"
       style="display:inline">
      <path
         style="display:inline;fill:#19a9a3"
         d="M 230,485.86378 C 130.00646,477.69353 45.302257,406.02469 20.546086,308.64329 15.261998,287.85769 13.635231,274.38486 13.585996,251 13.523842,221.47923 16.742743,201.45492 26.017215,173.66721 37.227967,140.07811 54.953078,111.24277 80.434544,85.140683 108.80544,56.078801 138.86926,37.281581 176.62459,24.998447 201.96417,16.754593 222.42428,13.567042 250,13.567042 c 27.57572,0 48.03583,3.187551 73.37541,11.431405 35.80956,11.650107 64.21999,28.870719 91.48391,55.451787 29.02977,28.302696 47.85499,58.406386 60.14223,96.174356 8.38133,25.76212 11.47239,45.90674 11.41245,74.37541 -0.0809,38.43252 -7.24095,69.39709 -23.93263,103.5 C 419.73344,441.83865 327.69318,493.84607 230,485.86378 Z M 220.85497,411.575 c 4.86346,-2.515 5.06072,-4.06061 5.11748,-40.09797 l 0.0529,-33.60549 -2.93577,-2.93577 L 220.15381,332 H 190.2512 160.34859 l -2.1862,2.32711 c -2.16617,2.30577 -2.18575,2.65491 -2.13639,38.08338 l 0.0498,35.75627 2.41662,2.41662 2.41662,2.41662 h 28.59512 c 22.79317,0 29.15423,-0.28913 31.35076,-1.425 z M 341.07692,410.07692 344,407.15385 V 372.02917 336.9045 L 341.35398,334.45225 338.70795,332 H 308.80623 278.9045 l -2.46466,2.65941 -2.46466,2.65942 0.0519,34.38028 c 0.0337,22.27027 0.43044,35.21099 1.1265,36.73868 0.591,1.29711 2.03572,2.82379 3.21047,3.39262 1.30897,0.63381 13.29667,1.06043 30.96284,1.10191 l 28.82693,0.0677 2.92307,-2.92308 z M 221.54479,305.74446 c 2.24219,-2.60825 2.37308,-3.51693 2.44877,-17 0.044,-7.83445 0.90008,-51.59446 1.90244,-97.24446 1.94238,-88.46042 1.95935,-87.9015 -2.7456,-90.41951 C 221.82923,100.37342 210.46021,100 190.2543,100 c -29.63542,0 -30.96471,0.0815 -33.05363,2.02768 -1.19705,1.11522 -2.43433,3.05512 -2.74951,4.31088 -0.31518,1.25577 0.38959,42.98081 1.56615,92.72233 1.17656,49.74151 2.0789,93.2923 2.00519,96.77954 -0.14608,6.91121 1.44999,10.58711 5.2858,12.17369 1.20543,0.4986 14.26879,0.8119 29.02969,0.69621 L 219.17598,308.5 Z m 114.16261,2.2077 c 1.65322,-0.57632 3.51038,-2.03882 4.12702,-3.25 1.69247,-3.32427 6.67402,-196.06047 5.16183,-199.71121 C 343.0419,100.27273 341.08445,100 309.17545,100 c -25.32253,0 -30.0608,0.23139 -31.95866,1.5607 -5.16754,3.61949 -5.06486,0.79964 -3.14764,86.4393 2.46543,110.12739 2.58752,114.27219 3.42528,116.28019 1.74013,4.17085 4.79382,4.63776 30.60635,4.67977 14.68037,0.0239 25.8129,-0.38251 27.60662,-1.0078 z"
         id="path174" />
      <path
         style="display:inline;fill:#158883"
         d="M 158.45455,410.54545 C 156.37467,408.46558 156,407.14151 156,401.87114 v -6.21977 l 2.31445,2.17432 c 2.26928,2.13187 2.8954,2.17431 32.07692,2.17431 h 29.76248 l 2.92307,-2.92308 L 226,394.15385 v 5.37602 c 0,2.95681 -0.53761,6.55595 -1.19469,7.99807 C 222.44667,412.70461 220.54108,413 189.50421,413 h -28.59512 z m 119.90953,1.28496 C 275.3769,410.38399 274,406.80866 274,400.4984 v -5.40749 l 2.45455,2.45454 2.45454,2.45455 h 29.89943 29.89943 l 2.64603,-2.45225 L 344,395.0955 v 6.02917 c 0,5.33049 -0.33874,6.36791 -2.92308,8.95225 L 338.15385,413 309.32692,412.9323 c -17.66617,-0.0415 -29.65387,-0.4681 -30.96284,-1.10191 z M 163.357,308.03214 c -3.78747,-1.57035 -5.36318,-5.00497 -5.27805,-11.50465 0.0434,-3.31512 0.30907,-5.45552 0.59034,-4.75645 0.28127,0.69907 1.7984,1.93657 3.3714,2.75 2.30994,1.19452 7.88268,1.47896 28.97539,1.47896 26.52234,0 28.92529,-0.29662 31.70212,-3.91334 0.99801,-1.29988 1.22394,-0.4671 1.25,4.60758 0.0264,5.13223 -0.38174,6.67528 -2.38021,9 l -2.41201,2.80576 -26.83799,0.21033 c -14.7609,0.11569 -27.80234,-0.1895 -28.98099,-0.67819 z m 117.51157,-0.54199 c -3.21679,-1.74783 -3.48736,-2.41694 -4.39156,-10.86021 l -0.7195,-6.71858 3.04432,3.04432 3.04432,3.04432 h 27.12238 27.12238 l 2.45454,-2.45455 2.45455,-2.45454 -0.0318,6.20454 c -0.0349,6.80081 -1.17803,9.07343 -5.36479,10.66524 -1.63476,0.62153 -12.65642,1.02322 -27.41851,0.99927 -19.45077,-0.0316 -25.24286,-0.3432 -27.31633,-1.46981 z"
         id="path172" />
    </g>
    <path
       style="display:inline;fill:#ffffff;stroke-width:0.612903"
       d="m 165.95603,295.04194 c -2.45912,-0.26428 -4.15843,-0.87069 -5.66935,-2.02312 l -2.15765,-1.64572 -0.0343,-12.07365 c -0.0438,-15.4371 -0.20391,-23.48962 -1.16021,-58.34784 -0.43003,-15.675 -0.86307,-35.53306 -0.9623,-44.12903 -0.0992,-8.59597 -0.47525,-27.88847 -0.83557,-42.87224 -0.72547,-30.16782 -0.82654,-29.14939 3.18988,-32.14434 1.67506,-1.24905 2.46064,-1.29602 24.82258,-1.48411 28.38353,-0.23873 39.44179,0.33537 41.24784,2.14142 2.46243,2.46243 2.65209,7.8512 1.76287,50.08689 -0.45495,21.60868 -0.90238,45.49415 -0.9943,53.07883 -0.0919,7.58468 -0.51113,28.54597 -0.93158,46.58065 -0.42045,18.03467 -0.77545,34.16935 -0.78889,35.85484 -0.0273,3.42605 -1.43174,5.21368 -5.07154,6.45537 -2.15732,0.73595 -46.3334,1.17593 -52.41753,0.52205 z"
       id="path296" />
    <path
       style="fill:#ffffff;stroke-width:0.612903"
       d="m 279.44459,292.9277 -2.44538,-2.49165 -0.3225,-9.76641 c -0.17737,-5.37153 -0.41088,-17.48899 -0.51891,-26.9277 -0.10804,-9.43871 -0.39491,-19.22984 -0.63751,-21.75807 -0.2426,-2.52822 -0.54699,-13.83629 -0.67642,-25.12903 -0.12943,-11.29274 -0.54182,-37.20863 -0.91641,-57.59086 -0.3746,-20.38223 -0.504,-38.44755 -0.28757,-40.14516 0.30309,-2.37729 0.89909,-3.63466 2.59362,-5.47173 2.13128,-2.31055 2.37472,-2.40325 7.78169,-2.96325 7.49037,-0.775779 53.30535,-0.21722 56.20744,0.68526 4.58273,1.42511 4.53542,1.2144 4.53542,20.20292 0,18.37945 -0.54059,45.49065 -1.62719,81.6054 -0.38033,12.64113 -0.7616,26.84516 -0.84726,31.56452 -0.0856,4.71935 -0.35476,14.64838 -0.59803,22.06451 -0.58776,17.91818 -0.6218,19.10634 -0.77745,27.12997 l -0.13394,6.90416 -2.07116,2.26003 -2.07116,2.26003 -27.37095,0.0294 -27.37095,0.0294 z"
       id="path298" />
    <path
       style="fill:#ffffff;stroke-width:0.612903"
       d="m 165.04202,399.34842 c -4.45195,-0.34581 -5.2548,-0.59848 -6.89516,-2.17005 l -1.85654,-1.77867 0.0365,-27.0063 c 0.0201,-14.85347 0.25301,-28.32191 0.5176,-29.92987 0.2788,-1.69434 1.08145,-3.56265 1.90901,-4.44355 L 160.18142,332.5 h 30.05544 30.05545 l 2.62804,2.57922 2.62804,2.57923 v 28.02989 28.02989 l -3.0403,3.17097 -3.0403,3.17098 -6.61293,-0.45345 c -8.21933,-0.56359 -38.44207,-0.73844 -40.93551,-0.23683 -1.01129,0.20345 -4.10609,0.19378 -6.87733,-0.0214 z"
       id="path300" />
    <path
       style="fill:#ffffff;stroke-width:0.612903"
       d="m 276.92378,397.67268 -2.25363,-2.3501 -0.1649,-28.96402 -0.16489,-28.96403 2.38969,-2.44726 2.38969,-2.44727 h 29.6515 29.6515 l 2.70798,2.21899 2.70799,2.219 v 28.91146 28.91145 l -2.70102,2.65086 -2.70102,2.65085 -6.64575,-0.45466 c -8.40717,-0.57517 -36.98686,-0.58563 -45.87157,-0.0168 l -6.74193,0.43164 z"
       id="path302" />
    <path
       style="fill:#666666;stroke-width:0.612903"
       d="M 224.48912,498.30002 C 181.90219,493.39984 141.17207,477.21207 107.61938,451.85132 94.199358,441.70781 78.796077,427.03742 68.329856,414.43117 39.705135,379.95355 21.240303,337.85978 15.639935,294.31538 c -1.363645,-10.60271 -1.031702,-12.96869 0.576021,-4.1057 8.653068,47.70228 29.991926,89.79289 62.869938,124.01007 39.067556,40.65884 89.053826,65.09252 146.462496,71.59202 9.26679,1.04914 39.15808,1.04872 48.41935,-6.1e-4 83.65054,-9.4785 152.68216,-57.64531 189.07682,-131.92841 10.32532,-21.07443 16.74529,-40.83628 20.78483,-63.97952 1.69817,-9.72917 2.0514,-7.98088 0.65933,3.26337 -9.75196,78.77042 -60.04339,148.4491 -132.06937,182.98187 -24.0869,11.54844 -50.45343,19.15759 -75.69354,21.8445 -10.35671,1.10251 -43.62398,1.29806 -52.23669,0.30705 z"
       id="path373" />
  </g>
</svg>
